<svg width="679" height="525" viewBox="0 0 679 525" fill="none" xmlns="http://www.w3.org/2000/svg">
<path d="M678.411 462.97H0V463.309H678.411V462.97Z" fill="#EBEBEB"/>
<path d="M610.435 484.801H538.428V485.141H610.435V484.801Z" fill="#EBEBEB"/>
<path d="M449.407 480.555H369.816V480.894H449.407V480.555Z" fill="#EBEBEB"/>
<path d="M541.901 478.601H515.864V478.94H541.901V478.601Z" fill="#EBEBEB"/>
<path d="M194.921 474.49H136.32V474.829H194.921V474.49Z" fill="#EBEBEB"/>
<path d="M128.762 474.49H107.813V474.829H128.762V474.49Z" fill="#EBEBEB"/>
<path d="M251.921 480.215H178.381V480.555H251.921V480.215Z" fill="#EBEBEB"/>
<path d="M321.567 402.456H59.5781C57.5257 402.452 55.5586 401.635 54.1086 400.182C52.6586 398.729 51.8442 396.761 51.8442 394.708V26.4261C51.862 24.3854 52.6843 22.4343 54.1324 20.9964C55.5805 19.5584 57.5374 18.7499 59.5781 18.7464H321.567C323.622 18.7464 325.592 19.5627 327.045 21.0156C328.498 22.4686 329.314 24.4391 329.314 26.4939V394.708C329.314 396.763 328.498 398.734 327.045 400.187C325.592 401.64 323.622 402.456 321.567 402.456ZM59.5781 19.0178C57.6156 19.0214 55.7348 19.8035 54.3484 21.1924C52.962 22.5814 52.1834 24.4636 52.1834 26.4261V394.708C52.1834 396.671 52.962 398.553 54.3484 399.942C55.7348 401.331 57.6156 402.113 59.5781 402.117H321.567C323.531 402.113 325.413 401.331 326.801 399.943C328.19 398.554 328.972 396.672 328.975 394.708V26.4261C328.972 24.4624 328.19 22.5801 326.801 21.1916C325.413 19.8031 323.531 19.0214 321.567 19.0178H59.5781Z" fill="#EBEBEB"/>
<path d="M615.061 402.456H353.059C351.005 402.452 349.037 401.635 347.585 400.183C346.132 398.731 345.315 396.762 345.311 394.708V26.4261C345.333 24.3842 346.158 22.433 347.608 20.9955C349.059 19.558 351.017 18.7499 353.059 18.7464H615.061C617.1 18.7535 619.053 19.5636 620.498 21.0011C621.943 22.4386 622.764 24.3878 622.782 26.4261V394.708C622.782 396.758 621.969 398.725 620.522 400.177C619.075 401.629 617.111 402.449 615.061 402.456ZM353.059 19.0178C351.095 19.0214 349.213 19.8031 347.824 21.1916C346.436 22.5801 345.654 24.4624 345.651 26.4261V394.708C345.654 396.672 346.436 398.554 347.824 399.943C349.213 401.331 351.095 402.113 353.059 402.117H615.061C617.025 402.113 618.907 401.331 620.296 399.943C621.684 398.554 622.466 396.672 622.47 394.708V26.4261C622.466 24.4624 621.684 22.5801 620.296 21.1916C618.907 19.8031 617.025 19.0214 615.061 19.0178H353.059Z" fill="#EBEBEB"/>
<path d="M361.878 451.491H376.138V281.848H361.878V451.491Z" fill="#F0F0F0"/>
<path d="M87.8407 462.794L370.657 462.794V451.491L87.8407 451.491V462.794Z" fill="#F0F0F0"/>
<path d="M361.878 281.848H82.3727V451.491H361.878V281.848Z" fill="#F5F5F5"/>
<path d="M365.243 281.848H379.978V271.156H365.243V281.848Z" fill="#E0E0E0"/>
<path d="M365.243 271.156H78.5464V281.848H365.243V271.156Z" fill="#EBEBEB"/>
<path d="M340.101 295.009H104.136C98.3061 295.009 93.58 299.735 93.58 305.565V342.973C93.58 348.803 98.3061 353.529 104.136 353.529H340.101C345.931 353.529 350.657 348.803 350.657 342.973V305.565C350.657 299.735 345.931 295.009 340.101 295.009Z" fill="white"/>
<path d="M340.101 371.005H104.136C98.3061 371.005 93.58 375.731 93.58 381.561V418.968C93.58 424.798 98.3061 429.524 104.136 429.524H340.101C345.931 429.524 350.657 424.798 350.657 418.968V381.561C350.657 375.731 345.931 371.005 340.101 371.005Z" fill="white"/>
<path d="M161.367 301.264H282.884C284.21 301.264 285.286 300.189 285.286 298.862V295.647C285.286 294.32 284.21 293.245 282.884 293.245H161.367C160.041 293.245 158.965 294.32 158.965 295.647V298.862C158.965 300.189 160.041 301.264 161.367 301.264Z" fill="#F5F5F5"/>
<path d="M161.367 377.26H282.884C284.21 377.26 285.286 376.184 285.286 374.858V371.642C285.286 370.316 284.21 369.241 282.884 369.241H161.367C160.041 369.241 158.965 370.316 158.965 371.642V374.858C158.965 376.184 160.041 377.26 161.367 377.26Z" fill="#F5F5F5"/>
<path d="M606.758 337.505H563.746V345.727H606.758V337.505Z" fill="#E6E6E6"/>
<path d="M530.789 462.97H538.726V181.565H530.789V462.97Z" fill="#E6E6E6"/>
<path d="M503.3 345.714H563.76V337.491H503.3V345.714Z" fill="#F5F5F5"/>
<path d="M606.758 413.215H563.746V421.438H606.758V413.215Z" fill="#E6E6E6"/>
<path d="M503.3 421.438H563.76V413.215H503.3V421.438Z" fill="#F5F5F5"/>
<path d="M606.758 186.07H563.746V194.292H606.758V186.07Z" fill="#E6E6E6"/>
<path d="M503.3 194.292H563.76V186.07H503.3V194.292Z" fill="#F5F5F5"/>
<path d="M606.758 261.781H563.746V270.003H606.758V261.781Z" fill="#E6E6E6"/>
<path d="M503.3 270.016H563.76V261.794H503.3V270.016Z" fill="#F5F5F5"/>
<path d="M591.249 462.97H599.186V181.565H591.249V462.97Z" fill="#E6E6E6"/>
<path d="M555.809 462.97H563.746V181.565H555.809V462.97Z" fill="#F5F5F5"/>
<path d="M503.3 462.97H511.237L511.237 181.565H503.3L503.3 462.97Z" fill="#F5F5F5"/>
<path d="M119.251 247.561L477.724 247.561V57.2394L119.251 57.2394V247.561Z" fill="#E0E0E0"/>
<path d="M110.201 247.561L472.608 247.561V57.2394L110.201 57.2394V247.561Z" fill="#F5F5F5"/>
<path d="M459.61 232.555V72.2324L123.172 72.2324V232.555L459.61 232.555Z" fill="white"/>
<path d="M339.206 524.244C484.498 524.244 602.28 517.368 602.28 508.885C602.28 500.402 484.498 493.526 339.206 493.526C193.914 493.526 76.1313 500.402 76.1313 508.885C76.1313 517.368 193.914 524.244 339.206 524.244Z" fill="#F5F5F5"/>
<path d="M526.203 302.621H149.983C148.786 302.617 147.639 302.14 146.792 301.294C145.946 300.447 145.469 299.3 145.465 298.103C145.469 296.905 145.946 295.758 146.792 294.912C147.639 294.065 148.786 293.588 149.983 293.584H526.203C527.4 293.588 528.547 294.065 529.394 294.912C530.24 295.758 530.718 296.905 530.721 298.103C530.718 299.3 530.24 300.447 529.394 301.294C528.547 302.14 527.4 302.617 526.203 302.621Z" fill="#448FF2"/>
<path opacity="0.3" d="M526.203 302.621H438.132C436.934 302.617 435.787 302.14 434.941 301.294C434.094 300.447 433.617 299.3 433.613 298.103C433.617 296.905 434.094 295.758 434.941 294.912C435.787 294.065 436.934 293.588 438.132 293.584H526.203C527.4 293.588 528.547 294.065 529.394 294.912C530.24 295.758 530.718 296.905 530.721 298.103C530.718 299.3 530.24 300.447 529.394 301.294C528.547 302.14 527.4 302.617 526.203 302.621Z" fill="#263238"/>
<path d="M516.651 313.95H227.309V345.442H516.651V313.95Z" fill="#263238"/>
<path opacity="0.1" d="M516.651 313.95H227.309V345.442H516.651V313.95Z" fill="white"/>
<path d="M512.445 502.616H521.101L520.749 302.621H508.754L512.445 502.616Z" fill="#263238"/>
<path opacity="0.1" d="M512.445 502.616H521.101L520.749 302.621H508.754L512.445 502.616Z" fill="white"/>
<path d="M432.664 502.616H423.994L443.586 302.621H455.58L432.664 502.616Z" fill="#263238"/>
<path opacity="0.2" d="M432.664 502.616H423.994L443.586 302.621H455.58L432.664 502.616Z" fill="white"/>
<path d="M224.296 502.616H232.953L232.6 302.621H220.606L224.296 502.616Z" fill="#263238"/>
<path opacity="0.1" d="M224.296 502.616H232.953L232.6 302.621H220.606L224.296 502.616Z" fill="white"/>
<path d="M144.515 502.616H135.845L155.438 302.621H167.432L144.515 502.616Z" fill="#263238"/>
<path opacity="0.2" d="M144.515 502.616H135.845L155.438 302.621H167.432L144.515 502.616Z" fill="white"/>
<path d="M388.201 293.584H368.228L360.236 254.535H380.209L388.201 293.584Z" fill="#263238"/>
<path d="M414.699 285.538H328.053C327.379 285.546 326.711 285.413 326.091 285.149C325.471 284.885 324.912 284.495 324.45 284.004C323.989 283.513 323.634 282.932 323.409 282.297C323.183 281.662 323.092 280.987 323.141 280.315L326.452 225.458C326.553 224.053 327.178 222.737 328.203 221.769C329.228 220.802 330.578 220.255 331.987 220.235H418.648C419.321 220.229 419.988 220.363 420.607 220.628C421.226 220.893 421.784 221.282 422.245 221.773C422.706 222.264 423.061 222.844 423.287 223.478C423.514 224.113 423.606 224.787 423.559 225.458L420.249 280.315C420.144 281.721 419.516 283.038 418.489 284.005C417.462 284.971 416.11 285.519 414.699 285.538Z" fill="#263238"/>
<path d="M413.342 285.538H326.696C326.022 285.546 325.354 285.413 324.734 285.149C324.114 284.885 323.555 284.495 323.094 284.004C322.632 283.513 322.277 282.932 322.052 282.297C321.826 281.662 321.735 280.987 321.784 280.315L325.095 225.458C325.196 224.053 325.821 222.737 326.846 221.769C327.871 220.802 329.222 220.255 330.631 220.235H417.291C417.964 220.229 418.631 220.363 419.25 220.628C419.869 220.893 420.427 221.282 420.888 221.773C421.35 222.264 421.704 222.844 421.931 223.478C422.157 224.113 422.249 224.787 422.203 225.458L418.892 280.315C418.787 281.721 418.159 283.038 417.132 284.005C416.105 284.971 414.753 285.519 413.342 285.538Z" fill="#448FF2"/>
<path d="M326.682 282.825C326.381 282.827 326.083 282.768 325.805 282.651C325.528 282.534 325.277 282.363 325.068 282.146C324.863 281.921 324.707 281.658 324.606 281.371C324.506 281.084 324.465 280.781 324.484 280.477L327.795 225.621C327.845 224.897 328.164 224.218 328.688 223.716C329.212 223.214 329.905 222.926 330.631 222.907H417.291C417.594 222.903 417.894 222.961 418.173 223.08C418.452 223.198 418.703 223.373 418.91 223.594C419.117 223.815 419.275 224.077 419.375 224.363C419.475 224.649 419.514 224.953 419.489 225.255L416.178 280.111C416.131 280.836 415.813 281.517 415.288 282.02C414.763 282.522 414.069 282.809 413.342 282.825H326.682Z" fill="white"/>
<path opacity="0.2" d="M364.741 220.235L370.372 239.515L387.088 220.235H364.741Z" fill="black"/>
<path d="M230.049 173.424C230.185 174.469 230.836 175.256 231.528 175.202C232.22 175.147 232.655 174.252 232.519 173.207C232.383 172.162 231.732 171.375 231.053 171.43C230.375 171.484 229.927 172.407 230.049 173.424Z" fill="#263238"/>
<path d="M231.189 174.984C232.411 177.693 233.99 180.226 235.884 182.515C234.391 184.021 231.664 183.41 231.664 183.41L231.189 174.984Z" fill="#A02724"/>
<path d="M226.589 169.449C226.486 169.468 226.381 169.468 226.277 169.449C226.127 169.383 226.008 169.261 225.944 169.11C225.881 168.958 225.879 168.788 225.938 168.635C226.291 167.731 226.858 166.926 227.591 166.291C228.324 165.655 229.2 165.207 230.144 164.985C230.224 164.971 230.305 164.973 230.383 164.991C230.462 165.009 230.536 165.042 230.602 165.089C230.667 165.136 230.723 165.195 230.765 165.263C230.808 165.331 230.837 165.407 230.85 165.487C230.878 165.649 230.84 165.815 230.746 165.949C230.653 166.084 230.509 166.176 230.348 166.206C229.608 166.385 228.924 166.743 228.356 167.25C227.788 167.756 227.354 168.395 227.091 169.109C227.042 169.202 226.97 169.282 226.882 169.341C226.795 169.4 226.694 169.437 226.589 169.449Z" fill="#263238"/>
<path d="M199.304 189.801L207.445 196.042L218.557 204.55C217.948 205.828 217.58 207.208 217.472 208.62C217.078 211.741 216.685 214.047 223.618 215.961C224.355 216.136 225.025 216.52 225.549 217.066C226.074 217.612 226.43 218.298 226.576 219.041C226.847 220.886 225.721 223.111 219.317 224.21C213.114 225.137 206.777 224.058 201.23 221.13C198.517 219.773 198.517 218.145 199.657 215.391C203.076 207.562 201.42 197.576 199.304 189.801Z" fill="#B55B52"/>
<path d="M189.955 217.86C191.519 214.852 192.808 211.71 193.809 208.471C193.809 208.471 214.432 207.345 221.244 209.38C228.055 211.415 232.288 220.235 232.288 220.235L189.955 217.86Z" fill="#448FF2"/>
<path d="M198.585 233.206C198.083 234.725 197.526 236.584 196.997 238.294L195.464 243.585C194.514 247.113 193.592 250.655 192.872 254.182C192.107 257.632 191.523 261.119 191.122 264.63C190.704 267.855 190.604 271.113 190.824 274.358C190.904 275.732 191.113 277.094 191.448 278.429C191.529 278.7 191.597 278.999 191.692 279.256L191.963 279.989C191.899 279.858 191.827 279.731 191.746 279.609C191.608 279.411 191.458 279.221 191.299 279.039C191.124 278.829 190.923 278.643 190.702 278.483C190.43 278.293 190.389 278.32 190.444 278.388C190.841 278.674 191.269 278.915 191.719 279.107C192.33 279.378 193.076 279.65 193.822 279.908C195.355 280.423 197.051 280.898 198.802 281.359C205.803 283.123 213.442 284.494 220.891 286.081L220.647 295.484C216.668 296.015 212.664 296.346 208.652 296.474C204.581 296.622 200.505 296.554 196.441 296.271C194.289 296.127 192.146 295.864 190.023 295.484C188.911 295.28 187.757 295.05 186.536 294.711C185.132 294.348 183.768 293.843 182.466 293.204C181.502 292.74 180.592 292.172 179.752 291.508C179.157 291.035 178.608 290.509 178.11 289.935C177.799 289.567 177.509 289.182 177.242 288.781C177.106 288.551 176.957 288.32 176.835 288.089L176.658 287.764L175.722 285.851C175.437 285.213 175.207 284.589 174.962 283.951C174.106 281.576 173.488 279.121 173.117 276.624C171.76 267.194 172.832 258.782 174.243 250.6C175.003 246.53 175.899 242.459 176.957 238.592C177.5 236.625 178.069 234.658 178.68 232.717C179.291 230.777 179.942 228.905 180.729 226.774L198.585 233.206Z" fill="#B55B52"/>
<path d="M186.034 216.178C198.856 212.786 206.468 223.287 202.126 240.6C197.784 257.914 196.332 258.565 196.332 258.565L169.888 254.155C173.144 237.195 172.886 219.638 186.034 216.178Z" fill="#448FF2"/>
<path d="M227.458 282.323L225.463 282.146C219.792 282.146 218.815 283.693 215.328 286.936L213.971 294.073C223.13 298.754 228.041 293.612 228.055 293.612H236.535L233.55 286.827C233.029 285.601 232.189 284.537 231.118 283.744C230.047 282.952 228.783 282.461 227.458 282.323Z" fill="#B55B52"/>
<path d="M195.803 176.301C198.11 188.661 198.829 196.015 205.912 201.538C216.549 209.828 231.203 201.945 232.641 189.082C233.93 177.508 229.927 159.232 217.146 155.989C214.296 155.285 211.314 155.311 208.476 156.063C205.638 156.816 203.035 158.272 200.908 160.296C198.781 162.32 197.199 164.847 196.306 167.645C195.414 170.442 195.241 173.419 195.803 176.301Z" fill="#B55B52"/>
<path d="M220.294 180.615C229.113 179.91 226.535 170.616 223.808 168.675C227.946 167.101 230.796 160.534 226.82 156.03C229.154 149.938 222.478 142.597 210.769 143.696C202.221 144.483 201.271 149.001 201.271 149.001C201.271 149.001 191.027 147.929 186.767 156.382C183.13 163.628 187.54 167.495 187.54 167.495C187.54 167.495 179.888 169.72 182.004 179.706C184.257 190.479 192.533 187.983 192.533 187.983C192.533 187.983 190.674 197.861 201.868 197.996C211.542 198.118 211.664 190.873 211.664 190.873C211.664 190.873 224.202 189.706 220.294 180.615Z" fill="#263238"/>
<path d="M213.727 181.334C214.716 183.986 216.648 186.179 219.154 187.494C222.383 189.15 224.853 185.717 224.283 182.189C223.767 179.028 221.013 174.971 217.607 174.781C214.202 174.591 212.519 178.051 213.727 181.334Z" fill="#B55B52"/>
<path d="M345.271 487.081L357.333 482.183L348.812 453.215L336.75 458.099L345.271 487.081Z" fill="#B55B52"/>
<path opacity="0.2" d="M340.888 472.156L353.073 467.678L348.812 453.215L336.75 458.099L340.888 472.156Z" fill="black"/>
<path d="M356.288 477.352L342.489 482.142C342.373 482.178 342.266 482.236 342.172 482.313C342.079 482.39 342.002 482.485 341.945 482.592C341.888 482.699 341.853 482.817 341.842 482.937C341.831 483.058 341.843 483.18 341.879 483.295L344.999 494.448C345.2 495.023 345.618 495.495 346.164 495.764C346.709 496.033 347.339 496.077 347.917 495.887C352.679 494.123 354.606 493.173 360.494 490.622C366.291 488.197 371.961 485.48 377.482 482.481C382.081 479.768 379.313 475.141 377.075 475.901C371.77 477.692 363.072 478.858 358.663 477.339C357.892 477.079 357.056 477.083 356.288 477.352Z" fill="#F23838"/>
<path d="M248.394 319.961C248.394 319.961 339.559 328.102 341.919 354.329C346.668 407.693 353.954 459.144 353.954 459.144L335.407 465.928C335.407 465.928 312.707 407.313 313.006 365.523C286.71 358.101 217.567 368.997 206.264 348.712C196.278 330.802 205.043 317.939 205.043 317.939L248.394 319.961Z" fill="#263238"/>
<path d="M334.023 470.148L357.116 462.346L356.112 451.831L330.074 460.216L334.023 470.148Z" fill="#448FF2"/>
<path d="M361.376 477.909C360.266 478.265 359.119 478.497 357.957 478.601C357.898 478.608 357.838 478.598 357.785 478.572C357.732 478.545 357.688 478.503 357.659 478.451C357.629 478.402 357.613 478.346 357.613 478.289C357.613 478.231 357.629 478.175 357.659 478.126C357.957 477.719 360.616 474.137 362.312 474.191C362.507 474.203 362.695 474.262 362.861 474.364C363.026 474.465 363.164 474.607 363.262 474.774C363.439 475.014 363.548 475.296 363.579 475.592C363.61 475.888 363.562 476.186 363.439 476.457C362.954 477.178 362.219 477.695 361.376 477.909ZM358.663 477.909C361.01 477.583 362.611 476.959 362.977 476.186C363.054 476.008 363.08 475.813 363.054 475.622C363.028 475.431 362.95 475.25 362.828 475.1C362.786 475.013 362.721 474.939 362.639 474.886C362.558 474.834 362.464 474.804 362.367 474.802C361.39 474.761 359.707 476.511 358.595 477.909H358.663Z" fill="#448FF2"/>
<path d="M358.025 478.587C357.976 478.601 357.924 478.601 357.876 478.587C357.826 478.579 357.779 478.558 357.739 478.527C357.698 478.497 357.666 478.457 357.645 478.411C357.645 478.262 356.085 474.829 356.899 473.201C357.004 472.992 357.155 472.811 357.341 472.67C357.526 472.529 357.742 472.432 357.971 472.386C358.22 472.303 358.491 472.307 358.738 472.398C358.984 472.49 359.193 472.663 359.327 472.889C360.074 474.137 359.138 477.325 358.174 478.479C358.137 478.529 358.084 478.567 358.025 478.587ZM358.025 473.024C357.909 473.064 357.803 473.126 357.712 473.208C357.621 473.289 357.548 473.388 357.496 473.499C357.007 474.462 357.604 476.525 358.052 477.678C358.798 476.403 359.341 474.028 358.853 473.214C358.758 473.065 358.595 472.889 358.161 472.983L358.025 473.024Z" fill="#448FF2"/>
<path d="M280.727 495.697L293.617 495.086L295.72 464.653L282.83 465.263L280.727 495.697Z" fill="#B55B52"/>
<path d="M293.915 492.888L279.316 492.427C279.194 492.417 279.073 492.432 278.957 492.47C278.842 492.508 278.735 492.569 278.643 492.648C278.551 492.728 278.475 492.825 278.421 492.933C278.366 493.042 278.334 493.16 278.325 493.282L277.253 504.801C277.242 505.107 277.292 505.412 277.4 505.698C277.507 505.985 277.67 506.247 277.88 506.471C278.089 506.694 278.34 506.873 278.619 506.999C278.899 507.125 279.2 507.194 279.506 507.203C284.594 507.27 287.022 507.053 293.44 507.203C297.389 507.325 305.163 507.908 310.577 507.203C315.991 506.497 315.163 501.192 312.802 500.988C307.225 500.541 299.749 496.687 296.181 493.689C295.54 493.17 294.74 492.887 293.915 492.888Z" fill="#F23838"/>
<path d="M298.501 495.29C297.335 495.223 296.18 495.032 295.055 494.72C294.997 494.707 294.945 494.677 294.904 494.634C294.864 494.592 294.837 494.538 294.826 494.48C294.816 494.422 294.824 494.362 294.847 494.308C294.871 494.254 294.91 494.209 294.96 494.177C295.38 493.892 299.139 491.463 300.713 492.169C300.891 492.247 301.047 492.369 301.165 492.523C301.284 492.677 301.362 492.859 301.391 493.051C301.47 493.336 301.471 493.638 301.395 493.924C301.318 494.21 301.167 494.471 300.957 494.679C300.247 495.189 299.368 495.408 298.501 495.29ZM295.896 494.299C298.203 494.842 299.966 494.828 300.55 494.299C300.684 494.156 300.777 493.98 300.82 493.79C300.862 493.599 300.854 493.4 300.794 493.214C300.781 493.12 300.745 493.03 300.688 492.954C300.631 492.878 300.555 492.818 300.469 492.78C299.573 492.372 297.375 493.39 295.787 494.299H295.896Z" fill="#448FF2"/>
<path d="M295.068 494.733C295.019 494.745 294.968 494.745 294.919 494.733C294.875 494.705 294.839 494.667 294.813 494.622C294.787 494.578 294.772 494.527 294.77 494.476C294.77 494.326 294.593 490.581 295.937 489.36C296.113 489.188 296.329 489.063 296.566 488.997C296.804 488.93 297.054 488.925 297.294 488.98C297.553 488.995 297.8 489.096 297.995 489.269C298.189 489.441 298.32 489.674 298.365 489.93C298.61 491.355 296.588 494.001 295.272 494.733C295.207 494.76 295.134 494.76 295.068 494.733ZM297.009 489.564C296.887 489.556 296.765 489.573 296.65 489.615C296.536 489.657 296.431 489.723 296.344 489.808C295.543 490.527 295.367 492.671 295.367 493.879C296.52 492.956 297.877 490.934 297.714 489.998C297.714 489.822 297.578 489.618 297.144 489.55L297.009 489.564Z" fill="#448FF2"/>
<path opacity="0.2" d="M282.83 465.263L295.733 464.653L294.512 482.061L281.663 482.047L282.83 465.263Z" fill="black"/>
<path d="M218.109 318.509C218.109 318.509 316.343 333.529 314.783 356.148C311.974 396.852 298.325 476.403 298.325 476.403L278.976 476.674C278.976 476.674 274.404 395.075 281.69 365.333C257.525 365.333 189.358 364.492 180.064 352.077C169.779 338.36 180.349 316.8 180.349 316.8L218.109 318.509Z" fill="#263238"/>
<path d="M276.697 478.194L300.116 477.827L301.269 465.453L275.571 466.457L276.697 478.194Z" fill="#448FF2"/>
<path d="M235.409 214.807C227.499 213.26 191.828 213.708 191.828 213.708C188.262 213.611 184.79 214.854 182.096 217.193C179.403 219.532 177.685 222.796 177.283 226.34C176.034 237.344 183.022 261.93 183.266 274.467C183.565 289.867 180.62 296.108 180.322 316.84L248.394 319.961C248.394 278.266 246.575 243.748 244.934 227.195C244.35 221.374 243.319 216.34 235.409 214.807Z" fill="#448FF2"/>
<path opacity="0.3" d="M235.409 214.807C227.499 213.26 191.828 213.708 191.828 213.708C188.262 213.611 184.79 214.854 182.096 217.193C179.403 219.532 177.685 222.796 177.283 226.34C176.034 237.344 183.022 261.93 183.266 274.467C183.565 289.867 180.62 296.108 180.322 316.84L248.394 319.961C248.394 278.266 246.575 243.748 244.934 227.195C244.35 221.374 243.319 216.34 235.409 214.807Z" fill="white"/>
<path d="M244.73 227.941C246.86 235.268 249.004 242.799 251.216 250.152C253.427 257.506 255.693 264.901 258.244 271.862C258.868 273.639 259.601 275.294 260.198 277.004L261.243 279.406L261.378 279.704V279.853V279.935V279.84C261.144 279.421 260.851 279.037 260.51 278.7C260.049 278.252 259.872 278.212 259.832 278.212C260.134 278.485 260.483 278.701 260.863 278.849C261.527 279.17 262.211 279.446 262.912 279.677C264.445 280.206 266.168 280.681 267.918 281.156C275.014 282.96 282.762 284.344 290.306 285.959L290.062 295.362C286.012 295.908 281.935 296.239 277.85 296.352C273.715 296.511 269.575 296.434 265.449 296.122C263.255 295.965 261.071 295.684 258.909 295.28C257.769 295.063 256.589 294.792 255.313 294.426C253.801 294.002 252.343 293.401 250.972 292.635C249.878 292.007 248.874 291.236 247.987 290.342C247.309 289.643 246.725 288.858 246.25 288.008L245.789 287.153L244.255 284.249C243.36 282.35 242.383 280.437 241.542 278.551C239.873 274.738 238.407 270.966 236.942 267.181C235.477 263.395 234.228 259.61 232.967 255.81C230.456 248.172 228.191 240.614 226.182 232.744L244.73 227.941Z" fill="#B55B52"/>
<path d="M225.396 220.384C234.703 210.886 246.603 216.069 251.718 233.219C256.833 250.37 255.91 251.618 255.91 251.618L230.904 261.319C225.002 244.983 215.871 230.058 225.396 220.384Z" fill="#448FF2"/>
<path d="M296.954 282.323L294.96 282.146C289.288 282.146 288.325 283.693 284.838 286.936L283.481 294.073C292.64 298.754 297.551 293.612 297.551 293.612H306.045L303.046 286.827C302.528 285.599 301.689 284.533 300.617 283.741C299.545 282.948 298.28 282.459 296.954 282.323Z" fill="#B55B52"/>
<path d="M183.307 370.299H270.252C272.163 370.299 273.712 368.75 273.712 366.839V361.249C273.712 359.338 272.163 357.789 270.252 357.789H183.307C181.396 357.789 179.847 359.338 179.847 361.249V366.839C179.847 368.75 181.396 370.299 183.307 370.299Z" fill="#448FF2"/>
<path d="M183.7 509.577H179.847L184.284 370.286H189.616L183.7 509.577Z" fill="#448FF2"/>
<path opacity="0.4" d="M183.7 509.577H179.847L184.284 370.286H189.616L183.7 509.577Z" fill="white"/>
<path d="M219.141 509.577H222.994L218.571 370.286H213.238L219.141 509.577Z" fill="#448FF2"/>
<path opacity="0.4" d="M219.141 509.577H222.994L218.571 370.286H213.238L219.141 509.577Z" fill="white"/>
<path d="M234.418 509.577H230.565L235.002 370.286H240.334L234.418 509.577Z" fill="#448FF2"/>
<path opacity="0.4" d="M234.418 509.577H230.565L235.002 370.286H240.334L234.418 509.577Z" fill="white"/>
<path d="M269.859 509.577H273.712L269.289 370.286H263.956L269.859 509.577Z" fill="#448FF2"/>
<path opacity="0.4" d="M269.859 509.577H273.712L269.289 370.286H263.956L269.859 509.577Z" fill="white"/>
<g opacity="0.3">
<path opacity="0.3" d="M184.284 370.286H189.616L189.358 376.201H184.094L184.284 370.286Z" fill="#448FF2"/>
<path opacity="0.3" d="M218.747 376.201H213.483L213.238 370.286H218.557L218.747 376.201Z" fill="#448FF2"/>
<path opacity="0.3" d="M240.32 370.286L240.076 376.201H234.812L235.002 370.286H240.32Z" fill="#448FF2"/>
<path opacity="0.3" d="M269.479 376.201H264.201L263.956 370.286H269.289L269.479 376.201Z" fill="#448FF2"/>
</g>
<path d="M527.804 200.031H310.482C308.793 200.049 307.119 199.716 305.566 199.054C304.013 198.392 302.613 197.414 301.457 196.184C300.3 194.953 299.412 193.497 298.847 191.905C298.282 190.314 298.053 188.622 298.175 186.938L306.466 49.397C306.726 45.8731 308.297 42.5746 310.869 40.1511C313.44 37.7277 316.826 36.3551 320.359 36.3037H537.627C539.316 36.2861 540.99 36.619 542.543 37.2813C544.097 37.9435 545.496 38.9207 546.652 40.1512C547.809 41.3817 548.698 42.8387 549.262 44.4301C549.827 46.0215 550.056 47.7128 549.934 49.397L541.63 186.992C541.361 190.496 539.795 193.774 537.238 196.185C534.681 198.596 531.318 199.968 527.804 200.031Z" fill="#448FF2"/>
<path d="M339.558 170.955L359.599 239.515L419.055 170.955H339.558Z" fill="#448FF2"/>
<path opacity="0.1" d="M517.207 144.687H395.419C394.472 144.697 393.533 144.51 392.662 144.139C391.791 143.768 391.006 143.22 390.357 142.53C389.708 141.841 389.209 141.024 388.891 140.132C388.574 139.239 388.445 138.291 388.513 137.346L393.167 60.2516C393.312 58.276 394.193 56.4266 395.634 55.0679C397.076 53.7092 398.974 52.9397 400.955 52.9112H522.743C523.693 52.8909 524.637 53.0703 525.513 53.4379C526.389 53.8055 527.178 54.353 527.829 55.045C528.48 55.737 528.979 56.5581 529.292 57.455C529.606 58.3519 529.727 59.3047 529.649 60.2516L524.995 137.346C524.85 139.322 523.969 141.171 522.528 142.53C521.086 143.889 519.188 144.658 517.207 144.687Z" fill="white"/>
<path opacity="0.1" d="M452.053 177.942H330.251C329.305 177.95 328.368 177.763 327.498 177.391C326.628 177.019 325.845 176.471 325.197 175.781C324.55 175.091 324.052 174.275 323.736 173.384C323.419 172.493 323.291 171.545 323.358 170.602L328.012 93.5073C328.157 91.534 329.036 89.6865 330.474 88.3281C331.913 86.9698 333.808 86.1988 335.786 86.1669H457.588C458.537 86.1485 459.479 86.3294 460.354 86.6978C461.228 87.0662 462.016 87.614 462.666 88.3058C463.315 88.9976 463.812 89.818 464.125 90.714C464.438 91.6099 464.559 92.5615 464.481 93.5073L459.827 170.602C459.682 172.575 458.803 174.423 457.365 175.781C455.926 177.14 454.031 177.91 452.053 177.942Z" fill="white"/>
<g opacity="0.5">
<path opacity="0.5" d="M328.636 48.2709C328.611 49.3128 328.198 50.3078 327.478 51.0609C326.758 51.8139 325.782 52.2706 324.742 52.3414C324.248 52.3169 323.764 52.1887 323.323 51.9652C322.881 51.7417 322.492 51.4278 322.18 51.0439C321.867 50.66 321.639 50.2147 321.51 49.737C321.382 49.2592 321.355 48.7597 321.431 48.2709C321.462 47.2309 321.877 46.2393 322.596 45.4875C323.316 44.7357 324.288 44.2772 325.325 44.2004C325.82 44.2249 326.303 44.3531 326.745 44.5766C327.186 44.8001 327.576 45.114 327.888 45.4979C328.2 45.8818 328.428 46.3271 328.557 46.8048C328.686 47.2825 328.713 47.7821 328.636 48.2709Z" fill="white"/>
<path opacity="0.5" d="M341.919 48.271C341.892 49.3119 341.477 50.3052 340.758 51.0576C340.038 51.81 339.064 52.2677 338.025 52.3414C337.53 52.3188 337.045 52.192 336.602 51.9692C336.159 51.7465 335.767 51.4329 335.454 51.0488C335.14 50.6647 334.911 50.2188 334.781 49.7401C334.652 49.2615 334.624 48.7609 334.701 48.271C334.732 47.231 335.147 46.2393 335.866 45.4876C336.585 44.7358 337.557 44.2772 338.595 44.2005C339.09 44.2252 339.574 44.3534 340.016 44.5768C340.458 44.8002 340.848 45.1138 341.161 45.4974C341.475 45.881 341.704 46.326 341.834 46.8038C341.965 47.2815 341.994 47.7813 341.919 48.271Z" fill="white"/>
<path opacity="0.5" d="M355.298 48.271C355.273 49.3128 354.86 50.3079 354.139 51.0609C353.419 51.814 352.443 52.2707 351.403 52.3414C350.909 52.317 350.426 52.1888 349.984 51.9653C349.543 51.7417 349.153 51.4278 348.841 51.0439C348.529 50.6601 348.301 50.2148 348.172 49.737C348.043 49.2593 348.016 48.7598 348.093 48.271C348.124 47.231 348.539 46.2393 349.258 45.4876C349.977 44.7358 350.949 44.2772 351.987 44.2005C352.481 44.225 352.965 44.3531 353.406 44.5766C353.848 44.8002 354.237 45.1141 354.549 45.498C354.862 45.8819 355.09 46.3271 355.218 46.8049C355.347 47.2826 355.374 47.7821 355.298 48.271Z" fill="white"/>
</g>
<path opacity="0.3" d="M526.122 198.756H308.854C307.119 198.77 305.401 198.424 303.806 197.742C302.212 197.06 300.776 196.055 299.588 194.791C298.4 193.527 297.487 192.031 296.905 190.397C296.324 188.763 296.086 187.026 296.208 185.296L304.512 47.7552C304.773 44.1449 306.378 40.7637 309.011 38.2793C311.643 35.7949 315.112 34.3879 318.731 34.3362H535.945C537.679 34.3226 539.398 34.6678 540.992 35.3502C542.587 36.0325 544.023 37.0373 545.211 38.3013C546.398 39.5654 547.311 41.0614 547.893 42.6953C548.475 44.3292 548.712 46.0658 548.591 47.7959L540.3 185.337C540.037 188.939 538.436 192.313 535.813 194.796C533.19 197.279 529.733 198.691 526.122 198.756ZM318.731 35.0282C315.279 35.0703 311.969 36.4074 309.456 38.7745C306.943 41.1416 305.411 44.3662 305.163 47.8095L296.859 185.351C296.739 186.989 296.96 188.635 297.509 190.184C298.057 191.732 298.921 193.15 300.046 194.348C301.171 195.545 302.532 196.496 304.044 197.141C305.555 197.785 307.184 198.109 308.826 198.091H526.122C529.573 198.046 532.881 196.708 535.393 194.341C537.906 191.975 539.439 188.752 539.69 185.31L547.98 47.7688C548.097 46.1254 547.871 44.4756 547.317 42.9241C546.762 41.3725 545.892 39.9529 544.761 38.7552C543.629 37.5576 542.262 36.6079 540.744 35.9663C539.227 35.3247 537.592 35.0053 535.945 35.0282H318.731Z" fill="#263238"/>
<path d="M408.471 118.351C407.549 120.305 406.708 121.973 405.758 123.778C404.808 125.583 403.858 127.211 402.881 128.907C400.887 132.285 398.811 135.691 396.586 138.866C395.464 140.494 394.315 142.109 393.139 143.71C391.905 145.284 390.738 146.885 389.422 148.418C386.854 151.596 384.085 154.605 381.132 157.427C380.385 158.16 379.571 158.784 378.784 159.557C378.003 160.29 377.179 160.974 376.315 161.606L373.71 163.574L372.909 164.13C372.555 164.355 372.188 164.558 371.81 164.741C371.065 165.098 370.282 165.371 369.476 165.555C367.884 165.927 366.228 165.94 364.63 165.592C363.032 165.245 361.531 164.546 360.236 163.547C359.594 163.04 359.008 162.467 358.486 161.837L358.12 161.348L357.943 161.104L357.876 160.996L357.631 160.561L356.654 158.798C356.356 158.228 356.152 157.685 355.908 157.129C355.053 155.081 354.355 152.972 353.819 150.819C352.874 146.896 352.212 142.911 351.838 138.893C351.441 134.98 351.269 131.048 351.322 127.116C351.351 126 351.777 124.931 352.525 124.102C353.272 123.273 354.291 122.739 355.397 122.595C356.504 122.451 357.626 122.707 358.56 123.317C359.495 123.927 360.181 124.851 360.494 125.922V126.085C362.292 133 364.517 139.797 367.156 146.437C367.76 147.842 368.463 149.202 369.259 150.507C369.436 150.779 369.612 151.104 369.788 151.335L370.304 151.959L370.426 152.122L370.358 152.014L370.209 151.81C369.997 151.532 369.751 151.281 369.476 151.064C368.935 150.627 368.306 150.312 367.631 150.141C366.956 149.998 366.258 149.998 365.582 150.141C365.231 150.215 364.89 150.329 364.565 150.48C364.388 150.48 364.239 150.657 364.076 150.738C363.913 150.82 363.669 151.023 363.846 150.874L365.542 149.218C366.111 148.703 366.668 148.079 367.224 147.482C367.78 146.885 368.35 146.301 368.893 145.664C373.366 140.299 377.439 134.612 381.077 128.649C382.936 125.623 384.768 122.543 386.505 119.423L389.123 114.728L391.606 110.142L391.742 109.898C392.919 107.79 394.866 106.218 397.175 105.512C399.483 104.805 401.976 105.018 404.132 106.105C406.287 107.193 407.94 109.071 408.743 111.348C409.547 113.625 409.44 116.124 408.444 118.324L408.471 118.351Z" fill="#263238"/>
<path d="M352.598 126.519L345.99 122.733L353.1 115.474C355.183 117.018 357.114 118.758 358.866 120.671C359.279 121.109 359.583 121.637 359.755 122.213C359.927 122.789 359.961 123.398 359.856 123.99C359.75 124.582 359.508 125.141 359.147 125.623C358.787 126.104 358.319 126.495 357.781 126.763C356.961 127.143 356.062 127.32 355.159 127.277C354.257 127.234 353.378 126.974 352.598 126.519Z" fill="#FFC3BD"/>
<path d="M344.484 114.959L348.079 112.394C348.547 112.054 349.129 111.912 349.7 111.999C350.272 112.085 350.786 112.393 351.132 112.856L353.1 115.474L345.99 122.733L343.751 117.632C343.548 117.17 343.51 116.652 343.643 116.165C343.776 115.678 344.073 115.252 344.484 114.959Z" fill="#FFC3BD"/>
<path d="M394.238 112.272C394.777 110.499 395.794 108.909 397.178 107.676C398.561 106.444 400.258 105.616 402.081 105.285C404.715 104.703 407.385 104.295 410.073 104.063C418.165 103.748 426.27 103.893 434.346 104.498C438.579 104.783 442.908 105.38 446.354 105.949H446.476C448.301 106.252 449.932 107.266 451.01 108.77C452.089 110.273 452.527 112.142 452.229 113.968C450.533 123.764 445.553 140.806 445.011 156.885C444.292 177.997 444.617 190.154 444.251 195.242L389.91 194.197C386.125 142.597 390.833 123.954 394.238 112.272Z" fill="white"/>
<path d="M447.928 105.149H447.752C444.115 104.552 439.611 103.914 435.092 103.616L432.677 103.48C430.303 113.303 416.151 129.829 411.864 154.876C410.208 133.941 408.933 112.055 411.362 103.521C407.521 103.637 403.689 103.959 399.883 104.484C397.87 104.939 396.013 105.92 394.502 107.326C392.991 108.733 391.879 110.514 391.281 112.489C387.943 122.313 381.566 144.32 385.487 198.43H445.879C446.273 193.003 444.862 181.606 447.046 164.062C449.149 147.075 452.175 123.954 453.952 113.629C454.271 111.707 453.816 109.736 452.688 108.147C451.559 106.559 449.848 105.481 447.928 105.149Z" fill="#263238"/>
<path opacity="0.2" d="M410.575 195.608C410.483 195.612 410.394 195.58 410.326 195.519C410.257 195.459 410.215 195.374 410.208 195.283C408.933 180.018 411.321 158.106 411.348 157.875C411.353 157.829 411.367 157.784 411.39 157.743C411.412 157.702 411.443 157.666 411.479 157.637C411.516 157.608 411.558 157.586 411.603 157.573C411.648 157.561 411.695 157.557 411.741 157.563C411.836 157.573 411.923 157.62 411.984 157.694C412.045 157.767 412.075 157.861 412.067 157.956C412.067 158.173 409.652 180.032 410.927 195.215C410.933 195.262 410.929 195.31 410.915 195.356C410.902 195.402 410.879 195.444 410.849 195.481C410.818 195.518 410.781 195.548 410.738 195.57C410.696 195.592 410.649 195.605 410.602 195.608H410.575Z" fill="white"/>
<path opacity="0.3" d="M445.798 126.627C443.559 136.776 444.753 150.833 447.155 163.655C448.932 149.259 451.361 130.576 453.138 119.016C450.655 117.36 447.575 118.527 445.798 126.627Z" fill="black"/>
<path d="M411.226 103.996C418.268 102.449 419.489 98.1069 418.987 93.3038C418.863 92.1038 418.668 90.9123 418.403 89.7354L427.196 82.5442L433.668 77.2797C431.904 85.0679 429.964 99.2738 435.282 104.579C435.282 104.579 430.94 111.702 418.865 110.834C408.661 110.101 411.226 103.996 411.226 103.996Z" fill="#FFC3BD"/>
<path d="M421.931 109.043L419.977 110.888L426.219 113.236L425.405 110.861L421.931 109.043Z" fill="#E0E0E0"/>
<path d="M426.707 116.546C426.707 116.546 424.251 110.345 421.931 109.029C426.495 107.941 430.674 105.628 434.02 102.34L437.725 103.819C437.725 103.819 438.891 111.01 426.707 116.546Z" fill="#F5F5F5"/>
<path d="M418.512 108.555L419.977 110.888L413.41 111.458L414.726 109.382L418.512 108.555Z" fill="#E0E0E0"/>
<path d="M410.113 114.796C412.52 112.233 415.364 110.119 418.512 108.554C414.944 107.496 414.726 102.584 414.726 102.584L411.267 103.249C411.267 103.249 404.917 109.423 410.113 114.796Z" fill="#F5F5F5"/>
<path opacity="0.2" d="M418.403 89.7218C418.667 90.9034 418.862 92.0995 418.987 93.3038C422.27 92.7068 426.666 89.2333 427.128 85.9091C427.284 84.7944 427.316 83.6659 427.223 82.5442L418.403 89.7218Z" fill="black"/>
<path d="M407.725 54.2137C404.577 58.0806 404.876 72.0695 411.538 72.2323C418.2 72.3951 413.451 47.1582 407.725 54.2137Z" fill="#263238"/>
<path d="M436.422 64.3899C435.757 74.9867 435.893 81.2145 430.547 86.6961C422.515 94.932 409.489 90.1967 406.979 79.6542C404.74 70.1564 406.206 54.4309 416.558 50.1297C418.819 49.1623 421.291 48.7948 423.735 49.0626C426.18 49.3305 428.514 50.2247 430.511 51.6587C432.509 53.0927 434.102 55.0181 435.138 57.2484C436.173 59.4787 436.616 61.9386 436.422 64.3899Z" fill="#FFC3BD"/>
<path d="M431.212 55.5706C424.55 62.1783 433.206 67.0221 429.855 70.577C436.137 73.8605 433.831 76.2757 433.831 76.2757C433.18 78.0823 433.18 80.0592 433.831 81.8658C440.913 80.0476 454.061 56.5203 439.706 52.9112C431.117 56.7374 431.212 55.5706 431.212 55.5706Z" fill="#263238"/>
<path d="M433.939 60.3195C427.63 61.2964 419.692 58.2842 414.767 55.7334C409.842 53.1826 409.123 57.9993 410.941 59.4647C407.78 59.5732 403.777 57.0766 404.767 51.5001C405.676 46.412 412.338 41.5953 421.823 45.8964C428.539 48.9357 436.816 44.9331 440.045 48.4473C443.274 51.9614 438.145 59.6546 433.939 60.3195Z" fill="#263238"/>
<path d="M438.254 53.4132C442.487 52.8569 442.663 50.184 441.483 45.5029C446.056 52.0021 444.197 53.9967 441.483 55.5706C438.457 54.5529 438.254 53.4132 438.254 53.4132Z" fill="#263238"/>
<path d="M439.271 72.5173C438.333 74.5901 436.695 76.2665 434.645 77.2526C432.026 78.433 430.696 76.0179 431.402 73.1821C432.04 70.6177 434.115 66.9272 436.829 66.9543C439.543 66.9814 440.452 69.8986 439.271 72.5173Z" fill="#FFC3BD"/>
<path d="M419.882 67.592C419.882 68.4468 419.421 69.1524 418.865 69.1659C418.308 69.1795 417.901 68.474 417.901 67.592C417.901 66.7101 418.363 66.0317 418.919 66.0317C419.475 66.0317 419.882 66.7237 419.882 67.592Z" fill="#263238"/>
<path d="M410.168 67.6734C410.168 68.5418 409.706 69.2338 409.136 69.2473C408.567 69.2609 408.119 68.5553 408.132 67.687C408.146 66.8186 408.58 66.1266 409.15 66.1266C409.72 66.1266 410.168 66.8186 410.168 67.6734Z" fill="#263238"/>
<path d="M413.831 67.9719C412.816 70.6145 411.447 73.1068 409.76 75.3802C410.345 75.7907 411.011 76.07 411.714 76.1988C412.417 76.3276 413.139 76.3029 413.831 76.1264V67.9719Z" fill="#ED847E"/>
<path d="M417.25 78.4466C418.235 78.3363 419.186 78.0224 420.044 77.5249C420.901 77.0274 421.645 76.3571 422.23 75.5565C422.266 75.5008 422.278 75.433 422.264 75.3681C422.25 75.3032 422.211 75.2465 422.155 75.2105C422.099 75.1746 422.032 75.1622 421.967 75.1762C421.902 75.1902 421.845 75.2294 421.809 75.2852C421.156 76.1383 420.313 76.8276 419.348 77.2987C418.382 77.7697 417.32 78.0094 416.246 77.9988C416.213 77.9988 416.18 78.0055 416.149 78.0186C416.119 78.0317 416.091 78.0509 416.068 78.0751C416.046 78.0992 416.028 78.1278 416.016 78.159C416.005 78.1902 416 78.2234 416.002 78.2566C416.002 78.2899 416.009 78.3228 416.022 78.3533C416.035 78.3839 416.054 78.4114 416.078 78.4343C416.102 78.4572 416.131 78.4749 416.162 78.4863C416.193 78.4977 416.227 78.5027 416.26 78.5008C416.612 78.4466 416.938 78.4466 417.25 78.4466Z" fill="#263238"/>
<path d="M424.591 64.1593C424.676 64.1545 424.757 64.121 424.821 64.0643C424.876 64.0255 424.921 63.976 424.956 63.9189C424.99 63.8617 425.012 63.7981 425.021 63.732C425.03 63.6659 425.025 63.5987 425.007 63.5345C424.989 63.4703 424.958 63.4105 424.916 63.3587C424.45 62.7162 423.838 62.194 423.13 61.8354C422.422 61.4767 421.639 61.2919 420.846 61.2964C420.78 61.3014 420.716 61.3196 420.658 61.3499C420.6 61.3801 420.548 61.4219 420.506 61.4725C420.465 61.5232 420.434 61.5818 420.415 61.6448C420.396 61.7077 420.39 61.7738 420.398 61.8391C420.412 61.9746 420.477 62.0997 420.581 62.1881C420.684 62.2766 420.818 62.3217 420.954 62.314C421.584 62.3081 422.206 62.4557 422.767 62.7441C423.327 63.0325 423.809 63.453 424.17 63.9693C424.22 64.0323 424.284 64.0824 424.357 64.1155C424.43 64.1485 424.51 64.1635 424.591 64.1593Z" fill="#263238"/>
<path d="M406.233 64.5799C406.313 64.5688 406.39 64.5383 406.456 64.4911C406.522 64.4438 406.576 64.3812 406.613 64.3085C406.872 63.7214 407.267 63.2038 407.764 62.7983C408.262 62.3927 408.848 62.1105 409.476 61.9748C409.542 61.9686 409.607 61.9484 409.665 61.9155C409.723 61.8826 409.774 61.8378 409.813 61.784C409.853 61.7302 409.881 61.6686 409.895 61.6033C409.91 61.538 409.91 61.4704 409.896 61.4049C409.873 61.2743 409.801 61.1572 409.696 61.0767C409.59 60.9963 409.458 60.9585 409.326 60.9708C408.535 61.1268 407.793 61.4692 407.16 61.9694C406.528 62.4696 406.024 63.1133 405.69 63.8472C405.633 63.9681 405.625 64.1065 405.668 64.233C405.711 64.3596 405.802 64.4645 405.921 64.5256C406.018 64.5709 406.126 64.5896 406.233 64.5799Z" fill="#263238"/>
<path d="M455.567 111.282C457.222 114.769 458.606 118.066 459.963 121.458C461.32 124.85 462.527 128.31 463.735 131.77C466.104 138.821 468.017 146.018 469.461 153.316C469.773 155.202 470.126 157.047 470.356 158.988L470.533 160.426L470.628 161.145V161.511V162.013C470.763 163.417 470.763 164.83 470.628 166.233C470.314 169.304 469.257 172.252 467.548 174.822C465.946 177.176 463.842 179.145 461.388 180.588C459.343 181.789 457.142 182.702 454.848 183.302C452.805 183.861 450.716 184.234 448.606 184.414C444.628 184.791 440.616 184.631 436.68 183.94C435.612 183.76 434.64 183.216 433.93 182.399C433.219 181.582 432.815 180.543 432.786 179.461C432.757 178.379 433.106 177.32 433.771 176.466C434.437 175.613 435.379 175.017 436.436 174.781L436.924 174.672C438.281 174.36 440.058 173.98 441.578 173.573C443.098 173.166 444.644 172.692 446.083 172.217C448.594 171.412 450.922 170.121 452.935 168.418C453.467 167.924 453.872 167.31 454.115 166.627C454.211 166.147 454.211 165.654 454.115 165.175C454.069 164.809 454.001 164.447 453.912 164.089L453.423 161.878C453.111 160.331 452.663 158.73 452.256 157.156C451.415 153.967 450.465 150.779 449.38 147.577C448.294 144.375 447.182 141.186 446.001 137.998C444.821 134.809 443.573 131.62 442.311 128.5C441.049 125.379 439.719 122.096 438.457 119.124V118.988C437.443 116.725 437.368 114.151 438.251 111.833C439.134 109.515 440.902 107.643 443.165 106.628C445.429 105.613 448.003 105.539 450.321 106.422C452.639 107.305 454.511 109.073 455.526 111.336L455.567 111.282Z" fill="#263238"/>
<path d="M432.392 178.689L426.409 181.565L436.748 185.242C436.748 185.242 443.64 183.044 440.303 179.218L438.444 178.634C435.459 177.657 433.993 177.766 432.392 178.689Z" fill="#FFC3BD"/>
<path d="M427.209 188.865L431.755 189.733C432.404 189.853 433.075 189.766 433.673 189.487C434.271 189.207 434.767 188.748 435.092 188.173L436.748 185.201L426.409 181.565L425.052 184.401C424.841 184.83 424.731 185.301 424.729 185.779C424.728 186.256 424.835 186.728 425.043 187.158C425.251 187.589 425.554 187.966 425.929 188.261C426.305 188.557 426.742 188.763 427.209 188.865Z" fill="#FFC3BD"/>
<path d="M214.036 99.7662V129.842C214.044 130.869 213.849 131.887 213.462 132.838C213.076 133.789 212.505 134.655 211.783 135.385C211.061 136.115 210.201 136.695 209.254 137.092C208.308 137.489 207.291 137.695 206.265 137.698H178.39C169.969 140.609 175.238 152.266 175.419 152.688C173.815 152.139 172.315 151.325 170.98 150.281C164.965 145.469 165.807 137.71 165.807 137.71H129.271C127.2 137.71 125.214 136.887 123.75 135.423C122.286 133.959 121.463 131.973 121.463 129.902V99.8263C121.463 97.7556 122.286 95.7697 123.75 94.3055C125.214 92.8413 127.2 92.0187 129.271 92.0187H206.265C208.32 92.025 210.289 92.8425 211.745 94.2934C213.2 95.7443 214.024 97.7112 214.036 99.7662Z" fill="#407BFF"/>
<path opacity="0.2" d="M210.487 99.7661V129.842C210.495 130.874 210.298 131.897 209.908 132.852C209.517 133.807 208.941 134.675 208.213 135.406C207.484 136.137 206.618 136.716 205.664 137.109C204.71 137.502 203.687 137.703 202.655 137.698H174.841C168.682 139.815 169.837 146.6 170.98 150.269C164.965 145.457 165.807 137.698 165.807 137.698H125.77C124.745 137.698 123.73 137.496 122.784 137.103C121.837 136.711 120.977 136.135 120.253 135.41C119.529 134.685 118.955 133.824 118.564 132.877C118.173 131.93 117.973 130.915 117.974 129.89V99.8143C117.973 98.7895 118.173 97.7745 118.564 96.8273C118.955 95.8801 119.529 95.0193 120.253 94.2942C120.977 93.569 121.837 92.9937 122.784 92.6012C123.73 92.2086 124.745 92.0066 125.77 92.0066H202.655C203.679 92.0018 204.694 92.1988 205.642 92.5862C206.589 92.9736 207.451 93.5438 208.178 94.2643C208.906 94.9849 209.484 95.8416 209.88 96.7856C210.276 97.7296 210.482 98.7424 210.487 99.7661Z" fill="white"/>
<path d="M155.208 118C154.941 118 154.714 117.92 154.528 117.76C154.368 117.573 154.288 117.347 154.288 117.08V114.2C154.288 113.933 154.368 113.72 154.528 113.56C154.714 113.373 154.941 113.28 155.208 113.28H158.088C158.354 113.28 158.581 113.373 158.768 113.56C158.954 113.72 159.048 113.933 159.048 114.2V117.08C159.048 117.347 158.954 117.573 158.768 117.76C158.581 117.92 158.354 118 158.088 118H155.208ZM165.286 118C165.019 118 164.793 117.92 164.606 117.76C164.446 117.573 164.366 117.347 164.366 117.08V114.2C164.366 113.933 164.446 113.72 164.606 113.56C164.793 113.373 165.019 113.28 165.286 113.28H168.166C168.433 113.28 168.659 113.373 168.846 113.56C169.033 113.72 169.126 113.933 169.126 114.2V117.08C169.126 117.347 169.033 117.573 168.846 117.76C168.659 117.92 168.433 118 168.166 118H165.286ZM175.364 118C175.097 118 174.871 117.92 174.684 117.76C174.524 117.573 174.444 117.347 174.444 117.08V114.2C174.444 113.933 174.524 113.72 174.684 113.56C174.871 113.373 175.097 113.28 175.364 113.28H178.244C178.511 113.28 178.737 113.373 178.924 113.56C179.111 113.72 179.204 113.933 179.204 114.2V117.08C179.204 117.347 179.111 117.573 178.924 117.76C178.737 117.92 178.511 118 178.244 118H175.364Z" fill="#263238"/>
<path d="M426.491 8.06472V38.1405C426.499 39.1673 426.304 40.1855 425.917 41.1367C425.53 42.0879 424.959 42.9533 424.237 43.6833C423.515 44.4132 422.656 44.9933 421.709 45.3903C420.762 45.7872 419.746 45.9932 418.719 45.9963H390.845C382.424 48.9076 387.693 60.565 387.873 60.9861C386.27 60.4371 384.769 59.6238 383.434 58.58C377.419 53.7679 378.261 46.0083 378.261 46.0083H341.725C339.654 46.0083 337.668 45.1858 336.204 43.7215C334.74 42.2573 333.917 40.2714 333.917 38.2007V8.12488C333.917 6.05416 334.74 4.06824 336.204 2.60402C337.668 1.13979 339.654 0.3172 341.725 0.3172H418.719C420.774 0.323503 422.743 1.14103 424.199 2.59192C425.654 4.04281 426.478 6.0097 426.491 8.06472Z" fill="white"/>
<path opacity="0.2" d="M422.942 8.06469V38.1405C422.95 39.1723 422.753 40.1955 422.362 41.1506C421.972 42.1057 421.395 42.9739 420.667 43.7046C419.938 44.4354 419.072 45.0142 418.118 45.4076C417.164 45.801 416.142 46.0011 415.11 45.9963H387.296C381.136 48.1136 382.291 54.8987 383.434 58.568C377.419 53.7558 378.261 45.9963 378.261 45.9963H338.224C337.199 45.9963 336.185 45.7942 335.238 45.4017C334.291 45.0092 333.432 44.4339 332.708 43.7087C331.983 42.9836 331.409 42.1228 331.018 41.1756C330.627 40.2284 330.427 39.2134 330.428 38.1886V8.11282C330.427 7.08807 330.627 6.07305 331.018 5.12585C331.409 4.17865 331.983 3.31786 332.708 2.59269C333.432 1.86752 334.291 1.29222 335.238 0.899696C336.185 0.507176 337.199 0.305136 338.224 0.305138H415.11C416.134 0.300387 417.148 0.497332 418.096 0.884717C419.044 1.2721 419.906 1.84233 420.633 2.56288C421.36 3.28342 421.938 4.14016 422.334 5.08417C422.731 6.02817 422.937 7.04095 422.942 8.06469Z" fill="#407BFF"/>
<path d="M376.595 30.44C376.355 30.44 376.155 30.36 375.995 30.2C375.835 30.04 375.755 29.84 375.755 29.6V28C375.808 26.5867 376.168 25.3733 376.835 24.36C377.502 23.3467 378.475 22.1867 379.755 20.88C380.795 19.8133 381.555 18.9333 382.035 18.24C382.515 17.5467 382.755 16.7867 382.755 15.96C382.755 14.7333 382.235 13.76 381.195 13.04C380.182 12.32 378.995 11.96 377.635 11.96C374.462 11.96 372.595 13.56 372.035 16.76C371.902 17.3467 371.555 17.64 370.995 17.64H369.075C368.808 17.64 368.595 17.56 368.435 17.4C368.275 17.24 368.195 17.0267 368.195 16.76C368.248 15.2933 368.662 13.9467 369.435 12.72C370.235 11.4667 371.355 10.4667 372.795 9.72C374.235 8.97333 375.888 8.6 377.755 8.6C379.728 8.6 381.382 8.94667 382.715 9.64C384.075 10.3067 385.075 11.1867 385.715 12.28C386.355 13.3467 386.675 14.4933 386.675 15.72C386.675 17.08 386.368 18.2533 385.755 19.24C385.142 20.2267 384.222 21.3733 382.995 22.68C381.982 23.7467 381.222 24.6533 380.715 25.4C380.208 26.12 379.915 26.9333 379.835 27.84C379.782 28.5867 379.755 29.1467 379.755 29.52C379.622 30.1333 379.288 30.44 378.755 30.44H376.595ZM376.275 37C376.008 37 375.782 36.92 375.595 36.76C375.435 36.5733 375.355 36.3467 375.355 36.08V33.64C375.355 33.3733 375.435 33.16 375.595 33C375.782 32.8133 376.008 32.72 376.275 32.72H378.875C379.142 32.72 379.368 32.8133 379.555 33C379.742 33.16 379.835 33.3733 379.835 33.64V36.08C379.835 36.3467 379.742 36.5733 379.555 36.76C379.368 36.92 379.142 37 378.875 37H376.275Z" fill="#263238"/>
</svg>
