<svg width="222" height="166" viewBox="0 0 222 166" fill="none" xmlns="http://www.w3.org/2000/svg">
<path d="M222 145.366H0V145.477H222V145.366Z" fill="#EBEBEB"/>
<path d="M39.7387 148.389H23.293V148.5H39.7387V148.389Z" fill="#EBEBEB"/>
<path d="M106.559 150.791H75.0352V150.902H106.559V150.791Z" fill="#EBEBEB"/>
<path d="M64.6775 148.443H42.1445V148.554H64.6775V148.443Z" fill="#EBEBEB"/>
<path d="M202.22 151.764H180.61V151.875H202.22V151.764Z" fill="#EBEBEB"/>
<path d="M178.634 151.764H164.439V151.875H178.634V151.764Z" fill="#EBEBEB"/>
<path d="M150.613 149.89H123.08V150.001H150.613V149.89Z" fill="#EBEBEB"/>
<path d="M105.229 125.563H19.4966C18.825 125.562 18.1813 125.294 17.7068 124.819C17.2323 124.344 16.9658 123.7 16.9658 123.028V2.51304C16.9717 1.84528 17.2407 1.20678 17.7146 0.736249C18.1885 0.265715 18.8288 0.00114392 19.4966 0H105.229C105.901 0 106.546 0.267105 107.021 0.742555C107.497 1.218 107.764 1.86285 107.764 2.53524V123.028C107.764 123.7 107.497 124.345 107.021 124.821C106.546 125.296 105.901 125.563 105.229 125.563ZM19.4966 0.0888003C18.8544 0.0899765 18.239 0.345905 17.7853 0.800411C17.3316 1.25492 17.0768 1.87086 17.0768 2.51304V123.028C17.0768 123.67 17.3316 124.286 17.7853 124.741C18.239 125.195 18.8544 125.451 19.4966 125.452H105.229C105.871 125.451 106.487 125.195 106.941 124.741C107.396 124.286 107.652 123.671 107.653 123.028V2.51304C107.652 1.87045 107.396 1.25452 106.941 0.80014C106.487 0.345761 105.871 0.089974 105.229 0.0888003H19.4966Z" fill="#EBEBEB"/>
<path d="M201.27 125.563H115.533C114.861 125.562 114.217 125.295 113.742 124.819C113.267 124.344 112.999 123.7 112.998 123.028V2.51304C113.005 1.84487 113.275 1.20638 113.75 0.735971C114.224 0.26556 114.865 0.00113144 115.533 0H201.27C201.937 0.0023108 202.576 0.267399 203.049 0.737807C203.522 1.20822 203.79 1.84604 203.796 2.51304V123.028C203.796 123.699 203.53 124.342 203.057 124.818C202.583 125.293 201.941 125.561 201.27 125.563ZM115.533 0.0888003C114.891 0.089974 114.275 0.345761 113.82 0.80014C113.366 1.25452 113.11 1.87045 113.109 2.51304V123.028C113.11 123.671 113.366 124.286 113.82 124.741C114.275 125.195 114.891 125.451 115.533 125.452H201.27C201.912 125.451 202.528 125.195 202.983 124.741C203.437 124.286 203.693 123.671 203.694 123.028V2.51304C203.693 1.87045 203.437 1.25452 202.983 0.80014C202.528 0.345761 201.912 0.089974 201.27 0.0888003H115.533Z" fill="#EBEBEB"/>
<path d="M193.415 143.998H158.783C157.167 143.998 155.618 143.356 154.476 142.214C153.333 141.071 152.691 139.522 152.691 137.906V106.791C152.691 105.175 153.333 103.626 154.476 102.483C155.618 101.341 157.167 100.699 158.783 100.699H193.415V143.998Z" fill="#F0F0F0"/>
<path d="M193.131 143.998H193.704C197.069 143.998 199.796 141.271 199.796 137.906V106.791C199.796 103.426 197.069 100.699 193.704 100.699H193.131C189.767 100.699 187.04 103.426 187.04 106.791V137.906C187.04 141.271 189.767 143.998 193.131 143.998Z" fill="#F5F5F5"/>
<path d="M188.775 116.67H112.887V143.998H188.775V116.67Z" fill="#F0F0F0"/>
<path d="M192.492 145.365H80.3282C80.164 145.366 80.0013 145.334 79.8494 145.272C79.6975 145.209 79.5595 145.117 79.4432 145.002C79.3268 144.886 79.2345 144.748 79.1716 144.596C79.1086 144.445 79.0762 144.282 79.0762 144.118V143.998H158.756L193.739 144.118C193.739 144.449 193.608 144.766 193.374 145C193.14 145.234 192.822 145.365 192.492 145.365Z" fill="#E0E0E0"/>
<path d="M87.5743 82.7348H160.319C162.572 82.7348 164.732 83.6297 166.325 85.2226C167.918 86.8154 168.813 88.9759 168.813 91.2285V122.846H79.0762V91.2285C79.0762 88.9759 79.971 86.8154 81.5639 85.2226C83.1568 83.6297 85.3172 82.7348 87.5699 82.7348H87.5743Z" fill="#E0E0E0"/>
<path d="M93.3997 82.7348H166.944C169.088 82.7348 171.145 83.5866 172.661 85.1029C174.177 86.6192 175.029 88.6757 175.029 90.82V122.85H85.3145V90.82C85.3145 88.6757 86.1663 86.6192 87.6826 85.1029C89.1988 83.5866 91.2554 82.7348 93.3997 82.7348Z" fill="#F5F5F5"/>
<path d="M185.148 114.175H118.663C117.646 114.175 116.67 114.579 115.951 115.298C115.231 116.018 114.827 116.993 114.827 118.011V121.47C114.827 122.487 115.231 123.463 115.951 124.182C116.67 124.902 117.646 125.306 118.663 125.306H185.148C185.879 125.306 186.603 125.162 187.278 124.882C187.953 124.602 188.567 124.192 189.083 123.675C189.6 123.158 190.01 122.544 190.289 121.868C190.568 121.193 190.712 120.469 190.711 119.738C190.711 118.262 190.125 116.847 189.082 115.804C188.038 114.761 186.623 114.175 185.148 114.175Z" fill="#E0E0E0"/>
<path d="M112.691 143.998H78.0594C76.4438 143.998 74.8943 143.356 73.7519 142.214C72.6095 141.071 71.9677 139.522 71.9677 137.906V106.791C71.9677 105.175 72.6095 103.626 73.7519 102.483C74.8943 101.341 76.4438 100.699 78.0594 100.699H112.691V143.998Z" fill="#F0F0F0"/>
<path d="M112.404 143.998H112.977C116.341 143.998 119.068 141.271 119.068 137.906V106.791C119.068 103.426 116.341 100.699 112.977 100.699H112.404C109.04 100.699 106.312 103.426 106.312 106.791V137.906C106.312 141.271 109.04 143.998 112.404 143.998Z" fill="#F5F5F5"/>
<path d="M178.071 16.659H146.711V62.7728H178.071V16.659Z" fill="#E0E0E0"/>
<path d="M179.958 16.659H147.568V62.7728H179.958V16.659Z" fill="#F5F5F5"/>
<path d="M150.281 20.2909V59.1365H177.245V20.2909H150.281Z" fill="white"/>
<path d="M160.408 41.5895V44.5466C161.289 44.5466 162.162 44.373 162.976 44.0359C163.79 43.6987 164.529 43.2046 165.152 42.5816C165.775 41.9586 166.269 41.219 166.606 40.4051C166.944 39.5911 167.117 38.7187 167.117 37.8377V34.8807C166.236 34.8801 165.363 35.0532 164.549 35.3902C163.735 35.7271 162.995 36.2213 162.372 36.8443C161.749 37.4674 161.255 38.2072 160.918 39.0215C160.581 39.8357 160.408 40.7083 160.408 41.5895Z" fill="#F5F5F5"/>
<path d="M160.408 31.6173V34.5744C162.187 34.5732 163.893 33.866 165.151 32.6081C166.409 31.3502 167.116 29.6445 167.117 27.8655V24.9041C166.236 24.9041 165.363 25.0777 164.549 25.4152C163.734 25.7526 162.995 26.2472 162.372 26.8706C161.749 27.494 161.254 28.2341 160.918 29.0486C160.581 29.8631 160.408 30.7359 160.408 31.6173Z" fill="#F5F5F5"/>
<path d="M160.408 51.5662V54.5233C162.188 54.5221 163.894 53.8143 165.152 52.5554C166.41 51.2966 167.117 49.5897 167.117 47.81V44.8441C166.235 44.8441 165.361 45.018 164.547 45.356C163.732 45.694 162.992 46.1894 162.368 46.8137C161.745 47.4381 161.251 48.1793 160.915 48.9948C160.579 49.8103 160.406 50.6841 160.408 51.5662Z" fill="#F5F5F5"/>
<path d="M131.496 52.827V20.2907L29.0831 20.2907V52.827L131.496 52.827Z" fill="#EBEBEB"/>
<path d="M29.083 52.827L29.083 20.2907H28.4658L28.4658 52.827H29.083Z" fill="#E0E0E0"/>
<path d="M126.446 25.339H34.1299V47.7787H126.446V25.339Z" fill="#F5F5F5"/>
<path d="M56.2558 47.7787H48.5879L54.5908 25.339H62.2586L56.2558 47.7787Z" fill="white"/>
<path d="M63.3848 47.7787H58.9492L64.9521 25.339H69.3877L63.3848 47.7787Z" fill="white"/>
<path d="M101.982 47.7787H97.5469L103.55 25.339H107.985L101.982 47.7787Z" fill="white"/>
<path d="M68.962 108.154H44.1379L41.0654 74.4276H65.8939L68.962 108.154Z" fill="#E6E6E6"/>
<path d="M70.2491 108.154H45.4206L42.3525 74.4276H67.181L70.2491 108.154Z" fill="#F0F0F0"/>
<path d="M48.8126 104.42L46.4238 78.1618H63.7842L66.1729 104.42H48.8126Z" fill="white"/>
<path d="M87.5709 108.154H84.2275V145.361H87.5709V108.154Z" fill="#E6E6E6"/>
<path d="M88.6229 108.154H86.3008V145.361H88.6229V108.154Z" fill="#F5F5F5"/>
<path d="M54.0616 112.261H89.3418V108.154H54.0616V112.261Z" fill="#F5F5F5"/>
<path d="M52.565 112.261H49.2217V145.366H52.565V112.261Z" fill="#E6E6E6"/>
<path d="M53.6219 112.261H51.2998V145.366H53.6219V112.261Z" fill="#F5F5F5"/>
<path d="M31.4136 112.261H28.0703V145.366H31.4136V112.261Z" fill="#E6E6E6"/>
<path d="M32.4696 112.261H30.1475V145.366H32.4696V112.261Z" fill="#F5F5F5"/>
<path d="M66.4185 112.261H63.0752V145.366H66.4185V112.261Z" fill="#E6E6E6"/>
<path d="M67.4706 112.261H65.1484V145.366H67.4706V112.261Z" fill="#F5F5F5"/>
<path d="M54.0621 108.154H28.0703V112.261H54.0621V108.154Z" fill="#E6E6E6"/>
<path d="M111 165.416C158.545 165.416 197.087 163.166 197.087 160.39C197.087 157.614 158.545 155.364 111 155.364C63.4556 155.364 24.9131 157.614 24.9131 160.39C24.9131 163.166 63.4556 165.416 111 165.416Z" fill="#F5F5F5"/>
<path d="M145.792 35.9641C144.096 34.9029 139.225 35.9641 140.02 41.2921C140.815 46.6201 134.554 45.257 135.922 51.4552C137.289 57.6535 148.385 66.862 155.218 60.6105C162.051 54.359 156.292 51.6017 156.421 44.1825C156.51 39.7736 154.512 31.8793 145.792 35.9641Z" fill="#263238"/>
<path d="M155.842 60.344C155.811 60.3438 155.78 60.331 155.758 60.3085C155.747 60.2981 155.739 60.2857 155.733 60.272C155.727 60.2583 155.724 60.2435 155.724 60.2286C155.724 60.2137 155.727 60.1989 155.733 60.1852C155.739 60.1714 155.747 60.159 155.758 60.1487C159.967 55.9662 158.995 53.4176 157.765 50.1942C157.081 48.4182 156.313 46.3935 156.246 43.7695C156.18 40.9368 155.145 37.0695 152.45 35.4756C150.541 34.3478 148.09 34.5432 145.169 36.0572C145.142 36.0699 145.111 36.0719 145.083 36.0628C145.055 36.0538 145.032 36.0343 145.018 36.0084C145.01 35.9951 145.005 35.9804 145.004 35.9652C145.002 35.95 145.003 35.9346 145.008 35.92C145.013 35.9054 145.02 35.8919 145.03 35.8804C145.04 35.8689 145.053 35.8595 145.066 35.853C148.063 34.299 150.585 34.1081 152.57 35.2802C155.341 36.923 156.406 40.8746 156.477 43.7606C156.539 46.3491 157.303 48.3471 157.978 50.1098C159.234 53.4132 160.233 56.0239 155.918 60.3218C155.896 60.3375 155.869 60.3453 155.842 60.344Z" fill="#263238"/>
<path d="M156.829 59.7358C156.829 59.7358 156.9 59.8379 156.949 59.9045L157.126 60.1443C157.257 60.31 157.394 60.4743 157.539 60.6371C157.837 60.9724 158.154 61.2897 158.489 61.5873C159.177 62.2169 159.92 62.783 160.709 63.2789C161.511 63.7891 162.344 64.2474 163.205 64.6509C163.649 64.8684 164.093 65.0416 164.537 65.2369C164.621 65.2769 164.537 65.2369 164.479 65.2725C164.421 65.308 164.372 65.3391 164.421 65.3124C164.639 65.127 164.812 64.8947 164.927 64.6331C165.124 64.2417 165.291 63.8366 165.429 63.421C165.727 62.4937 165.969 61.5492 166.153 60.5927C166.353 59.6159 166.508 58.6169 166.646 57.609C166.783 56.6011 166.908 55.5799 167.019 54.5809H168.826C168.974 56.7043 168.957 58.8359 168.777 60.9568C168.694 62.0559 168.526 63.1469 168.275 64.2202C168.14 64.8031 167.956 65.3735 167.725 65.9251C167.444 66.6277 167.01 67.2587 166.455 67.7722C166.046 68.1305 165.547 68.3713 165.012 68.4693C164.482 68.5581 163.938 68.5107 163.431 68.3316C162.912 68.1451 162.383 67.9897 161.868 67.7766C160.823 67.3684 159.81 66.88 158.84 66.3159C157.855 65.7302 156.923 65.0586 156.056 64.309C155.617 63.919 155.202 63.5023 154.813 63.0613C154.613 62.8393 154.418 62.6173 154.231 62.3598L153.956 61.9691C153.859 61.8226 153.792 61.7205 153.654 61.4807L156.829 59.7358Z" fill="#FFC3BD"/>
<path d="M156.221 58.093C160.372 60.757 160.035 62.3731 160.035 62.3731L157.424 66.156C157.424 66.156 150.764 63.492 150.351 61.4008C149.916 59.2207 154.205 56.8054 156.221 58.093Z" fill="#263238"/>
<path opacity="0.1" d="M156.221 58.093C160.372 60.757 160.035 62.3731 160.035 62.3731L157.424 66.156C157.424 66.156 150.764 63.492 150.351 61.4008C149.916 59.2207 154.205 56.8054 156.221 58.093Z" fill="white"/>
<path d="M160.284 62.0002C160.361 62.0548 160.414 62.1376 160.43 62.2306C160.447 62.3237 160.426 62.4196 160.373 62.4975L157.709 66.3203C157.682 66.3595 157.648 66.393 157.609 66.4188C157.57 66.4446 157.525 66.4621 157.479 66.4704C157.432 66.4787 157.385 66.4776 157.339 66.467C157.293 66.4565 157.249 66.4368 157.211 66.4091C157.173 66.3821 157.14 66.3478 157.115 66.3082C157.09 66.2685 157.073 66.2243 157.066 66.1781C157.058 66.1318 157.059 66.0845 157.07 66.0388C157.08 65.9931 157.1 65.95 157.127 65.9118L159.791 62.089C159.845 62.013 159.927 61.9613 160.019 61.9447C160.111 61.9282 160.206 61.948 160.284 62.0002Z" fill="#448FF2"/>
<path d="M167.313 55.4512L165.253 52.6984L169.205 51.6816C169.205 51.6816 170.008 54.1325 168.694 55.9307L167.313 55.4512Z" fill="#FFC3BD"/>
<path d="M165.364 49.3152L168.654 48.7602L169.205 51.6817L165.253 52.6985L165.364 49.3152Z" fill="#FFC3BD"/>
<path d="M131.886 156.554L135.651 156.918L138.341 148.065L134.576 147.701L131.886 156.554Z" fill="#FFC3BD"/>
<path d="M107.931 143.47L110.723 146.089L116.753 139.465L113.96 136.845L107.931 143.47Z" fill="#FFC3BD"/>
<path d="M112.016 144.833L109.916 141.054C109.882 140.988 109.824 140.937 109.755 140.911C109.685 140.885 109.608 140.885 109.539 140.912L106.307 142.142C106.224 142.176 106.15 142.227 106.089 142.291C106.028 142.356 105.982 142.434 105.954 142.518C105.926 142.602 105.916 142.692 105.925 142.78C105.935 142.869 105.964 142.954 106.009 143.03C106.764 144.336 107.195 144.931 108.114 146.582C108.682 147.603 109.788 149.952 110.573 151.364C111.359 152.776 112.793 152.079 112.598 151.417C111.71 148.465 111.87 146.822 112.123 145.521C112.169 145.286 112.131 145.043 112.016 144.833Z" fill="#263238"/>
<path d="M136.098 155.769H131.53C131.448 155.77 131.369 155.798 131.305 155.847C131.24 155.897 131.193 155.966 131.17 156.044L130.176 159.658C130.152 159.744 130.149 159.833 130.166 159.92C130.183 160.007 130.221 160.089 130.275 160.159C130.329 160.23 130.399 160.286 130.479 160.325C130.559 160.363 130.646 160.383 130.735 160.382C132.342 160.382 133.106 160.382 135.113 160.382H141.253C142.923 160.382 143.269 158.695 142.585 158.544C139.477 157.86 137.701 156.914 136.747 156.013C136.571 155.85 136.338 155.762 136.098 155.769Z" fill="#263238"/>
<path opacity="0.2" d="M138.341 148.07L136.956 152.63H133.075L134.576 147.706L138.341 148.07Z" fill="black"/>
<path opacity="0.2" d="M113.962 136.845L116.754 139.469L113.646 142.884L110.854 140.26L113.962 136.845Z" fill="black"/>
<path d="M156.221 58.093C156.221 58.093 157.731 59.1186 148.163 79.9067L133.098 75.7376C135.047 69.6725 136.104 65.8941 136.65 52.4986C138.88 52.6466 141.097 52.9567 143.283 53.4266C145.604 53.8953 147.889 54.5289 150.121 55.3224C152.201 56.1397 154.237 57.0645 156.221 58.093Z" fill="#263238"/>
<path opacity="0.1" d="M156.221 58.093C156.221 58.093 157.731 59.1186 148.163 79.9067L133.098 75.7376C135.047 69.6725 136.104 65.8941 136.65 52.4986C138.88 52.6466 141.097 52.9567 143.283 53.4266C145.604 53.8953 147.889 54.5289 150.121 55.3224C152.201 56.1397 154.237 57.0645 156.221 58.093Z" fill="white"/>
<path d="M146.098 45.9096C145.92 48.2317 145.232 52.3831 143.288 53.4265C143.288 53.4265 142.155 57.276 147.066 58.6924C151.226 59.8867 150.125 55.3224 150.125 55.3224C147.834 54.057 149.237 51.8148 149.681 49.3018L146.098 45.9096Z" fill="#FFC3BD"/>
<path opacity="0.2" d="M146.075 45.9141C145.933 47.7744 145.467 50.8291 144.272 52.4897C145.658 52.6273 147.824 52.2055 148.464 51.1577C148.78 50.4231 149.037 49.6644 149.232 48.8889L146.075 45.9141Z" fill="black"/>
<path d="M152.189 42.5485C152.189 46.3669 152.255 47.9875 150.448 50.0521C147.727 53.1601 143.038 52.312 141.906 48.5647C140.889 45.1947 141.076 39.5159 144.716 37.7799C145.516 37.3936 146.402 37.2183 147.289 37.2707C148.175 37.3231 149.034 37.6015 149.783 38.0794C150.532 38.5573 151.146 39.2188 151.567 40.001C151.988 40.7832 152.202 41.6602 152.189 42.5485Z" fill="#FFC3BD"/>
<path d="M144.3 40.4305C146.444 43.4275 153.659 47.5923 154.143 43.5785C154.627 39.5647 150.942 35.5865 147.292 35.9817C143.643 36.3768 142.466 37.882 144.3 40.4305Z" fill="#263238"/>
<path d="M153.77 46.114C153.609 46.4424 153.384 46.7358 153.109 46.9773C152.834 47.2188 152.514 47.4037 152.167 47.5215C151.239 47.8278 150.729 47.0109 150.946 46.1095C151.146 45.297 151.865 44.1604 152.82 44.2447C153.027 44.2661 153.226 44.3392 153.398 44.4572C153.57 44.5752 153.71 44.7345 153.804 44.9205C153.899 45.1064 153.945 45.3131 153.939 45.5216C153.933 45.7301 153.875 45.9338 153.77 46.114Z" fill="#FFC3BD"/>
<path d="M148.164 79.92C148.164 79.92 153.527 101.645 150.011 118.077C147.653 129.084 139.155 151.32 139.155 151.32L132.495 151.151C132.495 151.151 138.929 127.819 140.256 118.641C142.534 102.941 137.113 76.8652 137.113 76.8652L148.164 79.92Z" fill="#448FF2"/>
<path opacity="0.2" d="M142.182 83.0279L138.861 88.2671C139.856 94.4794 140.486 100.745 140.748 107.031C145.433 98.67 143.221 87.4679 142.182 83.0279Z" fill="black"/>
<path d="M140.344 151.653L131.886 151.444L132.454 148.434L140.961 149.073L140.344 151.653Z" fill="#263238"/>
<path d="M144.86 79.0321C144.86 79.0321 141.752 102.786 135.061 116.284C129.648 127.184 115.205 142.702 115.205 142.702L111.511 138.897C111.511 138.897 121.279 122.025 125.275 114.792C135.14 97.0319 126.398 81.1144 133.085 75.7198L144.86 79.0321Z" fill="#448FF2"/>
<path d="M115.579 143.221L110.814 138.572L112.395 136.423L117.59 141.791L115.579 143.221Z" fill="#263238"/>
<path d="M133.116 74.7873L132.064 75.9506C131.984 76.0394 132.064 76.1815 132.251 76.2303L148.053 80.6037C148.186 80.6393 148.319 80.6037 148.35 80.5238L148.861 79.1918C148.896 79.103 148.798 78.992 148.652 78.9476L133.396 74.7252C133.348 74.7103 133.297 74.7082 133.248 74.7191C133.199 74.73 133.154 74.7535 133.116 74.7873Z" fill="#448FF2"/>
<path opacity="0.5" d="M133.116 74.7873L132.064 75.9506C131.984 76.0394 132.064 76.1815 132.251 76.2303L148.053 80.6037C148.186 80.6393 148.319 80.6037 148.35 80.5238L148.861 79.1918C148.896 79.103 148.798 78.992 148.652 78.9476L133.396 74.7252C133.348 74.7103 133.297 74.7082 133.248 74.7191C133.199 74.73 133.154 74.7535 133.116 74.7873Z" fill="white"/>
<path d="M134.692 77.0605L134.284 76.9495C134.204 76.9273 134.155 76.8652 134.173 76.8163L134.847 75.1202C134.87 75.067 134.954 75.0448 135.034 75.067L135.442 75.1824C135.522 75.1824 135.576 75.2623 135.553 75.3156L134.879 77.0117C134.857 77.039 134.827 77.0586 134.793 77.0674C134.76 77.0762 134.724 77.0738 134.692 77.0605Z" fill="#448FF2"/>
<path d="M146.861 80.4305L146.453 80.3195C146.373 80.2973 146.32 80.2351 146.342 80.1863L147.017 78.4858C147.038 78.4585 147.068 78.4389 147.102 78.4301C147.136 78.4213 147.171 78.4237 147.203 78.4369L147.612 78.5524C147.692 78.5746 147.741 78.6323 147.723 78.6811L147.048 80.3639C147.026 80.4305 146.964 80.4527 146.861 80.4305Z" fill="#448FF2"/>
<path d="M140.779 78.7478L140.37 78.6324C140.286 78.6324 140.237 78.5524 140.255 78.5036L140.934 76.8031C140.934 76.7542 141.036 76.732 141.116 76.7542L141.524 76.8652C141.609 76.8652 141.658 76.9496 141.64 76.9984L140.961 78.699C140.943 78.7478 140.858 78.77 140.779 78.7478Z" fill="#448FF2"/>
<path d="M146.48 43.956C146.48 44.2668 146.347 44.5288 146.147 44.5377C145.948 44.5465 145.766 44.3112 145.743 44.0004C145.721 43.6896 145.877 43.4277 146.081 43.4143C146.285 43.401 146.463 43.6408 146.48 43.956Z" fill="#263238"/>
<path d="M142.967 44.1558C142.967 44.4666 142.833 44.7285 142.629 44.7418C142.425 44.7552 142.252 44.511 142.23 44.2002C142.207 43.8894 142.363 43.6274 142.567 43.6185C142.771 43.6096 142.967 43.8494 142.967 44.1558Z" fill="#263238"/>
<path d="M142.665 43.6273L141.91 43.4586C141.91 43.4586 142.323 44.0181 142.665 43.6273Z" fill="#263238"/>
<path d="M143.931 44.6352C143.696 45.3573 143.364 46.0443 142.945 46.6776C143.11 46.781 143.294 46.8473 143.487 46.8719C143.679 46.8964 143.875 46.8786 144.06 46.8197L143.931 44.6352Z" fill="#ED847E"/>
<path d="M145.787 47.8765C145.602 47.9243 145.413 47.9525 145.223 47.9609C145.213 47.9622 145.202 47.9613 145.193 47.9583C145.183 47.9553 145.174 47.9502 145.167 47.9435C145.159 47.9368 145.153 47.9285 145.149 47.9193C145.145 47.91 145.143 47.9 145.143 47.8899C145.142 47.8799 145.143 47.87 145.147 47.8606C145.15 47.8512 145.155 47.8426 145.162 47.8352C145.168 47.8277 145.176 47.8217 145.185 47.8174C145.194 47.813 145.204 47.8105 145.214 47.8099C145.602 47.7943 145.981 47.6881 146.321 47.5001C146.661 47.312 146.952 47.0471 147.172 46.7266C147.183 46.7126 147.199 46.7031 147.217 46.6998C147.235 46.6966 147.253 46.6998 147.269 46.709C147.284 46.7181 147.296 46.7325 147.302 46.7496C147.308 46.7667 147.307 46.7853 147.301 46.8021C146.951 47.3397 146.409 47.7239 145.787 47.8765Z" fill="#263238"/>
<path d="M147.639 41.6872C147.614 41.6937 147.587 41.6934 147.562 41.6864C147.537 41.6794 147.515 41.6659 147.497 41.6472C147.335 41.4768 147.135 41.3476 146.913 41.2703C146.692 41.1931 146.455 41.1701 146.222 41.2032C146.183 41.2102 146.143 41.2022 146.109 41.1808C146.075 41.1595 146.051 41.1263 146.04 41.0878C146.032 41.0484 146.04 41.0075 146.061 40.9735C146.083 40.9396 146.117 40.9153 146.156 40.9058C146.437 40.8606 146.725 40.8839 146.996 40.9735C147.266 41.0632 147.511 41.2166 147.71 41.4208C147.737 41.4504 147.752 41.4892 147.752 41.5296C147.752 41.5699 147.737 41.6088 147.71 41.6384C147.69 41.66 147.666 41.6767 147.639 41.6872Z" fill="#263238"/>
<path d="M141.448 42.1356C141.425 42.1497 141.398 42.1571 141.371 42.1571C141.343 42.1571 141.317 42.1497 141.293 42.1356C141.262 42.1118 141.241 42.0766 141.235 42.0376C141.229 41.9986 141.239 41.9589 141.262 41.9269C141.426 41.6939 141.643 41.5037 141.896 41.3723C142.149 41.241 142.429 41.1723 142.714 41.1721C142.734 41.1733 142.753 41.1783 142.771 41.1869C142.789 41.1956 142.805 41.2077 142.818 41.2225C142.831 41.2374 142.841 41.2547 142.848 41.2735C142.854 41.2923 142.857 41.3121 142.856 41.332C142.855 41.3518 142.85 41.3712 142.841 41.3891C142.832 41.407 142.82 41.423 142.806 41.4362C142.791 41.4494 142.773 41.4595 142.755 41.466C142.736 41.4725 142.716 41.4752 142.696 41.474C142.462 41.4778 142.232 41.5368 142.025 41.6464C141.819 41.756 141.641 41.913 141.506 42.1045C141.49 42.1191 141.47 42.1297 141.448 42.1356Z" fill="#263238"/>
<path d="M137.004 58.2216C136.618 58.8077 136.267 59.2783 135.872 59.7756C135.477 60.2729 135.091 60.7391 134.682 61.2008C133.863 62.1289 132.991 63.0095 132.071 63.8382C131.157 64.6835 130.187 65.4667 129.168 66.1825C128.666 66.5555 128.129 66.8796 127.605 67.217L126.783 67.6877L126.375 67.9186C126.224 67.9985 126.029 68.105 125.842 68.1805C125.019 68.5527 124.105 68.6732 123.214 68.5268C122.372 68.368 121.586 67.9949 120.931 67.4435C120.379 66.9822 119.892 66.4474 119.484 65.854C119.108 65.315 118.774 64.748 118.485 64.1579C117.432 61.9216 116.705 59.5456 116.327 57.1027L118.103 56.6942C118.472 57.751 118.885 58.8476 119.351 59.8733C119.787 60.8986 120.303 61.8887 120.891 62.8348C121.383 63.6909 122.034 64.4446 122.81 65.0548C123.068 65.2526 123.375 65.3768 123.698 65.4144C123.98 65.4264 124.26 65.3587 124.506 65.219C124.591 65.1753 124.674 65.1264 124.754 65.0725L125.101 64.8505L125.789 64.4065C126.233 64.078 126.677 63.7716 127.121 63.4208C127.995 62.736 128.834 62.0069 129.634 61.2364C130.446 60.4682 131.206 59.6468 131.938 58.8032C132.307 58.3814 132.666 57.9552 133.013 57.5201C133.359 57.085 133.705 56.6321 133.985 56.2325L137.004 58.2216Z" fill="#FFC3BD"/>
<path d="M118.446 58.3327L118.836 54.1902L115.111 55.7131C115.111 55.7131 115.555 57.7955 116.976 58.5414L118.446 58.3327Z" fill="#FFC3BD"/>
<path d="M117.647 51.9524L114.766 51.3264L115.112 55.7131L118.837 54.1902L117.647 51.9524Z" fill="#FFC3BD"/>
<path d="M136.653 52.4986C134.713 52.4986 130.042 59.9045 130.042 59.9045L133.341 63.3233C133.341 63.3233 139.557 59.132 139.801 56.6633C140.014 54.541 139.122 52.5208 136.653 52.4986Z" fill="#263238"/>
<path opacity="0.1" d="M136.653 52.4986C134.713 52.4986 130.042 59.9045 130.042 59.9045L133.341 63.3233C133.341 63.3233 139.557 59.132 139.801 56.6633C140.014 54.541 139.122 52.5208 136.653 52.4986Z" fill="white"/>
<path d="M133.644 63.4921C133.577 63.5585 133.487 63.5958 133.393 63.5958C133.299 63.5958 133.209 63.5585 133.142 63.4921L129.808 60.2242C129.741 60.1577 129.704 60.0674 129.704 59.9734C129.704 59.8793 129.741 59.7891 129.808 59.7225C129.875 59.6558 129.966 59.6184 130.061 59.6184C130.156 59.6184 130.247 59.6558 130.314 59.7225L133.644 62.9859C133.711 63.0533 133.748 63.1442 133.748 63.239C133.748 63.3338 133.711 63.4247 133.644 63.4921Z" fill="#448FF2"/>
<path d="M112.775 146.866C112.897 146.863 113.014 146.819 113.108 146.742C113.153 146.713 113.189 146.673 113.211 146.625C113.234 146.577 113.243 146.524 113.237 146.471C113.197 145.992 111.981 145.339 111.839 145.263C111.827 145.256 111.813 145.252 111.799 145.252C111.784 145.252 111.771 145.256 111.759 145.263C111.746 145.272 111.737 145.285 111.732 145.299C111.727 145.313 111.727 145.329 111.732 145.343C111.87 145.832 112.176 146.675 112.62 146.831C112.669 146.852 112.722 146.864 112.775 146.866ZM111.887 145.485C112.331 145.725 113.024 146.187 113.046 146.484C113.049 146.511 113.044 146.538 113.031 146.562C113.019 146.586 112.999 146.605 112.975 146.618C112.93 146.66 112.875 146.689 112.815 146.703C112.755 146.717 112.692 146.715 112.633 146.698C112.394 146.609 112.118 146.16 111.887 145.485Z" fill="#448FF2"/>
<path d="M112.94 145.676C113.133 145.691 113.324 145.643 113.486 145.539C113.54 145.495 113.576 145.433 113.589 145.365C113.602 145.297 113.591 145.226 113.558 145.166C113.534 145.102 113.496 145.044 113.447 144.997C113.398 144.95 113.338 144.915 113.273 144.895C112.754 144.713 111.786 145.241 111.746 145.263C111.735 145.271 111.725 145.28 111.718 145.292C111.711 145.303 111.707 145.317 111.706 145.33C111.706 145.343 111.709 145.356 111.715 145.368C111.722 145.379 111.731 145.389 111.742 145.397C112.115 145.578 112.525 145.674 112.94 145.676ZM113.016 145.006C113.087 145.006 113.158 145.018 113.225 145.041C113.269 145.054 113.309 145.078 113.342 145.109C113.375 145.141 113.4 145.18 113.415 145.223C113.464 145.339 113.415 145.392 113.389 145.423C113.162 145.614 112.363 145.508 111.95 145.33C112.281 145.153 112.643 145.043 113.016 145.006Z" fill="#448FF2"/>
<path d="M138.125 156.505C138.435 156.529 138.745 156.456 139.013 156.297C139.082 156.245 139.138 156.178 139.176 156.101C139.215 156.024 139.235 155.939 139.235 155.853C139.241 155.808 139.234 155.763 139.215 155.722C139.196 155.681 139.166 155.647 139.128 155.622C138.715 155.338 137.055 156.101 136.868 156.19C136.853 156.197 136.841 156.208 136.833 156.223C136.825 156.237 136.822 156.254 136.824 156.27C136.826 156.285 136.832 156.3 136.843 156.311C136.853 156.322 136.867 156.33 136.882 156.332C137.289 156.434 137.706 156.492 138.125 156.505ZM138.853 155.72C138.918 155.715 138.982 155.729 139.04 155.76C139.062 155.76 139.084 155.8 139.08 155.862C139.079 155.923 139.063 155.983 139.035 156.037C139.006 156.091 138.965 156.137 138.915 156.172C138.542 156.457 137.632 156.337 137.139 156.248C137.679 155.983 138.258 155.804 138.853 155.72Z" fill="#448FF2"/>
<path d="M136.894 156.35H136.921C137.423 156.146 138.466 155.307 138.408 154.889C138.408 154.801 138.337 154.69 138.111 154.663C137.223 154.561 136.837 156.19 136.819 156.261C136.816 156.275 136.817 156.289 136.822 156.303C136.827 156.316 136.835 156.328 136.845 156.337C136.86 156.346 136.877 156.35 136.894 156.35ZM138.031 154.805H138.084C138.24 154.805 138.248 154.88 138.253 154.903C138.288 155.169 137.542 155.848 137.001 156.133C137.121 155.755 137.458 154.805 138.031 154.805Z" fill="#448FF2"/>
<path d="M146.169 43.4232L145.414 43.2545C145.414 43.2545 145.827 43.814 146.169 43.4232Z" fill="#263238"/>
<path d="M67.7145 158.371L117.931 153.987C121.341 153.689 123.864 150.683 123.566 147.273L113.107 27.4844C112.81 24.0741 109.804 21.551 106.393 21.8488L56.1771 26.2333C52.7669 26.531 50.2438 29.5369 50.5415 32.9472L61.0006 152.735C61.2983 156.146 64.3042 158.669 67.7145 158.371Z" fill="#448FF2"/>
<path d="M54.3004 68.3269C54.7656 68.2829 55.1947 68.0574 55.4947 67.6992C55.7948 67.341 55.9416 66.8789 55.9033 66.4133L54.5224 50.6157C54.4795 50.1506 54.2551 49.7211 53.8977 49.4202C53.5404 49.1194 53.0789 48.9714 52.6132 49.0085C52.1472 49.0513 51.717 49.2764 51.4161 49.6347C51.1151 49.9931 50.9677 50.4557 51.0059 50.9221L52.3912 66.7196C52.4341 67.1848 52.6586 67.6143 53.0159 67.9151C53.3733 68.216 53.8348 68.3639 54.3004 68.3269Z" fill="#448FF2"/>
<path d="M115.633 55.8322L116.248 55.7785C116.969 55.7156 117.502 55.0804 117.439 54.3597L116.596 44.7084C116.533 43.9877 115.898 43.4545 115.177 43.5174L114.563 43.5711C113.842 43.634 113.309 44.2693 113.372 44.9899L114.214 54.6412C114.277 55.3619 114.912 55.8951 115.633 55.8322Z" fill="#263238"/>
<path d="M116.354 72.0795L116.971 72.0239C117.695 71.9588 118.228 71.3197 118.163 70.5963L117.291 60.9082C117.226 60.1848 116.587 59.6512 115.864 59.7163L115.247 59.7718C114.523 59.8369 113.99 60.4761 114.055 61.1995L114.927 70.8876C114.992 71.611 115.631 72.1446 116.354 72.0795Z" fill="#263238"/>
<path d="M68.7711 158.276L118.987 153.892C122.398 153.594 124.921 150.588 124.623 147.178L114.164 27.3894C113.866 23.9792 110.86 21.4561 107.45 21.7538L57.2338 26.1384C53.8236 26.4361 51.3004 29.442 51.5981 32.8522L62.0572 152.641C62.355 156.051 65.3609 158.574 68.7711 158.276Z" fill="#263238"/>
<path opacity="0.4" d="M63.8239 150.818L122.543 145.69C122.85 145.661 123.133 145.513 123.331 145.277C123.529 145.041 123.626 144.736 123.6 144.429L113.663 30.4982C113.635 30.1921 113.487 29.9095 113.252 29.7117C113.016 29.5139 112.713 29.4168 112.406 29.4415L53.6652 34.5741C53.5136 34.5875 53.3661 34.6306 53.2312 34.701C53.0963 34.7714 52.9765 34.8677 52.8788 34.9844C52.7811 35.1011 52.7073 35.2359 52.6617 35.3811C52.6161 35.5263 52.5995 35.679 52.6129 35.8306L62.5674 149.765C62.5802 149.917 62.623 150.065 62.6932 150.2C62.7634 150.335 62.8597 150.455 62.9765 150.553C63.0933 150.651 63.2283 150.725 63.3738 150.77C63.5192 150.816 63.6722 150.832 63.8239 150.818Z" fill="#448FF2"/>
<path opacity="0.3" d="M104.646 30.1207L97.2663 147.896L84.9941 148.971L92.3734 31.1907L104.646 30.1207Z" fill="#448FF2"/>
<path opacity="0.2" d="M88.8522 26.3409L76.3125 27.4358C76.0218 27.4612 75.8067 27.7174 75.8321 28.0081L75.8765 28.5168C75.9019 28.8075 76.1581 29.0226 76.4488 28.9972L88.9885 27.9023C89.2792 27.8769 89.4943 27.6207 89.4689 27.33L89.4245 26.8213C89.3991 26.5306 89.1429 26.3155 88.8522 26.3409Z" fill="white"/>
<path d="M77.1669 71.981H138.266C139.853 71.9857 141.374 72.6182 142.496 73.7405C143.618 74.8627 144.251 76.3835 144.255 77.9706V107.941C144.251 109.528 143.618 111.049 142.496 112.172C141.374 113.295 139.853 113.929 138.266 113.935H117.122L107.714 123.343L98.3057 113.935H77.1669C75.5786 113.93 74.0567 113.297 72.9336 112.174C71.8105 111.051 71.1775 109.529 71.1729 107.941V77.9706C71.1775 76.3827 71.8107 74.8613 72.9339 73.7389C74.0571 72.6166 75.579 71.9845 77.1669 71.981Z" fill="#448FF2"/>
<path opacity="0.3" d="M77.1669 71.981H138.266C139.853 71.9857 141.374 72.6182 142.496 73.7405C143.618 74.8627 144.251 76.3835 144.255 77.9706V107.941C144.251 109.528 143.618 111.049 142.496 112.172C141.374 113.295 139.853 113.929 138.266 113.935H117.122L107.714 123.343L98.3057 113.935H77.1669C75.5786 113.93 74.0567 113.297 72.9336 112.174C71.8105 111.051 71.1775 109.529 71.1729 107.941V77.9706C71.1775 76.3827 71.8107 74.8613 72.9339 73.7389C74.0571 72.6166 75.579 71.9845 77.1669 71.981Z" fill="white"/>
<path d="M81.0831 82.3661V103.545C81.076 104.366 81.3942 105.157 81.9683 105.744C82.5423 106.332 83.3255 106.668 84.1467 106.68H131.282C132.103 106.668 132.886 106.332 133.46 105.744C134.034 105.157 134.352 104.366 134.345 103.545V82.3661C134.345 81.965 134.27 81.5675 134.123 81.194C133.9 80.6205 133.51 80.127 133.003 79.7773C132.497 79.4275 131.897 79.2374 131.282 79.2315H84.1467C83.5317 79.2371 82.9325 79.4271 82.4267 79.777C81.9209 80.1269 81.5317 80.6205 81.3096 81.194C81.1591 81.5664 81.0821 81.9645 81.0831 82.3661Z" fill="white"/>
<path opacity="0.1" d="M81.3096 81.194L104.096 91.1174C105.238 91.616 106.47 91.8734 107.716 91.8734C108.963 91.8734 110.195 91.616 111.337 91.1174L134.123 81.194C133.9 80.6205 133.51 80.127 133.003 79.7773C132.497 79.4275 131.897 79.2374 131.282 79.2315H84.1467C83.5317 79.2371 82.9325 79.4271 82.4267 79.777C81.9209 80.1269 81.5317 80.6205 81.3096 81.194Z" fill="black"/>
<path d="M82.331 81.0847C85.889 77.5267 85.889 71.758 82.331 68.2C78.773 64.6419 73.0043 64.6419 69.4463 68.2C65.8883 71.758 65.8883 77.5267 69.4463 81.0847C73.0043 84.6427 78.773 84.6427 82.331 81.0847Z" fill="#DE5753"/>
<path d="M77.646 80.195H75.5237V72.203C74.7391 72.9327 73.8039 73.4814 72.7842 73.8103V71.8877C73.4391 71.647 74.0486 71.2972 74.5868 70.8532C75.193 70.4023 75.6557 69.7854 75.9188 69.0772H77.6415L77.646 80.195Z" fill="white"/>
<path d="M127.148 18.1682C126.832 18.1656 126.527 18.0508 126.288 17.8442C126.049 17.6376 125.891 17.3527 125.843 17.0404C125.234 13.0377 123.062 9.43972 119.805 7.03525C116.547 4.63078 112.469 3.61598 108.465 4.21327C108.14 4.22181 107.823 4.11114 107.573 3.90212C107.324 3.6931 107.16 3.40017 107.112 3.07855C107.064 2.75694 107.135 2.42885 107.313 2.15615C107.49 1.88344 107.761 1.68496 108.074 1.59811C112.771 0.897819 117.555 2.08912 121.375 4.91074C125.196 7.73237 127.741 11.954 128.454 16.6497C128.502 16.9954 128.413 17.3464 128.205 17.627C127.998 17.9077 127.688 18.0956 127.344 18.1504C127.279 18.1627 127.214 18.1687 127.148 18.1682Z" fill="#448FF2"/>
<path d="M120.581 19.1537C120.265 19.1513 119.961 19.0371 119.722 18.8314C119.483 18.6257 119.325 18.3419 119.275 18.0304C118.932 15.7672 117.706 13.7325 115.865 12.3724C114.023 11.0124 111.718 10.438 109.454 10.7754C109.128 10.7852 108.811 10.6754 108.561 10.4667C108.311 10.2581 108.146 9.96505 108.097 9.64305C108.048 9.32105 108.119 8.99237 108.297 8.71916C108.474 8.44595 108.745 8.24713 109.059 8.16028C112.016 7.71846 115.028 8.46794 117.434 10.2443C119.84 12.0206 121.442 14.6786 121.89 17.6352C121.94 17.9816 121.852 18.3337 121.644 18.6154C121.436 18.897 121.126 19.0856 120.78 19.1404C120.714 19.1493 120.647 19.1537 120.581 19.1537Z" fill="#448FF2"/>
<path d="M114.018 20.144C113.702 20.1414 113.397 20.0266 113.158 19.82C112.919 19.6134 112.761 19.3285 112.712 19.0163C112.674 18.7565 112.584 18.507 112.449 18.2819C112.314 18.0569 112.136 17.8607 111.924 17.7048C111.713 17.5488 111.473 17.4361 111.218 17.3732C110.963 17.3102 110.699 17.2983 110.439 17.3379C110.117 17.3423 109.804 17.2298 109.558 17.0211C109.313 16.8125 109.151 16.5219 109.104 16.2032C109.056 15.8845 109.125 15.5594 109.299 15.288C109.473 15.0166 109.739 14.8173 110.048 14.7272C110.653 14.6361 111.269 14.6653 111.862 14.8132C112.455 14.9612 113.013 15.2249 113.503 15.5893C113.994 15.9537 114.408 16.4115 114.721 16.9364C115.034 17.4613 115.24 18.0429 115.327 18.6477C115.376 18.9934 115.287 19.3444 115.079 19.625C114.872 19.9057 114.562 20.0937 114.217 20.1485C114.151 20.1536 114.084 20.1521 114.018 20.144Z" fill="#448FF2"/>
</svg>
