<svg width="372" height="278" viewBox="0 0 372 278" fill="none" xmlns="http://www.w3.org/2000/svg">
<path d="M372 243.586H0V243.772H372V243.586Z" fill="#EBEBEB"/>
<path d="M63.6716 250.669H39.0303V250.855H63.6716V250.669Z" fill="#EBEBEB"/>
<path d="M158.97 248.652H127.328V248.838H158.97V248.652Z" fill="#EBEBEB"/>
<path d="M83.8194 253.28H69.542V253.466H83.8194V253.28Z" fill="#EBEBEB"/>
<path d="M334.726 256.33H323.395V256.516H334.726V256.33Z" fill="#EBEBEB"/>
<path d="M316.765 256.33H291.253V256.516H316.765V256.33Z" fill="#EBEBEB"/>
<path d="M246.881 250.973H229.151V251.159H246.881V250.973Z" fill="#EBEBEB"/>
<path d="M176.328 210.403H32.677C31.5502 210.403 30.4697 209.956 29.673 209.159C28.8763 208.362 28.4287 207.282 28.4287 206.155V4.21104C28.4385 3.0908 28.8904 2.01977 29.6861 1.2311C30.4817 0.442429 31.5567 -4.29481e-05 32.677 3.1267e-09H176.328C177.455 3.12671e-09 178.536 0.447581 179.332 1.24428C180.129 2.04098 180.577 3.12154 180.577 4.24824V206.155C180.577 207.282 180.129 208.362 179.332 209.159C178.536 209.956 177.455 210.403 176.328 210.403ZM32.677 0.148801C31.6002 0.150767 30.5681 0.579383 29.8067 1.34077C29.0453 2.10217 28.6167 3.13427 28.6147 4.21104V206.155C28.6167 207.232 29.0453 208.264 29.8067 209.025C30.5681 209.787 31.6002 210.215 32.677 210.217H176.328C177.405 210.215 178.437 209.787 179.199 209.025C179.96 208.264 180.389 207.232 180.391 206.155V4.21104C180.389 3.13427 179.96 2.10217 179.199 1.34077C178.437 0.579383 177.405 0.150767 176.328 0.148801H32.677Z" fill="#EBEBEB"/>
<path d="M337.263 210.403H193.597C192.471 210.401 191.391 209.953 190.595 209.157C189.799 208.361 189.351 207.281 189.349 206.155V4.21104C189.36 3.0914 189.813 2.02151 190.608 1.23325C191.403 0.444993 192.477 0.00189593 193.597 0H337.263C338.381 0.00387215 339.452 0.448073 340.245 1.23633C341.037 2.02458 341.487 3.09337 341.497 4.21104V206.155C341.497 207.279 341.051 208.357 340.258 209.154C339.464 209.95 338.387 210.399 337.263 210.403ZM193.597 0.148801C192.52 0.150767 191.488 0.579383 190.727 1.34077C189.965 2.10217 189.537 3.13427 189.535 4.21104V206.155C189.537 207.232 189.965 208.264 190.727 209.025C191.488 209.787 192.52 210.215 193.597 210.217H337.263C338.34 210.215 339.372 209.787 340.134 209.025C340.895 208.264 341.324 207.232 341.326 206.155V4.21104C341.324 3.13427 340.895 2.10217 340.134 1.34077C339.372 0.579383 338.34 0.150767 337.263 0.148801H193.597Z" fill="#EBEBEB"/>
<path d="M228.78 105.179L309.035 105.179V24.7083L228.78 24.7083V105.179Z" fill="#F0F0F0"/>
<path d="M228.78 24.7156H227.396V105.187H228.78V24.7156Z" fill="#E0E0E0"/>
<path d="M235.87 100.098L301.952 100.098V29.7897L235.87 29.7897V100.098Z" fill="#FAFAFA"/>
<path d="M261.889 84.816H282.817C287.356 84.816 290.391 81.1407 289.595 76.632L285.526 53.3225C285.073 51.0671 283.872 49.031 282.116 47.5452C280.36 46.0593 278.153 45.2111 275.854 45.1385H254.977C250.438 45.1385 247.403 48.8138 248.199 53.3225L252.269 76.632C252.718 78.8796 253.911 80.91 255.657 82.3951C257.403 83.8802 259.598 84.7332 261.889 84.816Z" fill="#F0F0F0"/>
<path d="M78.0982 129.62H60.2422V239.769H78.0982V129.62Z" fill="#F0F0F0"/>
<path d="M156.448 239.776H62.0645V243.578H156.448V239.776Z" fill="#F0F0F0"/>
<path d="M78.0981 239.776H158.019V129.627H78.0981L78.0981 239.776Z" fill="#F5F5F5"/>
<path d="M81.3124 206.646H154.805V186.975H81.3124V206.646Z" fill="#F0F0F0"/>
<path d="M81.3124 232.388H154.805V212.717H81.3124V232.388Z" fill="#F0F0F0"/>
<path d="M146.106 185.769H90.0088C89.5239 185.769 89.1309 186.162 89.1309 186.647V187.592C89.1309 188.077 89.5239 188.47 90.0088 188.47H146.106C146.591 188.47 146.984 188.077 146.984 187.592V186.647C146.984 186.162 146.591 185.769 146.106 185.769Z" fill="#F5F5F5"/>
<path d="M146.106 211.519H90.0088C89.5239 211.519 89.1309 211.912 89.1309 212.397V213.342C89.1309 213.827 89.5239 214.22 90.0088 214.22H146.106C146.591 214.22 146.984 213.827 146.984 213.342V212.397C146.984 211.912 146.591 211.519 146.106 211.519Z" fill="#F5F5F5"/>
<path d="M81.3124 155.362H154.805V135.691H81.3124V155.362Z" fill="#F0F0F0"/>
<path d="M81.3124 180.911H154.805V161.24H81.3124V180.911Z" fill="#F0F0F0"/>
<path d="M146.106 134.493H90.0088C89.5239 134.493 89.1309 134.886 89.1309 135.371V136.316C89.1309 136.801 89.5239 137.194 90.0088 137.194H146.106C146.591 137.194 146.984 136.801 146.984 136.316V135.371C146.984 134.886 146.591 134.493 146.106 134.493Z" fill="#F5F5F5"/>
<path d="M146.106 160.027H90.0088C89.5239 160.027 89.1309 160.42 89.1309 160.905V161.85C89.1309 162.335 89.5239 162.728 90.0088 162.728H146.106C146.591 162.728 146.984 162.335 146.984 161.85V160.905C146.984 160.42 146.591 160.027 146.106 160.027Z" fill="#F5F5F5"/>
<path d="M155.124 18.6447H54.8994V106.63H155.124V18.6447Z" fill="#E6E6E6"/>
<path d="M165.867 15.2222H48.4114C48.2808 15.2222 48.1516 15.2481 48.031 15.2983C47.9105 15.3484 47.8011 15.422 47.7091 15.5147C47.6171 15.6074 47.5444 15.7173 47.4951 15.8382C47.4458 15.9591 47.4209 16.0886 47.4219 16.2192C47.4219 16.4816 47.5262 16.7333 47.7117 16.9189C47.8973 17.1045 48.149 17.2087 48.4114 17.2087H165.867C166.13 17.2087 166.382 17.1047 166.569 16.9193C166.756 16.734 166.862 16.4823 166.864 16.2192C166.864 15.9548 166.759 15.7012 166.572 15.5142C166.385 15.3273 166.131 15.2222 165.867 15.2222Z" fill="#E6E6E6"/>
<path d="M159.379 18.6447H56.8857V106.63H159.379V18.6447Z" fill="#F0F0F0"/>
<path d="M155.124 106.63H54.8994V109.45H158.055L155.124 106.63Z" fill="#E6E6E6"/>
<path d="M166.463 106.63H63.9766L66.9005 109.45H169.394L166.463 106.63Z" fill="#F0F0F0"/>
<path d="M153.428 100.678V24.5966L62.8457 24.5966V100.678H153.428Z" fill="#FAFAFA"/>
<path d="M83.4092 100.678L118.347 24.5966H134.849L99.9037 100.678H83.4092Z" fill="white"/>
<path d="M103.445 100.678L138.391 24.5966H144.819L109.881 100.678H103.445Z" fill="white"/>
<path d="M153.428 100.678V24.5966H152.669V100.678H153.428Z" fill="#E6E6E6"/>
<g opacity="0.4">
<path opacity="0.4" d="M62.9119 13.444H52.667V86.051H62.9119V13.444Z" fill="#F0F0F0"/>
<path opacity="0.4" d="M66.9069 13.4441H58.9238V86.0511H66.9069V13.4441Z" fill="#E6E6E6"/>
<path opacity="0.4" d="M73.158 13.4441H62.9131V86.0511H73.158V13.4441Z" fill="#F0F0F0"/>
<path opacity="0.4" d="M77.153 13.4441H69.1699V86.0511H77.153V13.4441Z" fill="#E6E6E6"/>
<path opacity="0.4" d="M83.4021 13.4441H73.1572V86.0511H83.4021V13.4441Z" fill="#F0F0F0"/>
</g>
<g opacity="0.4">
<path opacity="0.4" d="M149.619 13.444H143.712V86.051H149.619V13.444Z" fill="#F0F0F0"/>
<path opacity="0.4" d="M151.91 13.4441H147.312V86.0511H151.91V13.4441Z" fill="#E6E6E6"/>
<path opacity="0.4" d="M155.519 13.4441H149.611V86.0511H155.519V13.4441Z" fill="#F0F0F0"/>
<path opacity="0.4" d="M157.818 13.4441H153.22V86.0511H157.818V13.4441Z" fill="#E6E6E6"/>
<path opacity="0.4" d="M161.426 13.4441H155.519V86.0511H161.426V13.4441Z" fill="#F0F0F0"/>
</g>
<path d="M265.496 159.372C265.409 160.449 265.642 161.527 266.167 162.47C266.692 163.414 267.485 164.18 268.446 164.674C269.407 165.167 270.492 165.364 271.565 165.24C272.637 165.117 273.649 164.678 274.473 163.979C275.296 163.281 275.894 162.354 276.19 161.315C276.487 160.277 276.469 159.174 276.139 158.146C275.809 157.118 275.182 156.211 274.336 155.539C273.491 154.867 272.465 154.462 271.389 154.373C269.945 154.255 268.513 154.716 267.408 155.653C266.304 156.591 265.616 157.928 265.496 159.372Z" fill="#E0E0E0"/>
<path d="M280.68 168.069C283.668 167.63 285.734 164.851 285.294 161.863C284.854 158.875 282.076 156.809 279.088 157.249C276.1 157.689 274.034 160.467 274.474 163.455C274.913 166.443 277.692 168.509 280.68 168.069Z" fill="#E0E0E0"/>
<path d="M283.999 163.345C283.912 164.421 284.145 165.499 284.67 166.443C285.195 167.387 285.988 168.153 286.949 168.646C287.91 169.139 288.995 169.337 290.068 169.213C291.14 169.089 292.152 168.651 292.976 167.952C293.799 167.253 294.397 166.326 294.693 165.288C294.99 164.25 294.972 163.147 294.642 162.119C294.312 161.091 293.685 160.184 292.839 159.512C291.994 158.84 290.968 158.434 289.892 158.346C289.176 158.285 288.456 158.367 287.772 158.586C287.089 158.805 286.455 159.157 285.907 159.622C285.36 160.086 284.909 160.654 284.582 161.293C284.255 161.932 284.057 162.63 283.999 163.345Z" fill="#E0E0E0"/>
<path d="M255.34 162.237C255.253 163.313 255.486 164.391 256.011 165.335C256.536 166.278 257.329 167.045 258.29 167.538C259.25 168.031 260.336 168.228 261.408 168.105C262.481 167.981 263.493 167.542 264.316 166.843C265.14 166.145 265.737 165.218 266.034 164.18C266.331 163.141 266.313 162.039 265.983 161.01C265.653 159.982 265.025 159.075 264.18 158.403C263.334 157.732 262.309 157.326 261.233 157.237C259.789 157.12 258.357 157.58 257.252 158.518C256.147 159.455 255.46 160.793 255.34 162.237Z" fill="#E0E0E0"/>
<path d="M298.135 168.066C301.123 167.626 303.189 164.847 302.749 161.86C302.31 158.872 299.531 156.806 296.543 157.245C293.555 157.685 291.489 160.464 291.929 163.452C292.368 166.439 295.147 168.505 298.135 168.066Z" fill="#E0E0E0"/>
<path d="M256.974 162.216C259.269 160.253 259.538 156.801 257.575 154.505C255.612 152.21 252.16 151.941 249.865 153.904C247.57 155.867 247.3 159.319 249.263 161.614C251.227 163.91 254.679 164.179 256.974 162.216Z" fill="#E0E0E0"/>
<path d="M240.252 160.994C240.165 162.07 240.398 163.148 240.923 164.092C241.448 165.036 242.241 165.802 243.202 166.295C244.162 166.788 245.248 166.986 246.32 166.862C247.393 166.738 248.405 166.3 249.228 165.601C250.052 164.902 250.65 163.975 250.946 162.937C251.243 161.899 251.225 160.796 250.895 159.768C250.565 158.74 249.938 157.832 249.092 157.161C248.247 156.489 247.221 156.083 246.145 155.994C244.701 155.877 243.269 156.338 242.164 157.275C241.059 158.213 240.372 159.55 240.252 160.994Z" fill="#E0E0E0"/>
<path d="M234.01 162.467C234.01 162.467 234.947 184.839 270.897 184.839C306.847 184.839 307.785 162.467 307.785 162.467H234.01Z" fill="#F0F0F0"/>
<path d="M328.297 184.839H321.46V243.578H328.297V184.839Z" fill="#E6E6E6"/>
<path d="M330.12 184.839H326.095V243.578H330.12V184.839Z" fill="#F0F0F0"/>
<path d="M299.207 184.839H292.37V243.578H299.207V184.839Z" fill="#E6E6E6"/>
<path d="M300.487 184.839H296.462V243.578H300.487V184.839Z" fill="#F0F0F0"/>
<path d="M234.308 191.967H331.37V184.847H234.308V191.967Z" fill="#F0F0F0"/>
<path d="M204.645 184.839H197.808V243.578H204.645V184.839Z" fill="#E6E6E6"/>
<path d="M205.924 184.839H201.899V243.578H205.924V184.839Z" fill="#F0F0F0"/>
<path d="M196.588 191.967H231.385V184.847H196.588V191.967Z" fill="#E6E6E6"/>
<path d="M233.728 184.839H226.891V243.578H233.728V184.839Z" fill="#E6E6E6"/>
<path d="M235.558 184.839H231.533V243.578H235.558V184.839Z" fill="#F0F0F0"/>
<path d="M185.999 277.185C265.669 277.185 330.253 273.414 330.253 268.763C330.253 264.111 265.669 260.341 185.999 260.341C106.33 260.341 41.7451 264.111 41.7451 268.763C41.7451 273.414 106.33 277.185 185.999 277.185Z" fill="#F5F5F5"/>
<path d="M264.478 261.375C264.479 262.861 263.952 264.3 262.991 265.435C262.031 266.57 260.699 267.327 259.232 267.572C241.182 270.618 222.748 270.618 204.697 267.572C203.237 267.321 201.913 266.561 200.96 265.426C200.006 264.292 199.485 262.856 199.489 261.375V201.111H264.507L264.478 261.375Z" fill="#448FF2"/>
<path opacity="0.3" d="M199.45 202.197V210.656C203.364 212.107 216.213 213.171 231.963 213.171C247.713 213.171 260.585 212.107 264.476 210.656V202.197H199.45Z" fill="black"/>
<path d="M265.697 208.647C265.697 210.559 250.936 212.107 231.964 212.107C212.992 212.107 198.231 210.559 198.231 208.647L197.613 201.133H266.351L265.697 208.647Z" fill="#448FF2"/>
<path d="M231.965 204.585C250.936 204.585 266.315 203.04 266.315 201.133C266.315 199.226 250.936 197.681 231.965 197.681C212.994 197.681 197.614 199.226 197.614 201.133C197.614 203.04 212.994 204.585 231.965 204.585Z" fill="#448FF2"/>
<path opacity="0.3" d="M231.965 204.585C250.936 204.585 266.315 203.04 266.315 201.133C266.315 199.226 250.936 197.681 231.965 197.681C212.994 197.681 197.614 199.226 197.614 201.133C197.614 203.04 212.994 204.585 231.965 204.585Z" fill="black"/>
<path opacity="0.2" d="M208.171 257.134C207.502 257.132 206.862 256.866 206.389 256.393C205.917 255.92 205.65 255.28 205.648 254.612V220.06C205.65 219.392 205.917 218.752 206.389 218.279C206.862 217.807 207.502 217.54 208.171 217.538C208.838 217.542 209.478 217.809 209.95 218.281C210.422 218.753 210.689 219.393 210.693 220.06V254.612C210.689 255.279 210.422 255.919 209.95 256.391C209.478 256.863 208.838 257.13 208.171 257.134Z" fill="black"/>
<path opacity="0.2" d="M255.764 257.134C255.096 257.132 254.456 256.866 253.983 256.393C253.511 255.92 253.244 255.28 253.242 254.612V220.06C253.244 219.392 253.511 218.752 253.983 218.279C254.456 217.807 255.096 217.54 255.764 217.538C256.432 217.542 257.071 217.809 257.543 218.281C258.016 218.753 258.283 219.393 258.287 220.06V254.612C258.283 255.279 258.016 255.919 257.543 256.391C257.071 256.863 256.432 257.13 255.764 257.134Z" fill="black"/>
<path opacity="0.2" d="M239.894 257.134C239.227 257.13 238.587 256.863 238.115 256.391C237.643 255.919 237.376 255.279 237.372 254.612V220.06C237.376 219.393 237.643 218.753 238.115 218.281C238.587 217.809 239.227 217.542 239.894 217.538C240.563 217.54 241.203 217.807 241.675 218.279C242.148 218.752 242.414 219.392 242.416 220.06V254.612C242.414 255.28 242.148 255.92 241.675 256.393C241.203 256.866 240.563 257.132 239.894 257.134Z" fill="black"/>
<path opacity="0.2" d="M224.033 257.134C223.365 257.13 222.726 256.863 222.254 256.391C221.782 255.919 221.515 255.279 221.511 254.612V220.06C221.515 219.393 221.782 218.753 222.254 218.281C222.726 217.809 223.365 217.542 224.033 217.538C224.701 217.54 225.342 217.807 225.814 218.279C226.287 218.752 226.553 219.392 226.555 220.06V254.612C226.553 255.28 226.287 255.92 225.814 256.393C225.342 256.866 224.701 257.132 224.033 257.134Z" fill="black"/>
<path d="M143.504 62.615C143.504 63.2978 143.301 63.9652 142.922 64.5329C142.543 65.1006 142.004 65.5431 141.373 65.8044C140.742 66.0657 140.048 66.134 139.378 66.0008C138.709 65.8676 138.094 65.5388 137.611 65.056C137.128 64.5733 136.799 63.9581 136.666 63.2885C136.533 62.6188 136.601 61.9247 136.862 61.2939C137.124 60.6631 137.566 60.124 138.134 59.7446C138.702 59.3653 139.369 59.1628 140.052 59.1628C140.967 59.1628 141.845 59.5266 142.493 60.174C143.14 60.8214 143.504 61.6994 143.504 62.615Z" fill="#263238"/>
<path d="M137.276 63.1134C137.242 63.1143 137.209 63.1057 137.18 63.0886C137.151 63.0715 137.127 63.0466 137.112 63.0167C136.884 62.5975 136.741 62.1375 136.69 61.663C136.64 61.1884 136.683 60.7086 136.819 60.2509C136.954 59.7932 137.177 59.3666 137.477 58.9954C137.777 58.6243 138.147 58.3158 138.567 58.0877C138.986 57.8595 139.446 57.7162 139.92 57.6658C140.395 57.6154 140.875 57.659 141.332 57.7941C141.79 57.9292 142.217 58.153 142.588 58.453C142.959 58.7529 143.267 59.123 143.496 59.5422C143.517 59.5859 143.522 59.6364 143.508 59.6833C143.494 59.7302 143.463 59.7702 143.421 59.7951C143.4 59.8069 143.376 59.8144 143.352 59.817C143.327 59.8196 143.303 59.8174 143.279 59.8105C143.256 59.8036 143.234 59.7921 143.215 59.7767C143.196 59.7613 143.18 59.7423 143.168 59.7207C142.755 58.9611 142.057 58.3967 141.227 58.1518C140.398 57.907 139.505 58.0016 138.745 58.415C137.985 58.8284 137.421 59.5266 137.176 60.3561C136.931 61.1856 137.026 62.0784 137.439 62.8381C137.451 62.8596 137.459 62.8832 137.461 62.9075C137.464 62.9319 137.462 62.9565 137.455 62.98C137.448 63.0036 137.436 63.0255 137.421 63.0445C137.406 63.0636 137.387 63.0794 137.365 63.0911C137.337 63.1053 137.307 63.113 137.276 63.1134Z" fill="#263238"/>
<path d="M133.92 78.3877C133.248 78.385 132.589 78.1959 132.018 77.8415C131.446 77.487 130.984 76.9811 130.683 76.3799C130.381 75.7787 130.252 75.1058 130.31 74.4358C130.368 73.7658 130.611 73.125 131.011 72.5845C131.296 72.2024 131.654 71.8803 132.064 71.6364C132.474 71.3926 132.928 71.2319 133.399 71.1634C133.424 71.1592 133.448 71.16 133.472 71.1657C133.496 71.1714 133.518 71.1818 133.537 71.1965C133.557 71.2111 133.573 71.2296 133.585 71.2508C133.597 71.272 133.605 71.2954 133.608 71.3197C133.614 71.368 133.601 71.4168 133.572 71.4558C133.543 71.4947 133.5 71.5206 133.452 71.528C132.596 71.6533 131.826 72.1133 131.309 72.8067C130.793 73.5002 130.573 74.3703 130.699 75.2257C130.824 76.0811 131.284 76.8517 131.977 77.3679C132.671 77.8842 133.541 78.1038 134.396 77.9785C134.446 77.9706 134.496 77.9826 134.537 78.0119C134.577 78.0412 134.604 78.0854 134.612 78.1347C134.62 78.1841 134.608 78.2345 134.579 78.275C134.549 78.3154 134.505 78.3426 134.456 78.3505C134.278 78.374 134.099 78.3864 133.92 78.3877Z" fill="#263238"/>
<path d="M152.677 84.0123C151.979 84.0113 151.297 83.8071 150.713 83.4246C150.671 83.3972 150.642 83.3548 150.631 83.3063C150.62 83.2578 150.628 83.2069 150.653 83.1642C150.682 83.1239 150.725 83.0961 150.773 83.0864C150.822 83.0767 150.872 83.0859 150.914 83.1121C151.639 83.5827 152.521 83.746 153.367 83.566C154.212 83.386 154.952 82.8775 155.422 82.1523C155.893 81.4272 156.056 80.5448 155.876 79.6992C155.696 78.8537 155.188 78.1143 154.463 77.6437C154.421 77.6163 154.392 77.5739 154.381 77.5254C154.37 77.4769 154.378 77.426 154.403 77.3833C154.432 77.343 154.474 77.3152 154.523 77.3055C154.571 77.2958 154.622 77.305 154.663 77.3312C155.47 77.8564 156.035 78.6797 156.236 79.6209C156.437 80.5622 156.257 81.5446 155.735 82.3532C155.477 82.7555 155.142 83.1022 154.748 83.3731C154.355 83.644 153.911 83.8335 153.443 83.9305C153.191 83.9835 152.934 84.0109 152.677 84.0123Z" fill="#263238"/>
<path d="M138.117 73.3806C140.812 73.3806 142.998 71.1955 142.998 68.5C142.998 65.8045 140.812 63.6193 138.117 63.6193C135.421 63.6193 133.236 65.8045 133.236 68.5C133.236 71.1955 135.421 73.3806 138.117 73.3806Z" fill="#263238"/>
<path d="M142.698 79.6469C145.225 77.1191 145.225 73.0208 142.698 70.493C140.17 67.9652 136.072 67.9652 133.544 70.493C131.016 73.0208 131.016 77.1191 133.544 79.6469C136.072 82.1747 140.17 82.1747 142.698 79.6469Z" fill="#263238"/>
<path d="M138.801 90.4554C142.754 90.4554 145.958 87.251 145.958 83.2981C145.958 79.3452 142.754 76.1408 138.801 76.1408C134.848 76.1408 131.644 79.3452 131.644 83.2981C131.644 87.251 134.848 90.4554 138.801 90.4554Z" fill="#263238"/>
<path d="M152.927 85.4277C153.835 81.5805 151.453 77.7257 147.606 76.8177C143.759 75.9097 139.904 78.2923 138.996 82.1395C138.088 85.9866 140.47 89.8414 144.317 90.7494C148.165 91.6575 152.019 89.2748 152.927 85.4277Z" fill="#263238"/>
<path d="M169.699 98.55C169.699 99.1303 169.699 99.8669 169.751 100.537C169.803 101.206 169.803 101.92 169.848 102.612C169.944 103.996 170.041 105.395 170.19 106.786C170.458 109.579 170.832 112.359 171.313 115.126C171.44 115.811 171.552 116.51 171.693 117.195L172.02 118.884C172.102 119.151 172.02 119.099 171.916 119.092C171.812 119.084 171.916 119.226 172.355 119.226C173.479 119.113 174.573 118.798 175.584 118.296C176.179 118.028 176.789 117.738 177.399 117.425C178.009 117.113 178.627 116.756 179.185 116.443L181.357 118.951C180.839 119.544 180.288 120.108 179.706 120.639C179.133 121.185 178.527 121.694 177.89 122.165C177.224 122.666 176.52 123.116 175.785 123.511C174.949 123.968 174.052 124.303 173.121 124.508C172.547 124.633 171.96 124.683 171.373 124.657C170.657 124.615 169.955 124.439 169.305 124.136C168.613 123.811 167.997 123.345 167.497 122.767C167.067 122.265 166.716 121.701 166.455 121.093C166.253 120.629 166.089 120.148 165.964 119.657L165.674 118.571C165.466 117.827 165.294 117.12 165.116 116.391C164.42 113.466 163.883 110.506 163.509 107.523C163.323 106.035 163.174 104.547 163.085 103.021C163.04 102.277 163.003 101.533 162.981 100.745C162.958 99.9562 162.981 99.2568 162.981 98.3715L169.699 98.55Z" fill="#FFB573"/>
<path d="M166.091 90.5298C172.437 95.3881 172.184 104.547 172.184 104.547L160.831 107.262C160.831 107.262 157.349 98.0516 158.762 94.6813C160.236 91.1696 162.52 87.7919 166.091 90.5298Z" fill="#448FF2"/>
<path opacity="0.7" d="M166.091 90.5298C172.437 95.3881 172.184 104.547 172.184 104.547L160.831 107.262C160.831 107.262 157.349 98.0516 158.762 94.6813C160.236 91.1696 162.52 87.7919 166.091 90.5298Z" fill="white"/>
<path d="M178.762 117.299L180.637 114.144L185.339 119.174C185.339 119.174 181.968 121.331 178.472 119.791L178.762 117.299Z" fill="#FFB573"/>
<path d="M182.951 112.634L188.984 116.19L185.339 119.174L180.637 114.144L182.951 112.634Z" fill="#FFB573"/>
<path d="M130.565 263.272L137.053 263.897L141.086 248.697L134.59 248.072L130.565 263.272Z" fill="#FFB573"/>
<path d="M97.3086 250.497L103.134 253.548L110.061 239.813L104.235 236.763L97.3086 250.497Z" fill="#FFB573"/>
<path d="M104.689 250.877L99.4806 245.587C99.394 245.494 99.2762 245.437 99.1498 245.426C99.0234 245.415 98.8974 245.451 98.7961 245.527L94.0122 249.046C93.8962 249.14 93.8011 249.256 93.733 249.389C93.6649 249.521 93.6253 249.666 93.6169 249.815C93.6085 249.964 93.6314 250.113 93.6841 250.252C93.7368 250.391 93.8182 250.518 93.9229 250.624C95.768 252.439 96.7501 253.22 99.0416 255.549C100.455 256.977 103.357 260.348 105.306 262.327C107.255 264.306 109.309 262.483 108.676 261.486C105.834 257.022 105.358 254.217 105.18 251.948C105.147 251.544 104.973 251.165 104.689 250.877Z" fill="#263238"/>
<path d="M138.064 261.925H130.2C130.059 261.927 129.923 261.974 129.811 262.06C129.7 262.146 129.62 262.266 129.582 262.401L127.901 268.584C127.859 268.731 127.852 268.886 127.881 269.036C127.91 269.186 127.973 269.327 128.067 269.448C128.16 269.569 128.281 269.666 128.418 269.732C128.556 269.797 128.708 269.83 128.861 269.826C131.621 269.826 132.93 269.826 136.375 269.826H146.918C149.782 269.826 150.385 266.932 149.194 266.664C143.882 265.489 140.817 263.867 139.18 262.319C138.87 262.054 138.472 261.913 138.064 261.925Z" fill="#263238"/>
<path opacity="0.2" d="M141.078 248.704L139.003 256.539H132.344L134.583 248.079L141.078 248.704Z" fill="black"/>
<path opacity="0.2" d="M104.226 236.763L110.059 239.821L106.488 246.896L100.655 243.838L104.226 236.763Z" fill="black"/>
<path d="M164.172 89.5924C164.172 89.5924 167.043 90.8497 157.416 128.943L130.677 126.629C132.068 115.789 132.656 109.078 129.39 86.289C133.202 85.8426 137.041 85.671 140.877 85.7756C144.944 85.8372 149.002 86.1877 153.019 86.8247C156.781 87.5582 160.503 88.482 164.172 89.5924Z" fill="#448FF2"/>
<path opacity="0.7" d="M164.172 89.5924C164.172 89.5924 167.043 90.8497 157.416 128.943L130.677 126.629C132.068 115.789 132.656 109.078 129.39 86.289C133.202 85.8426 137.041 85.671 140.877 85.7756C144.944 85.8372 149.002 86.1877 153.019 86.8247C156.781 87.5582 160.503 88.482 164.172 89.5924Z" fill="white"/>
<path d="M140.877 85.56C140.877 85.56 139.389 85.56 137.566 85.56C136.488 87.2191 141.041 92.0626 146.829 96.8242C148.228 92.4866 150.43 92.5015 150.43 92.5015L140.877 85.56Z" fill="white"/>
<path d="M153.012 86.728C153.012 86.728 153.689 86.8247 155.311 87.1967C156.382 88.8559 156.985 93.0074 153.823 96.6232C152.58 92.1592 150.438 92.561 150.438 92.561L153.012 86.728Z" fill="white"/>
<path d="M143.257 72.2051C143.688 76.178 143.83 83.3651 140.876 85.7756C140.876 85.7756 144.031 89.0046 150.429 92.5609C155.071 89.3468 153.018 86.8247 153.018 86.8247C148.747 85.4111 149.142 82.1896 150.161 79.2136L143.257 72.2051Z" fill="#FFB573"/>
<path opacity="0.2" d="M146.078 75.0695L150.163 79.2135C149.912 79.9023 149.723 80.6119 149.597 81.3339C147.96 80.9545 145.58 79.2433 145.55 77.4875C145.578 76.6562 145.757 75.8369 146.078 75.0695Z" fill="black"/>
<path d="M158.599 59.2446C161.337 61.67 162.14 67.5774 159.536 71.5875C158.754 67.5224 158.44 63.3812 158.599 59.2446Z" fill="#263238"/>
<path d="M142.424 63.8647C141.948 70.4045 141.613 73.1647 144.44 76.9368C148.696 82.6135 156.835 81.7579 159.253 75.4935C161.433 69.8465 161.842 60.1001 155.838 56.6628C154.519 55.8927 153.024 55.474 151.497 55.4467C149.969 55.4195 148.46 55.7847 147.114 56.5073C145.768 57.2299 144.63 58.2858 143.809 59.574C142.988 60.8622 142.511 62.3395 142.424 63.8647Z" fill="#FFB573"/>
<path d="M141.555 69.1324C146.391 68.9464 149.069 62.6224 147.856 59.9514C153.34 62.8084 161.643 65.0552 160.72 61.3799C159.478 56.4174 153.474 52.7792 146.086 55.4279C141.808 57.2879 138.147 61.3799 141.555 69.1324Z" fill="#263238"/>
<path d="M140.081 69.1249C140.287 70.3755 140.977 71.4949 142 72.2423C143.369 73.217 144.619 72.1307 144.716 70.546C144.805 69.1101 144.202 66.8781 142.595 66.5358C142.243 66.4659 141.88 66.4852 141.537 66.5919C141.195 66.6986 140.884 66.8893 140.634 67.1467C140.384 67.4041 140.203 67.7199 140.106 68.0655C140.009 68.411 140.001 68.7752 140.081 69.1249Z" fill="#FFB573"/>
<path d="M157.416 128.942C157.416 128.942 163.465 168.412 160.095 193.767C157.543 212.925 141.078 254.262 141.078 254.262L130.387 253.972C130.387 253.972 141.428 213.907 143.712 198.172C147.618 171.224 137.834 127.276 137.834 127.276L157.416 128.942Z" fill="#263238"/>
<path opacity="0.2" d="M146.986 137.03L141.279 146.025C142.998 156.69 144.088 167.447 144.545 178.24C152.566 163.881 148.801 144.626 146.986 137.03Z" fill="black"/>
<path d="M142.744 254.857L129.308 254.493L130.126 250.17L144.009 250.252L142.744 254.857Z" fill="#448FF2"/>
<path d="M151.568 128.518C151.568 128.518 147.104 172.221 136.904 195.999C128.653 215.194 108.982 245.899 108.982 245.899L101.125 241.301C101.125 241.301 113.773 207.159 120.015 194.362C135.245 162.988 121.079 137.818 130.677 126.658L151.568 128.518Z" fill="#263238"/>
<path d="M109.837 246.569L99.8154 241.071L101.445 236.785L112.121 242.812L109.837 246.569Z" fill="#448FF2"/>
<path d="M130.409 125.029L128.995 127.321C128.891 127.492 129.092 127.707 129.405 127.73L157.446 130.155C157.684 130.155 157.9 130.073 157.922 129.925L158.376 127.551C158.376 127.388 158.205 127.231 157.945 127.209L130.863 124.865C130.78 124.853 130.695 124.861 130.615 124.89C130.536 124.918 130.465 124.966 130.409 125.029Z" fill="#448FF2"/>
<path d="M133.787 128.37L133.043 128.31C132.901 128.31 132.797 128.213 132.812 128.124L133.422 125.044C133.422 124.947 133.578 124.888 133.72 124.903L134.464 124.962C134.612 124.962 134.717 125.059 134.694 125.148L134.092 128.228C134.062 128.318 133.921 128.384 133.787 128.37Z" fill="#263238"/>
<path d="M155.385 130.237L154.641 130.178C154.492 130.178 154.388 130.081 154.41 129.992L155.02 126.911C155.02 126.822 155.169 126.755 155.31 126.77L156.054 126.83C156.196 126.83 156.3 126.926 156.285 127.016L155.675 130.096C155.66 130.2 155.496 130.252 155.385 130.237Z" fill="#263238"/>
<path d="M144.582 129.307L143.838 129.24C143.697 129.24 143.593 129.144 143.608 129.054L144.218 125.974C144.218 125.885 144.367 125.818 144.516 125.833L145.26 125.9C145.401 125.9 145.505 125.996 145.49 126.086L144.88 129.166C144.865 129.255 144.731 129.315 144.582 129.307Z" fill="#263238"/>
<path d="M152.67 67.1162C152.595 67.6444 152.818 68.1131 153.161 68.1578C153.503 68.2024 153.845 67.8155 153.905 67.2873C153.964 66.7591 153.748 66.2903 153.406 66.2457C153.064 66.2011 152.737 66.5879 152.67 67.1162Z" fill="#263238"/>
<path d="M158.636 67.9197C158.569 68.4479 158.792 68.9167 159.134 68.9613C159.477 69.0059 159.819 68.6191 159.878 68.0908C159.938 67.5626 159.73 67.0939 159.387 67.0492C159.045 67.0046 158.71 67.3915 158.636 67.9197Z" fill="#263238"/>
<path d="M159.217 67.0566L160.541 66.8632C160.541 66.8632 159.767 67.7634 159.217 67.0566Z" fill="#263238"/>
<path d="M156.292 68.4999C156.603 69.7667 157.083 70.9856 157.721 72.1232C157.427 72.2797 157.102 72.37 156.769 72.388C156.436 72.406 156.103 72.3512 155.794 72.2274L156.292 68.4999Z" fill="#ED893E"/>
<path d="M152.7 73.8048C151.653 73.4637 150.775 72.7377 150.244 71.7736C150.231 71.7428 150.23 71.7082 150.241 71.6765C150.252 71.6448 150.274 71.6184 150.304 71.6025C150.336 71.587 150.372 71.5845 150.405 71.5956C150.439 71.6068 150.467 71.6306 150.482 71.662C150.813 72.2417 151.276 72.7351 151.833 73.1023C152.39 73.4694 153.026 73.6999 153.689 73.775C153.723 73.775 153.755 73.7883 153.779 73.812C153.802 73.8358 153.816 73.8679 153.816 73.9015C153.816 73.935 153.802 73.9672 153.779 73.9909C153.755 74.0146 153.723 74.028 153.689 74.028C153.352 73.9908 153.02 73.9159 152.7 73.8048Z" fill="#263238"/>
<path d="M149.954 64.0583C149.911 64.0404 149.872 64.0123 149.842 63.9764C149.818 63.9528 149.798 63.9245 149.785 63.8932C149.772 63.8619 149.765 63.8282 149.765 63.7942C149.765 63.7601 149.772 63.7264 149.785 63.6951C149.798 63.6638 149.818 63.6355 149.842 63.6119C150.207 63.2859 150.645 63.0533 151.119 62.934C151.594 62.8148 152.09 62.8125 152.565 62.9274C152.598 62.9368 152.628 62.9525 152.654 62.9738C152.681 62.9951 152.702 63.0214 152.718 63.0512C152.734 63.081 152.744 63.1138 152.747 63.1474C152.75 63.1811 152.747 63.2151 152.736 63.2473C152.717 63.3132 152.673 63.369 152.613 63.4024C152.553 63.4358 152.483 63.4443 152.416 63.4259C152.025 63.3388 151.619 63.346 151.23 63.4469C150.842 63.5478 150.484 63.7395 150.184 64.0062C150.152 64.031 150.115 64.0485 150.075 64.0575C150.035 64.0665 149.994 64.0668 149.954 64.0583Z" fill="#263238"/>
<path d="M161.144 65.6431C161.105 65.6279 161.069 65.6052 161.04 65.5761C160.779 65.27 160.45 65.0297 160.079 64.8746C159.708 64.7195 159.305 64.6539 158.904 64.6833C158.87 64.6909 158.835 64.6911 158.801 64.6841C158.767 64.677 158.735 64.6628 158.707 64.6424C158.679 64.622 158.655 64.5959 158.638 64.5658C158.621 64.5356 158.61 64.5021 158.607 64.4676C158.596 64.3995 158.613 64.33 158.653 64.2742C158.694 64.2184 158.754 64.1809 158.822 64.17C159.308 64.1263 159.797 64.1993 160.249 64.3831C160.701 64.5669 161.102 64.8561 161.419 65.2264C161.455 65.2694 161.476 65.3229 161.48 65.379C161.483 65.4351 161.468 65.4907 161.437 65.5376C161.406 65.5844 161.361 65.62 161.308 65.639C161.255 65.658 161.197 65.6595 161.144 65.6431Z" fill="#263238"/>
<path d="M167.029 121.778C167.511 120.277 168.283 118.886 169.303 117.684C170.322 116.482 171.568 115.492 172.97 114.771C174.372 114.051 175.902 113.613 177.472 113.484C179.043 113.355 180.624 113.536 182.125 114.018C183.626 114.5 185.017 115.272 186.219 116.291C187.421 117.311 188.411 118.557 189.131 119.959C189.852 121.36 190.289 122.89 190.418 124.461C190.548 126.032 190.366 127.613 189.885 129.114L185.257 143.592L162.401 136.249L167.029 121.778Z" fill="#448FF2"/>
<path opacity="0.3" d="M167.029 121.778C167.511 120.277 168.283 118.886 169.303 117.684C170.322 116.482 171.568 115.492 172.97 114.771C174.372 114.051 175.902 113.613 177.472 113.484C179.043 113.355 180.624 113.536 182.125 114.018C183.626 114.5 185.017 115.272 186.219 116.291C187.421 117.311 188.411 118.557 189.131 119.959C189.852 121.36 190.289 122.89 190.418 124.461C190.548 126.032 190.366 127.613 189.885 129.114L185.257 143.592L162.401 136.249L167.029 121.778Z" fill="black"/>
<path d="M144.478 114.531L140.297 127.551C140.235 127.738 140.212 127.936 140.227 128.132C140.243 128.328 140.297 128.519 140.387 128.694C140.477 128.87 140.601 129.025 140.751 129.152C140.902 129.279 141.076 129.375 141.264 129.434L162.393 136.219L167.036 121.77C168.01 118.742 170.146 116.225 172.976 114.771C175.805 113.318 179.095 113.047 182.124 114.018L159.574 106.771C156.543 105.802 153.251 106.075 150.421 107.53C147.591 108.985 145.454 111.503 144.478 114.531Z" fill="#448FF2"/>
<path d="M155.817 124.404L161.642 106.273C161.662 106.208 161.668 106.139 161.66 106.072C161.651 106.004 161.628 105.939 161.592 105.881C161.556 105.824 161.508 105.774 161.451 105.736C161.394 105.699 161.33 105.674 161.263 105.663L155.311 104.785L154.567 107.136L158.905 108.527L153.994 123.809L155.817 124.404Z" fill="#263238"/>
<path d="M152.721 123.407C152.586 123.827 152.579 124.278 152.701 124.702C152.822 125.126 153.066 125.505 153.403 125.79C153.739 126.075 154.153 126.255 154.591 126.305C155.03 126.355 155.473 126.275 155.865 126.073C156.258 125.872 156.582 125.559 156.796 125.173C157.011 124.788 157.107 124.347 157.071 123.908C157.035 123.468 156.87 123.048 156.597 122.703C156.323 122.357 155.953 122.1 155.533 121.964C155.253 121.873 154.959 121.839 154.666 121.863C154.374 121.887 154.088 121.968 153.827 122.102C153.566 122.236 153.334 122.42 153.144 122.644C152.954 122.868 152.81 123.127 152.721 123.407Z" fill="#263238"/>
<path d="M163.495 138.384L192.809 147.795C192.915 147.83 193.027 147.843 193.139 147.834C193.251 147.825 193.359 147.795 193.459 147.743C193.559 147.692 193.647 147.622 193.719 147.536C193.792 147.451 193.846 147.352 193.88 147.245C193.916 147.138 193.93 147.026 193.921 146.914C193.913 146.802 193.882 146.693 193.831 146.593C193.78 146.493 193.709 146.405 193.623 146.333C193.537 146.26 193.437 146.206 193.33 146.173L162.394 136.241C162.256 136.671 162.294 137.139 162.501 137.54C162.707 137.942 163.065 138.246 163.495 138.384Z" fill="#448FF2"/>
<path opacity="0.2" d="M163.495 138.384L175.474 142.23C175.58 142.265 175.693 142.278 175.805 142.27C175.918 142.261 176.027 142.23 176.127 142.179C176.227 142.128 176.316 142.057 176.389 141.972C176.462 141.886 176.518 141.787 176.552 141.68C176.62 141.465 176.601 141.231 176.498 141.031C176.394 140.83 176.216 140.678 176.002 140.608L162.394 136.241C162.256 136.671 162.294 137.139 162.501 137.54C162.707 137.942 163.065 138.246 163.495 138.384Z" fill="black"/>
<path d="M132.537 96.7943L132.127 97.2482L131.666 97.7764C131.354 98.1335 131.041 98.5204 130.744 98.885C130.133 99.629 129.553 100.425 129.01 101.229C126.762 104.411 124.992 107.905 123.757 111.6C123.46 112.522 123.184 113.445 122.969 114.39C122.894 114.665 122.887 114.777 122.85 114.903C122.844 115.012 122.844 115.122 122.85 115.231C122.838 115.347 122.838 115.464 122.85 115.58C122.85 115.714 123.103 116.027 123.713 116.324C124.446 116.654 125.219 116.889 126.012 117.024C127.925 117.328 129.863 117.455 131.8 117.403C133.824 117.403 135.877 117.225 137.931 117.009C139.984 116.793 142.067 116.525 144.083 116.22L144.894 119.442C140.742 120.793 136.469 121.742 132.135 122.276C129.853 122.573 127.545 122.623 125.253 122.425C123.942 122.302 122.655 121.997 121.429 121.517C120.693 121.223 120.002 120.827 119.375 120.342C118.637 119.763 118.029 119.036 117.59 118.207C116.834 116.652 116.632 114.885 117.017 113.2C117.195 112.061 117.456 110.968 117.761 109.822C118.345 107.622 119.121 105.479 120.082 103.416C121.045 101.348 122.167 99.3583 123.437 97.4639C124.077 96.519 124.762 95.6039 125.476 94.7037C125.841 94.2573 126.22 93.8183 126.592 93.3794L127.195 92.7321C127.41 92.5014 127.582 92.3154 127.879 92.0327L132.537 96.7943Z" fill="#FFB573"/>
<path d="M142.462 116.905L147.67 114.144L147.901 119.739C147.901 119.739 144.181 121.279 142.053 119.583L142.462 116.905Z" fill="#FFB573"/>
<path d="M151.962 113.72L151.181 118.876L147.907 119.739L147.677 114.144L151.962 113.72Z" fill="#FFB573"/>
<path d="M129.389 86.304C126.108 86.8843 121.518 96.2885 121.518 96.2885L129.783 103.728C129.783 103.728 136.353 96.5563 136.003 92.2857C135.706 88.6773 133.563 85.56 129.389 86.304Z" fill="#448FF2"/>
<path opacity="0.7" d="M129.389 86.304C126.108 86.8843 121.518 96.2885 121.518 96.2885L129.783 103.728C129.783 103.728 136.353 96.5563 136.003 92.2857C135.706 88.6773 133.563 85.56 129.389 86.304Z" fill="white"/>
<path d="M107.247 253.749C107.161 253.76 107.073 253.76 106.987 253.749C106.161 253.704 105.283 252.439 104.829 251.695C104.815 251.674 104.808 251.65 104.808 251.624C104.808 251.599 104.815 251.575 104.829 251.554C104.843 251.532 104.863 251.515 104.887 251.505C104.912 251.496 104.938 251.495 104.963 251.502C105.231 251.554 107.545 252.075 107.835 252.856C107.865 252.941 107.873 253.032 107.857 253.12C107.841 253.209 107.803 253.292 107.746 253.362C107.627 253.542 107.451 253.678 107.247 253.749ZM105.216 251.859C105.878 252.878 106.533 253.488 107.002 253.518C107.108 253.52 107.214 253.494 107.308 253.443C107.402 253.393 107.481 253.318 107.537 253.228C107.569 253.195 107.591 253.154 107.601 253.109C107.61 253.064 107.606 253.017 107.589 252.975C107.411 252.499 106.02 252.052 105.216 251.859Z" fill="#448FF2"/>
<path d="M107.01 251.695C106.324 251.884 105.605 251.914 104.905 251.784C104.883 251.777 104.863 251.765 104.848 251.748C104.832 251.731 104.821 251.71 104.816 251.688C104.805 251.668 104.8 251.646 104.8 251.624C104.8 251.602 104.805 251.581 104.816 251.561C104.875 251.509 106.229 250.185 107.174 250.252C107.291 250.253 107.406 250.283 107.509 250.337C107.612 250.391 107.702 250.469 107.769 250.564C107.851 250.651 107.901 250.763 107.911 250.881C107.922 251 107.893 251.119 107.829 251.219C107.615 251.462 107.328 251.63 107.01 251.695ZM105.217 251.576C105.961 251.68 107.353 251.494 107.643 251.07C107.688 251.003 107.725 250.899 107.591 250.728C107.546 250.663 107.486 250.609 107.416 250.571C107.346 250.534 107.268 250.513 107.189 250.512C106.542 250.467 105.604 251.226 105.217 251.576Z" fill="#448FF2"/>
<path d="M140.839 262.922C140.12 262.905 139.404 262.812 138.704 262.647C138.679 262.638 138.658 262.622 138.643 262.6C138.628 262.579 138.62 262.554 138.62 262.528C138.62 262.502 138.628 262.476 138.643 262.455C138.658 262.434 138.679 262.417 138.704 262.409C139.024 262.252 141.873 260.921 142.588 261.427C142.652 261.47 142.703 261.531 142.736 261.602C142.769 261.673 142.782 261.751 142.774 261.828C142.77 261.974 142.733 262.116 142.666 262.245C142.599 262.374 142.504 262.486 142.387 262.572C141.92 262.847 141.379 262.97 140.839 262.922ZM139.15 262.476C139.991 262.632 141.553 262.84 142.201 262.357C142.284 262.291 142.352 262.209 142.4 262.115C142.449 262.022 142.477 261.919 142.483 261.813C142.49 261.781 142.486 261.747 142.473 261.716C142.46 261.686 142.437 261.66 142.409 261.642C142.007 261.367 140.326 261.955 139.128 262.476H139.15Z" fill="#448FF2"/>
<path d="M138.726 262.632C138.7 262.639 138.671 262.639 138.645 262.632C138.627 262.615 138.613 262.594 138.605 262.571C138.598 262.547 138.596 262.522 138.6 262.498C138.6 262.379 139.277 259.574 140.832 259.753C141.219 259.805 141.323 259.991 141.345 260.147C141.442 260.891 139.649 262.297 138.793 262.654L138.726 262.632ZM140.676 259.976C139.694 259.976 139.121 261.613 138.927 262.267C139.857 261.776 141.159 260.608 141.077 260.154C141.077 260.117 141.077 260.013 140.787 259.983L140.676 259.976Z" fill="#448FF2"/>
<path d="M153.265 66.2531L154.582 66.0596C154.582 66.0596 153.8 66.9599 153.265 66.2531Z" fill="#263238"/>
<path d="M199.042 128.497L170.234 134.449C169.741 134.542 169.232 134.438 168.815 134.16C168.398 133.882 168.106 133.452 168.002 132.961L166.655 126.712L166.172 124.405L167.02 121.771C167.138 121.393 167.28 121.023 167.444 120.663C167.463 120.606 167.488 120.551 167.519 120.499C167.994 119.415 168.634 118.411 169.416 117.523L170.904 117.211L195.605 112.085C196.097 111.992 196.606 112.096 197.024 112.374C197.441 112.652 197.732 113.082 197.837 113.573L200.463 126.221C200.57 126.71 200.482 127.223 200.216 127.648C199.951 128.074 199.529 128.379 199.042 128.497Z" fill="#448FF2"/>
<path opacity="0.3" d="M197.614 112.902L183.716 127.038L180.74 125.833L169.164 121.138L167.534 120.476C168.009 119.392 168.649 118.388 169.431 117.5L170.919 117.187L195.62 112.061C195.999 111.986 196.391 112.025 196.746 112.175C197.102 112.325 197.404 112.578 197.614 112.902Z" fill="black"/>
<path d="M197.613 112.902L180.739 125.855L179.638 126.703L169.036 121.443L167.459 120.699C167.478 120.642 167.502 120.587 167.533 120.535C168.009 119.452 168.649 118.448 169.431 117.559L170.919 117.247L195.619 112.121C195.992 112.039 196.38 112.07 196.735 112.209C197.09 112.348 197.395 112.589 197.613 112.902Z" fill="#448FF2"/>
<path opacity="0.2" d="M197.613 112.902L180.739 125.855L179.638 126.703L169.036 121.443L167.459 120.699C167.478 120.642 167.502 120.587 167.533 120.535C168.009 119.452 168.649 118.448 169.431 117.559L170.919 117.247L195.619 112.121C195.992 112.039 196.38 112.07 196.735 112.209C197.09 112.348 197.395 112.589 197.613 112.902Z" fill="white"/>
<path d="M234.211 154.588L225.432 164.052C225.086 164.421 224.608 164.638 224.102 164.656C223.596 164.674 223.104 164.492 222.732 164.149L201.2 144.098C200.83 143.752 200.611 143.274 200.593 142.768C200.575 142.261 200.758 141.768 201.104 141.397L209.912 131.933C210.083 131.748 210.289 131.598 210.518 131.493C210.747 131.387 210.994 131.328 211.246 131.319C211.498 131.31 211.749 131.351 211.985 131.44C212.221 131.529 212.437 131.664 212.621 131.837L234.145 151.888C234.424 152.147 234.619 152.484 234.705 152.855C234.791 153.226 234.764 153.615 234.628 153.971C234.535 154.204 234.393 154.415 234.211 154.588Z" fill="#448FF2"/>
<path opacity="0.3" d="M234.599 154.008L215.017 150.816L210.471 131.472C210.818 131.313 211.204 131.259 211.582 131.319C211.959 131.378 212.31 131.548 212.591 131.807L234.115 151.858C234.408 152.123 234.611 152.471 234.698 152.856C234.784 153.241 234.75 153.644 234.599 154.008Z" fill="black"/>
<path d="M234.599 154.008L215.53 148.324L210.471 131.539C210.818 131.379 211.204 131.326 211.582 131.386C211.959 131.445 212.31 131.615 212.591 131.874L234.115 151.925C234.394 152.184 234.589 152.521 234.675 152.893C234.761 153.264 234.735 153.652 234.599 154.008Z" fill="#448FF2"/>
<path opacity="0.2" d="M234.599 154.008L215.53 148.324L210.471 131.539C210.818 131.379 211.204 131.326 211.582 131.386C211.959 131.445 212.31 131.615 212.591 131.874L234.115 151.925C234.394 152.184 234.589 152.521 234.675 152.893C234.761 153.264 234.735 153.652 234.599 154.008Z" fill="white"/>
<path d="M241.866 170.175L251.538 181.469C251.723 181.685 251.862 181.937 251.946 182.208C252.03 182.48 252.059 182.765 252.029 183.048C251.999 183.331 251.911 183.605 251.772 183.852C251.633 184.1 251.444 184.317 251.218 184.49L230.208 200.858C229.855 201.07 229.435 201.144 229.031 201.064C228.626 200.984 228.266 200.757 228.02 200.426L220.454 191.796C220.312 191.63 220.194 191.444 220.104 191.245C219.964 190.971 219.905 190.663 219.936 190.357C219.966 190.051 220.084 189.76 220.275 189.519L238.875 170.093C239.166 169.779 239.549 169.566 239.97 169.485C240.39 169.405 240.826 169.462 241.212 169.647C241.461 169.78 241.683 169.959 241.866 170.175Z" fill="#448FF2"/>
<path opacity="0.3" d="M241.212 169.669L236.592 190.218L220.135 191.268C219.994 190.994 219.935 190.685 219.966 190.379C219.996 190.073 220.114 189.782 220.306 189.541L238.906 170.116C239.194 169.808 239.572 169.599 239.986 169.518C240.401 169.438 240.83 169.491 241.212 169.669Z" fill="black"/>
<path d="M241.211 169.669L233.466 191.476L220.119 191.268C219.978 190.994 219.92 190.686 219.95 190.379C219.981 190.073 220.099 189.782 220.29 189.542L238.89 170.116C239.179 169.804 239.56 169.593 239.978 169.513C240.395 169.433 240.827 169.488 241.211 169.669Z" fill="#448FF2"/>
<path opacity="0.2" d="M241.211 169.669L233.466 191.476L220.119 191.268C219.978 190.994 219.92 190.686 219.95 190.379C219.981 190.073 220.099 189.782 220.29 189.542L238.89 170.116C239.179 169.804 239.56 169.593 239.978 169.513C240.395 169.433 240.827 169.488 241.211 169.669Z" fill="white"/>
</svg>
