<svg width="600" height="447" viewBox="0 0 600 447" fill="none" xmlns="http://www.w3.org/2000/svg">
<path d="M599.874 392.797H0V393.097H599.874V392.797Z" fill="#EBEBEB"/>
<path d="M102.674 404.219H62.9386V404.519H102.674V404.219Z" fill="#EBEBEB"/>
<path d="M271.815 400.967H205.325V401.267H271.815V400.967Z" fill="#EBEBEB"/>
<path d="M132.2 411.345H109.177V411.645H132.2V411.345Z" fill="#EBEBEB"/>
<path d="M514.271 404.075H462.454V404.375H514.271V404.075Z" fill="#EBEBEB"/>
<path d="M532.556 404.075H524.961V404.375H532.556V404.075Z" fill="#EBEBEB"/>
<path d="M388.778 408.286H332.582V408.586H388.778V408.286Z" fill="#EBEBEB"/>
<path d="M284.34 339.288H52.681C50.8662 339.285 49.1268 338.562 47.8446 337.278C46.5625 335.993 45.8424 334.253 45.8424 332.438V6.79055C45.8582 4.98616 46.5853 3.26087 47.8657 1.98943C49.1461 0.717983 50.8765 0.00307575 52.681 -1.52588e-05H284.34C286.157 -1.52588e-05 287.899 0.721738 289.184 2.00647C290.469 3.29119 291.191 5.03366 291.191 6.85054V332.438C291.191 334.255 290.469 335.997 289.184 337.282C287.899 338.567 286.157 339.288 284.34 339.288V339.288ZM52.681 0.239935C50.9457 0.243113 49.2826 0.934666 48.0567 2.1628C46.8308 3.39094 46.1423 5.0553 46.1423 6.79055V332.438C46.1423 334.173 46.8308 335.837 48.0567 337.066C49.2826 338.294 50.9457 338.985 52.681 338.988H284.34C286.076 338.985 287.741 338.294 288.969 337.066C290.196 335.839 290.888 334.174 290.891 332.438V6.79055C290.888 5.05419 290.196 3.38986 288.969 2.16207C287.741 0.934276 286.076 0.243106 284.34 0.239935H52.681Z" fill="#EBEBEB"/>
<path d="M543.857 339.288H312.186C310.37 339.285 308.63 338.562 307.346 337.278C306.062 335.994 305.339 334.254 305.336 332.438V6.79055C305.355 4.98507 306.084 3.25979 307.367 1.98868C308.649 0.717564 310.381 0.00304204 312.186 -1.52588e-05H543.857C545.66 0.00622882 547.387 0.722531 548.665 1.99364C549.943 3.26474 550.668 4.98824 550.684 6.79055V332.438C550.684 334.251 549.965 335.989 548.686 337.273C547.406 338.558 545.67 339.282 543.857 339.288V339.288ZM312.186 0.239935C310.45 0.243106 308.785 0.934276 307.558 2.16207C306.33 3.38986 305.639 5.05419 305.636 6.79055V332.438C305.639 334.174 306.33 335.839 307.558 337.066C308.785 338.294 310.45 338.985 312.186 338.988H543.857C545.594 338.985 547.258 338.294 548.486 337.066C549.714 335.839 550.405 334.174 550.408 332.438V6.79055C550.405 5.05419 549.714 3.38986 548.486 2.16207C547.258 0.934276 545.594 0.243106 543.857 0.239935H312.186Z" fill="#EBEBEB"/>
<path d="M521.806 232.583H497.811V392.929H521.806V232.583Z" fill="#E6E6E6"/>
<path d="M515.483 392.929H521.794V371.094H508.873L515.483 392.929Z" fill="#F0F0F0"/>
<path d="M300.609 232.583H276.614V392.929H300.609V232.583Z" fill="#E6E6E6"/>
<path d="M521.794 232.583H295.09V379.528H521.794V232.583Z" fill="#F0F0F0"/>
<path d="M517.499 279.997H299.385V238.498H517.499V279.997ZM300.585 278.797H516.299V239.697H300.585V278.797Z" fill="#E6E6E6"/>
<path d="M479.107 251.623H342.024C335.869 251.623 330.026 246.644 325.743 237.874H495.375C491.14 246.644 485.262 251.623 479.107 251.623Z" fill="#E6E6E6"/>
<path d="M301.4 392.929H295.09V371.094H308.011L301.4 392.929Z" fill="#F0F0F0"/>
<path d="M517.499 326.811H299.385V285.312H517.499V326.811ZM300.585 325.611H516.299V286.512H300.585V325.611Z" fill="#E6E6E6"/>
<path d="M479.107 298.437H342.024C335.869 298.437 330.026 293.458 325.743 284.688H495.375C491.14 293.458 485.262 298.437 479.107 298.437Z" fill="#E6E6E6"/>
<path d="M517.499 373.613H299.385V332.114H517.499V373.613ZM300.585 372.413H516.299V333.314H300.585V372.413Z" fill="#E6E6E6"/>
<path d="M479.107 345.239H342.024C335.869 345.239 330.026 340.272 325.743 331.49H495.375C491.14 340.272 485.262 345.239 479.107 345.239Z" fill="#E6E6E6"/>
<path d="M169.812 194.575L189.008 210.82C188.036 328.611 192.367 334.993 192.463 355.257H170.508C167.461 256.662 158.834 219.878 169.812 194.575Z" fill="#E0E0E0"/>
<path d="M179.434 390.35C148.541 390.35 122.47 377.812 116.135 360.86C114.527 356.189 112.308 351.752 109.537 347.663L109.045 346.979H249.823L249.343 347.663C246.572 351.752 244.353 356.189 242.745 360.86C236.35 377.812 210.34 390.35 179.434 390.35Z" fill="#E6E6E6"/>
<path d="M250.111 351.238H108.757C106.837 351.248 104.969 350.618 103.448 349.447C101.926 348.275 100.839 346.63 100.359 344.771V344.771C100.021 343.491 99.9829 342.151 100.248 340.854C100.513 339.557 101.073 338.339 101.886 337.294C102.698 336.249 103.741 335.406 104.933 334.83C106.125 334.254 107.433 333.961 108.757 333.974H250.111C251.43 333.97 252.731 334.27 253.916 334.85C255.1 335.43 256.135 336.274 256.941 337.318C257.746 338.362 258.302 339.577 258.563 340.869C258.825 342.161 258.786 343.496 258.449 344.771V344.771C257.975 346.622 256.898 348.262 255.388 349.433C253.879 350.604 252.022 351.239 250.111 351.238V351.238Z" fill="#F5F5F5"/>
<path d="M181.162 236.35C184.029 205.637 202.277 204.617 246.74 234.011C228.324 307.687 170.364 351.838 181.162 236.35Z" fill="#E0E0E0"/>
<path d="M174.539 190.22C169.308 163.622 195.283 127.077 240.081 140.766C243.021 210.988 194.227 290.447 174.539 190.22Z" fill="#E0E0E0"/>
<path d="M198.03 185.829C204.665 152.536 163.873 95.4399 122.506 102.914C91.8646 152.164 167.185 340.44 198.03 185.829Z" fill="#E0E0E0"/>
<path d="M181.57 236.602C166.129 190.184 119.003 176.879 88.8652 229.572C135.187 314.622 218.786 348.467 181.57 236.602Z" fill="#E0E0E0"/>
<path d="M337.273 24.9427V205.709H499.239V24.9427H337.273Z" fill="#EBEBEB"/>
<path d="M335.797 24.9427V205.709H337.261V24.9427H335.797Z" fill="#E0E0E0"/>
<path d="M487.229 36.9402H349.258V193.711H487.229V36.9402Z" fill="#F5F5F5"/>
<path d="M399.54 32.5371H360.68V86.9216H399.54V32.5371Z" fill="white"/>
<path d="M446.018 32.5491H407.17L404.375 86.9337H443.222L446.018 32.5491Z" fill="white"/>
<path d="M398.868 94.876H360.008L357.213 149.273H396.073L398.868 94.876Z" fill="white"/>
<path d="M491.418 33.4084L452.607 31.7071L450.226 86.0395L489.036 87.7408L491.418 33.4084Z" fill="white"/>
<path d="M449.958 106.233L411.127 107.358L412.702 161.72L451.534 160.595L449.958 106.233Z" fill="white"/>
<path d="M67.3418 40.1435H254.346C255.355 40.1435 256.322 39.7428 257.036 39.0296C257.749 38.3164 258.15 37.349 258.15 36.3403V36.3403C258.15 35.8414 258.051 35.3475 257.86 34.8867C257.669 34.426 257.388 34.0075 257.035 33.6553C256.682 33.3031 256.262 33.0241 255.801 32.8343C255.34 32.6444 254.845 32.5475 254.346 32.5491H67.3418C66.3425 32.5586 65.3875 32.9622 64.6842 33.6722C63.981 34.3822 63.5865 35.341 63.5866 36.3403V36.3403C63.5865 37.3407 63.9806 38.3009 64.6835 39.0128C65.3864 39.7246 66.3415 40.1309 67.3418 40.1435Z" fill="#E0E0E0"/>
<path d="M67.3418 56.2441H254.346C255.355 56.2441 256.322 55.8434 257.036 55.1302C257.749 54.417 258.15 53.4496 258.15 52.4409V52.4409C258.15 51.4323 257.749 50.4649 257.036 49.7517C256.322 49.0384 255.355 48.6377 254.346 48.6377H67.3418C66.3415 48.6503 65.3864 49.0566 64.6835 49.7685C63.9806 50.4804 63.5865 51.4405 63.5866 52.4409C63.5865 53.4413 63.9806 54.4015 64.6835 55.1134C65.3864 55.8252 66.3415 56.2315 67.3418 56.2441V56.2441Z" fill="#E0E0E0"/>
<path d="M254.358 64.7383H67.3419C65.2414 64.7383 63.5387 66.4384 63.5387 68.5355C63.5387 70.6327 65.2414 72.3327 67.3419 72.3327H254.358C256.459 72.3327 258.162 70.6327 258.162 68.5355C258.162 66.4384 256.459 64.7383 254.358 64.7383Z" fill="#E0E0E0"/>
<path d="M82.6746 40.1435H269.703C270.206 40.1499 270.705 40.0561 271.171 39.8677C271.638 39.6793 272.062 39.4 272.419 39.046C272.777 38.6921 273.06 38.2705 273.253 37.806C273.445 37.3415 273.544 36.8433 273.542 36.3403V36.3403C273.544 35.842 273.447 35.3483 273.257 34.8876C273.067 34.4269 272.788 34.0084 272.435 33.656C272.083 33.3036 271.664 33.0245 271.204 32.8345C270.743 32.6445 270.249 32.5475 269.751 32.5491H82.6746C82.1757 32.5475 81.6814 32.6444 81.2201 32.8343C80.7587 33.0241 80.3393 33.3031 79.986 33.6553C79.6327 34.0075 79.3524 34.426 79.1611 34.8867C78.9698 35.3475 78.8714 35.8414 78.8714 36.3403V36.3403C78.8714 37.349 79.2721 38.3164 79.9853 39.0296C80.6985 39.7428 81.6659 40.1435 82.6746 40.1435V40.1435Z" fill="#F5F5F5"/>
<path d="M82.6746 56.2441H269.703C270.206 56.2505 270.705 56.1567 271.171 55.9683C271.638 55.7799 272.062 55.5006 272.419 55.1466C272.777 54.7926 273.06 54.3711 273.253 53.9066C273.445 53.4421 273.544 52.9439 273.542 52.4409V52.4409C273.544 51.942 273.447 51.4478 273.257 50.9864C273.067 50.5251 272.788 50.1057 272.436 49.7524C272.084 49.3991 271.665 49.1187 271.205 48.9275C270.744 48.7362 270.25 48.6377 269.751 48.6377H82.6746C81.6659 48.6377 80.6985 49.0384 79.9853 49.7517C79.2721 50.4649 78.8714 51.4323 78.8714 52.4409V52.4409C78.8714 53.4496 79.2721 54.417 79.9853 55.1302C80.6985 55.8434 81.6659 56.2441 82.6746 56.2441V56.2441Z" fill="#F5F5F5"/>
<path d="M269.691 64.7383H82.6746C80.5741 64.7383 78.8714 66.4384 78.8714 68.5355C78.8714 70.6327 80.5741 72.3327 82.6746 72.3327H269.691C271.792 72.3327 273.494 70.6327 273.494 68.5355C273.494 66.4384 271.792 64.7383 269.691 64.7383Z" fill="#F5F5F5"/>
<path d="M299.937 446.978C428.409 446.978 532.556 440.897 532.556 433.397C532.556 425.896 428.409 419.815 299.937 419.815C171.465 419.815 67.3178 425.896 67.3178 433.397C67.3178 440.897 171.465 446.978 299.937 446.978Z" fill="#F5F5F5"/>
<path d="M468.825 91.7087C466.498 91.2168 463.51 87.9175 463.174 82.3146C462.766 75.1162 470.553 74.7082 474.32 76.4239C478.087 78.1395 476 87.7375 468.825 91.7087Z" fill="#263238"/>
<path d="M527.901 405.67L518.939 408.706L510.564 388.118L519.515 385.083L527.901 405.67Z" fill="#FFC3BD"/>
<path d="M517.523 408.022L528.429 404.327C528.599 404.261 528.789 404.263 528.958 404.332C529.127 404.401 529.264 404.532 529.34 404.699L533.06 412.437C533.146 412.635 533.19 412.849 533.19 413.066C533.19 413.282 533.145 413.496 533.058 413.694C532.972 413.893 532.845 414.071 532.686 414.218C532.527 414.365 532.34 414.477 532.136 414.549C528.608 415.676 525.993 416.336 521.578 417.836C518.855 418.76 513.42 420.739 509.664 422.011C505.909 423.283 504.506 419.612 505.957 418.688C512.496 414.765 514.475 411.921 516.203 409.09C516.505 408.591 516.972 408.214 517.523 408.022V408.022Z" fill="#33A650"/>
<path opacity="0.2" d="M519.515 385.083L510.564 388.118L514.884 398.736L523.846 395.701L519.515 385.083Z" fill="black"/>
<path d="M471.176 126.369H478.375C475.975 128.409 476.191 183.261 478.219 209.596C472.472 209.956 461.938 207.952 461.938 207.952C461.938 207.952 460.931 166.897 471.176 126.369Z" fill="#448FF2"/>
<path opacity="0.4" d="M471.176 126.369H478.375C475.975 128.409 476.191 183.261 478.219 209.596C472.472 209.956 461.938 207.952 461.938 207.952C461.938 207.952 460.931 166.897 471.176 126.369Z" fill="black"/>
<path d="M467.35 423.679H457.824L456.396 401.627H465.91L467.35 423.679Z" fill="#FFC3BD"/>
<path opacity="0.2" d="M465.91 401.639H456.396L457.14 413.001H466.654L465.91 401.639Z" fill="black"/>
<path d="M451.753 409.114L468.741 408.97C468.741 408.97 465.886 346.907 467.685 317.357C468.237 308.359 468.129 295.894 470.661 282.48C473.876 265.576 477.991 247.28 481.387 232.967C484.986 217.874 483.09 207.196 483.09 207.196L449.629 205.217C449.629 205.217 440.979 284.4 440.967 313.41C440.943 343.656 451.753 409.114 451.753 409.114Z" fill="#263238"/>
<path d="M456.684 422.575H468.285C468.47 422.568 468.65 422.63 468.79 422.751C468.931 422.871 469.02 423.039 469.041 423.223L470.121 431.681C470.139 431.897 470.113 432.114 470.042 432.318C469.972 432.523 469.86 432.711 469.714 432.87C469.567 433.029 469.389 433.156 469.19 433.243C468.992 433.329 468.778 433.373 468.561 433.373C464.83 433.313 462.131 433.097 457.428 433.097C454.536 433.097 444.086 433.397 440.091 433.397C436.096 433.397 435.952 429.449 437.62 429.09C445.106 427.482 452.533 425.274 455.088 423.163C455.534 422.784 456.099 422.576 456.684 422.575Z" fill="#33A650"/>
<path d="M450.397 411.177H472.256L472.124 405.047L449.245 404.651L450.397 411.177Z" fill="#448FF2"/>
<path d="M453.372 424.231C452.742 424.285 452.113 424.115 451.597 423.751C451.432 423.603 451.311 423.413 451.248 423.201C451.184 422.99 451.18 422.765 451.237 422.551C451.25 422.416 451.298 422.286 451.376 422.175C451.453 422.064 451.558 421.974 451.681 421.915C452.784 421.363 455.676 423.259 456.012 423.475C456.046 423.5 456.072 423.536 456.085 423.577C456.098 423.618 456.097 423.662 456.084 423.703C456.07 423.745 456.047 423.783 456.016 423.815C455.984 423.846 455.946 423.869 455.904 423.883C455.075 424.088 454.226 424.205 453.372 424.231ZM452.173 422.263C452.07 422.262 451.967 422.282 451.873 422.323C451.825 422.35 451.785 422.388 451.756 422.434C451.727 422.48 451.709 422.533 451.705 422.587C451.671 422.731 451.674 422.882 451.713 423.024C451.753 423.167 451.829 423.297 451.933 423.403C452.413 423.847 453.66 423.907 455.304 423.583C454.351 422.946 453.277 422.513 452.149 422.311L452.173 422.263Z" fill="#448FF2"/>
<path d="M455.904 423.907C455.873 423.919 455.839 423.919 455.808 423.907C454.872 423.379 453.156 421.291 453.468 420.223C453.518 420.057 453.62 419.911 453.757 419.806C453.895 419.7 454.063 419.641 454.236 419.635C454.404 419.615 454.573 419.63 454.735 419.68C454.896 419.729 455.045 419.812 455.172 419.923C456.192 420.835 456.156 423.523 456.156 423.691C456.156 423.732 456.145 423.773 456.124 423.809C456.103 423.845 456.072 423.875 456.036 423.895C455.994 423.913 455.948 423.917 455.904 423.907V423.907ZM454.356 420.043H454.248C453.948 420.043 453.912 420.223 453.9 420.271C453.72 420.907 454.788 422.479 455.688 423.223C455.732 422.163 455.438 421.117 454.848 420.235C454.775 420.166 454.688 420.113 454.593 420.08C454.498 420.047 454.396 420.034 454.296 420.043H454.356Z" fill="#448FF2"/>
<path opacity="0.2" d="M470.661 282.528C473.876 265.624 477.991 247.328 481.386 233.015L477.679 225.552C469.725 235.51 468.513 265.996 470.661 282.528Z" fill="black"/>
<path d="M467.686 206.356C467.686 206.356 478.639 287.807 483.57 315.365C488.981 345.539 509.773 398.148 509.773 398.148L526.173 392.581C526.173 392.581 513.252 348.934 508.717 319.397C503.546 285.804 500.523 208.276 500.523 208.276L467.686 206.356Z" fill="#263238"/>
<path d="M507.973 399.144L528.537 392.173L526.449 386.354L504.806 393.277L507.973 399.144Z" fill="#448FF2"/>
<path d="M514.943 410.661C514.365 410.919 513.712 410.958 513.108 410.769C512.906 410.682 512.732 410.54 512.605 410.36C512.478 410.181 512.403 409.969 512.388 409.75C512.359 409.616 512.364 409.477 512.402 409.345C512.44 409.213 512.509 409.093 512.604 408.994C513.468 408.13 516.791 408.994 517.175 409.114C517.218 409.122 517.257 409.147 517.283 409.182C517.31 409.218 517.323 409.262 517.319 409.306C517.323 409.351 517.313 409.397 517.292 409.437C517.271 409.477 517.238 409.511 517.199 409.534C516.494 409.997 515.737 410.376 514.943 410.661ZM513.156 409.174C513.055 409.201 512.964 409.255 512.892 409.33C512.855 409.369 512.829 409.418 512.816 409.47C512.803 409.523 512.805 409.578 512.82 409.63C512.83 409.779 512.88 409.924 512.964 410.048C513.049 410.172 513.164 410.272 513.3 410.337C513.888 410.601 515.075 410.265 516.515 409.426C515.424 409.113 514.281 409.027 513.156 409.174V409.174Z" fill="#448FF2"/>
<path d="M517.151 409.558H517.091C516.047 409.342 513.78 407.89 513.72 406.786C513.713 406.611 513.762 406.438 513.859 406.292C513.956 406.145 514.096 406.033 514.26 405.97C514.413 405.903 514.578 405.868 514.746 405.868C514.913 405.868 515.079 405.903 515.232 405.97C516.431 406.51 517.319 409.15 517.355 409.258C517.375 409.295 517.386 409.336 517.386 409.378C517.386 409.42 517.375 409.461 517.355 409.498C517.332 409.528 517.3 409.55 517.263 409.561C517.226 409.572 517.187 409.571 517.151 409.558V409.558ZM514.464 406.366H514.368C514.104 406.498 514.104 406.642 514.104 406.702C514.104 407.35 515.64 408.526 516.731 408.946C516.443 408.19 515.795 406.702 514.992 406.366C514.908 406.331 514.818 406.313 514.728 406.313C514.637 406.313 514.547 406.331 514.464 406.366V406.366Z" fill="#448FF2"/>
<path d="M458.963 137.635C454.74 143.01 450.397 148.013 445.766 152.956C441.115 157.943 436.185 162.662 430.997 167.089C429.63 168.193 428.298 169.308 426.822 170.364C425.123 171.705 423.255 172.818 421.267 173.675C417.204 175.255 412.788 175.703 408.49 174.971C404.732 174.366 401.09 173.184 397.692 171.468C396.079 170.677 394.517 169.788 393.013 168.804C391.516 167.815 390.081 166.733 388.718 165.565L392.629 159.566C398.124 161.822 404.351 163.621 409.546 163.586C411.809 163.653 414.051 163.128 416.048 162.062C417.005 161.462 417.901 160.771 418.724 159.998C419.864 159.05 420.979 157.971 422.095 156.939C424.339 154.791 426.558 152.584 428.718 150.244C430.877 147.905 433.049 145.577 435.172 143.178C439.407 138.379 443.655 133.448 447.686 128.589L458.963 137.635Z" fill="#FFC3BD"/>
<path d="M457.884 145.061C454.108 149.359 449.978 153.332 445.538 156.939L442.359 153.988L431.009 143.466C434.154 137.478 438.376 132.122 443.463 127.665C452.389 119.711 462.971 122.242 464.182 132.176C464.638 135.871 461.615 140.67 457.884 145.061Z" fill="#448FF2"/>
<path opacity="0.2" d="M457.883 145.061C454.108 149.359 449.978 153.332 445.538 156.939L442.359 153.988C445.358 147.749 455.904 136.771 457.883 145.061Z" fill="black"/>
<path d="M445.874 219.29C450.385 221.185 457.284 222.445 463.174 220.621C462.778 211.707 462.91 161.438 471.788 126.321H477.043C474.644 128.277 467.325 193.963 469.725 221.293C479.791 223.393 499.575 221.785 502.694 218.702C502.298 214.407 500.126 192.955 500.426 177.982C500.558 171.6 500.846 164.557 501.506 157.167C502.386 146.598 504.062 136.11 506.521 125.793C506.521 125.793 500.522 124.198 493.648 123.166C492.292 122.962 490.912 122.782 489.557 122.638C482.389 121.798 475.178 121.369 467.961 121.354C467.073 121.354 466.198 121.426 465.346 121.486C461.285 121.781 457.246 122.326 453.252 123.118C453.252 123.118 440.403 166.297 445.874 219.29Z" fill="#448FF2"/>
<path opacity="0.2" d="M499.359 140.682C496.851 148.277 496.959 158.799 500.559 163.753C500.703 163.957 500.859 164.149 501.003 164.317C501.147 161.99 501.327 159.622 501.542 157.215C501.866 153.532 502.286 149.752 502.802 145.925L499.359 140.682Z" fill="black"/>
<path d="M488.297 98.2233C486.677 105.098 484.854 117.755 489.497 122.686C487.255 124.796 484.58 126.393 481.659 127.367C478.738 128.341 475.64 128.668 472.58 128.325C466.582 127.833 466.45 123.634 467.865 121.402C475.7 120.011 475.712 114.204 474.548 108.769L488.297 98.2233Z" fill="#FFC3BD"/>
<path opacity="0.2" d="M482.706 102.53L474.608 108.757C474.893 110.032 475.07 111.328 475.136 112.632C478.111 112.38 482.334 109.369 482.73 106.286C482.953 105.043 482.945 103.77 482.706 102.53Z" fill="black"/>
<path d="M489.497 86.7657C488.693 96.1957 488.693 101.751 483.834 106.382C476.516 113.34 465.022 108.469 463.006 98.9431C461.195 90.3529 462.814 76.3879 472.113 73.0646C474.195 72.3576 476.421 72.1824 478.589 72.5547C480.756 72.927 482.796 73.835 484.524 75.1964C486.251 76.5577 487.611 78.3291 488.479 80.3496C489.348 82.3701 489.698 84.5756 489.497 86.7657V86.7657Z" fill="#FFC3BD"/>
<path d="M488.957 92.7164C486.63 92.2365 483.63 88.9252 483.306 83.3224C482.886 76.1239 490.685 75.716 494.44 77.4317C498.195 79.1473 496.12 88.7813 488.957 92.7164Z" fill="#263238"/>
<path d="M484.542 80.3111C480.223 82.0147 463.414 81.4028 460.775 77.0957C458.136 72.7886 493.096 76.9398 484.542 80.3111Z" fill="#263238"/>
<path d="M486.245 79.1833C481.806 80.503 465.106 78.4635 462.85 73.9524C460.595 69.4414 495.076 76.4839 486.245 79.1833Z" fill="#263238"/>
<path d="M488.489 78.4874C483.954 79.3992 467.506 75.86 465.694 71.157C463.882 66.454 497.523 76.6638 488.489 78.4874Z" fill="#263238"/>
<path d="M491.416 78.9434C486.821 79.5192 470.481 73.3645 468.993 68.5416C467.506 63.7186 500.559 77.8036 491.416 78.9434Z" fill="#263238"/>
<path d="M493.204 77.9836C488.573 78.0915 473 71.7209 472.005 66.7779C471.009 61.835 502.418 77.7196 493.204 77.9836Z" fill="#263238"/>
<path d="M493.732 77.8996C489.917 77.1677 476.264 68.9135 476.683 64.7023C477.151 59.9873 501.398 79.3633 493.732 77.8996Z" fill="#263238"/>
<path d="M493.42 94.1561C493.139 95.2875 492.633 96.3507 491.932 97.2824C491.231 98.214 490.35 98.9951 489.341 99.579C486.63 101.127 484.434 98.8711 484.542 95.9078C484.542 93.2323 486.078 89.2132 489.137 88.8773C489.805 88.8219 490.476 88.9303 491.092 89.1932C491.708 89.456 492.251 89.8653 492.673 90.3855C493.095 90.9057 493.383 91.5211 493.514 92.1782C493.644 92.8353 493.612 93.5143 493.42 94.1561V94.1561Z" fill="#FFC3BD"/>
<path d="M475.1 88.7813C475.1 89.5491 474.656 90.149 474.152 90.137C473.648 90.125 473.264 89.4651 473.288 88.6973C473.312 87.9294 473.72 87.3176 474.224 87.3416C474.728 87.3656 475.1 87.9774 475.1 88.7813Z" fill="#263238"/>
<path d="M466.486 88.3374C466.486 89.1052 466.042 89.7171 465.538 89.6931C465.034 89.6691 464.65 89.0212 464.674 88.2534C464.698 87.4855 465.106 86.8857 465.61 86.9097C466.114 86.9337 466.498 87.5815 466.486 88.3374Z" fill="#263238"/>
<path d="M469.221 88.8532C468.254 91.1561 466.97 93.3124 465.406 95.2599C465.908 95.6544 466.49 95.9358 467.111 96.0848C467.732 96.2339 468.378 96.2472 469.005 96.1237L469.221 88.8532Z" fill="#FF5652"/>
<path d="M472.22 98.3792C471.889 98.4035 471.556 98.4035 471.225 98.3792C471.195 98.3793 471.166 98.3733 471.139 98.3617C471.112 98.3501 471.088 98.3332 471.068 98.3118C471.047 98.2905 471.032 98.2652 471.022 98.2376C471.011 98.21 471.007 98.1806 471.009 98.1513C471.009 98.1219 471.015 98.0928 471.026 98.0658C471.038 98.0388 471.055 98.0144 471.076 97.9942C471.097 97.974 471.123 97.9583 471.15 97.9482C471.178 97.9381 471.207 97.9337 471.237 97.9353C472.183 98.0028 473.131 97.8419 474.002 97.466C474.872 97.0902 475.64 96.5105 476.24 95.7758C476.282 95.7361 476.338 95.7141 476.396 95.7141C476.453 95.7141 476.509 95.7361 476.551 95.7758C476.599 95.8136 476.631 95.8671 476.642 95.9266C476.653 95.9861 476.642 96.0475 476.611 96.0997C476.073 96.7585 475.406 97.3005 474.651 97.6924C473.896 98.0844 473.069 98.3181 472.22 98.3792V98.3792Z" fill="#263238"/>
<path d="M477.871 86.0578C477.79 86.0661 477.709 86.0527 477.635 86.019C477.561 85.9852 477.498 85.9324 477.451 85.8659C477.142 85.386 476.722 84.9866 476.228 84.7008C475.734 84.415 475.178 84.251 474.608 84.2222C474.488 84.2224 474.372 84.1764 474.285 84.0938C474.198 84.0112 474.146 83.8982 474.14 83.7783C474.137 83.7196 474.146 83.6609 474.166 83.6057C474.186 83.5505 474.217 83.5 474.258 83.4573C474.298 83.4146 474.347 83.3806 474.401 83.3574C474.455 83.3342 474.513 83.3223 474.572 83.3224C475.289 83.3522 475.99 83.5515 476.615 83.9039C477.241 84.2563 477.774 84.7519 478.171 85.35C478.239 85.4482 478.268 85.5688 478.25 85.687C478.232 85.8053 478.169 85.9122 478.075 85.9859C478.016 86.0289 477.945 86.0539 477.871 86.0578V86.0578Z" fill="#263238"/>
<path d="M462.827 85.182C462.745 85.2104 462.656 85.2104 462.575 85.182C462.521 85.1555 462.473 85.1183 462.434 85.0727C462.395 85.0272 462.366 84.9743 462.348 84.9171C462.33 84.8599 462.324 84.7997 462.33 84.7401C462.336 84.6805 462.354 84.6227 462.383 84.5702C462.694 83.9328 463.156 83.381 463.729 82.9628C464.302 82.5446 464.968 82.2727 465.67 82.1707C465.79 82.1639 465.908 82.2037 466 82.282C466.092 82.3602 466.15 82.4707 466.162 82.5906C466.168 82.6489 466.163 82.708 466.147 82.7645C466.131 82.8209 466.103 82.8735 466.067 82.9192C466.03 82.965 465.984 83.003 465.933 83.031C465.881 83.059 465.824 83.0765 465.766 83.0825C465.209 83.1636 464.681 83.3813 464.229 83.7163C463.776 84.0512 463.414 84.493 463.174 85.0021C463.134 85.0567 463.082 85.1013 463.021 85.1325C462.961 85.1637 462.894 85.1807 462.827 85.182V85.182Z" fill="#263238"/>
<path d="M511.932 132.164C513.408 135.487 514.56 138.655 515.747 141.93C516.935 145.205 517.955 148.505 518.915 151.864C520.921 158.708 522.251 165.732 522.886 172.836L523.018 175.643V176.447V177.551C523.018 178.27 522.862 178.882 522.766 179.53C522.319 181.661 521.609 183.728 520.654 185.685C519.041 189.007 517.117 192.168 514.907 195.127C510.769 200.722 506.118 205.92 501.014 210.652L495.58 205.997C499.071 200.49 502.562 194.815 505.537 189.2C506.98 186.543 508.227 183.784 509.269 180.946C509.661 179.831 509.931 178.676 510.072 177.503C510.072 177.323 510.072 177.107 510.072 176.987C510.067 176.939 510.067 176.891 510.072 176.843V176.663V176.387L509.797 174.191C508.756 168.005 507.24 161.908 505.262 155.955C504.302 152.896 503.234 149.836 502.154 146.789C501.074 143.742 499.875 140.658 498.759 137.815L511.932 132.164Z" fill="#FFC3BD"/>
<path d="M509.353 127.233C517.043 132.26 520.606 152.74 520.606 152.74L502.49 160.562C498.185 154.568 495.17 147.745 493.636 140.526C491.069 127.485 501.494 122.074 509.353 127.233Z" fill="#448FF2"/>
<path d="M500.175 204.605L489.005 204.173L494.884 214.971C494.884 214.971 502.982 212.739 502.178 208.312L500.175 204.605Z" fill="#FFC3BD"/>
<path d="M483.054 209.332L488.321 217.994L494.884 214.923L489.005 204.173L483.054 209.332Z" fill="#FFC3BD"/>
<path d="M393.025 159.926L384.747 154.743L383.367 166.741C383.367 166.741 391.358 169.608 393.253 165.541L393.025 159.926Z" fill="#FFC3BD"/>
<path d="M376.589 156.471L374.297 165.469L383.367 166.789L384.747 154.743L376.589 156.471Z" fill="#FFC3BD"/>
<path d="M314.118 95.2359C307.207 102.542 296.853 121.51 304.796 128.169C307.563 129.361 310.539 129.993 313.551 130.028C316.564 130.063 319.554 129.501 322.348 128.373L320.488 100.983C320.488 100.983 319.517 90.4369 314.118 95.2359Z" fill="#263238"/>
<path d="M308.611 158.031C307.671 161.781 306.541 165.48 305.228 169.116C303.932 172.716 302.444 176.255 300.812 179.746C299.187 183.276 297.323 186.691 295.234 189.968C294.178 191.624 293.038 193.243 291.838 194.839C291.238 195.631 290.639 196.423 289.967 197.238C289.643 197.622 289.295 197.994 288.959 198.378L288.455 198.954C288.121 199.32 287.76 199.661 287.375 199.974C286.498 200.671 285.484 201.178 284.4 201.462C283.412 201.708 282.388 201.777 281.377 201.665C279.894 201.484 278.46 201.02 277.153 200.298C275.215 199.216 273.421 197.894 271.815 196.363C268.975 193.677 266.355 190.769 263.98 187.664C259.402 181.682 255.264 175.374 251.599 168.792L255.978 165.949C258.209 168.768 260.501 171.648 262.84 174.419C265.18 177.191 267.531 179.95 270.039 182.541C272.371 185.118 274.885 187.524 277.561 189.74C278.691 190.686 279.932 191.492 281.257 192.139C281.577 192.303 281.929 192.397 282.288 192.415C282.288 192.415 282.216 192.415 282.012 192.415C281.817 192.46 281.63 192.537 281.461 192.643C281.443 192.67 281.418 192.691 281.389 192.703V192.703L281.772 192.211C282.036 191.888 282.3 191.576 282.552 191.24C283.056 190.568 283.548 189.896 284.028 189.188C284.976 187.796 285.888 186.357 286.739 184.845C288.443 181.858 289.967 178.702 291.406 175.499C292.846 172.296 294.094 168.972 295.27 165.625C296.445 162.278 297.525 158.811 298.425 155.583L308.611 158.031Z" fill="#FF8B7B"/>
<path d="M316.133 160.694C315.018 163.825 311.226 169.44 308.251 173.591C306.08 176.591 304.352 178.822 304.352 178.822L302.636 177.623L288.431 167.965C291.107 159.842 294.658 151.168 304.568 148.769C310.807 147.281 318.125 155.103 316.133 160.694Z" fill="#448FF2"/>
<g opacity="0.5">
<path opacity="0.5" d="M316.133 160.694C315.018 163.825 311.226 169.44 308.251 173.591C306.08 176.591 304.352 178.822 304.352 178.822L302.636 177.623L288.431 167.965C291.107 159.842 294.658 151.168 304.568 148.769C310.807 147.281 318.125 155.103 316.133 160.694Z" fill="white"/>
</g>
<path opacity="0.3" d="M308.251 173.591C306.08 176.591 304.352 178.822 304.352 178.822L302.636 177.623C303.488 174.383 305.036 169.308 307.291 167.293C308.055 169.3 308.383 171.447 308.251 173.591V173.591Z" fill="black"/>
<path d="M256.926 168.157L257.394 159.23L246.716 160.718C246.716 160.718 249.727 167.569 252.907 170.436L256.926 168.157Z" fill="#FF8B7B"/>
<path d="M253.938 155.511L246.212 158.091L246.716 160.718L257.394 159.23L253.938 155.511Z" fill="#FF8B7B"/>
<path d="M342.768 423.415L332.654 424.399L325.923 400.68L336.037 399.708L342.768 423.415Z" fill="#FF8B7B"/>
<path d="M415.76 400.608L406.39 404.915L393.397 384.603L402.767 380.296L415.76 400.608Z" fill="#FF8B7B"/>
<path d="M403.595 401.759L413.913 396.396C414.089 396.304 414.294 396.279 414.488 396.325C414.682 396.371 414.852 396.486 414.968 396.648L420.379 404.159C420.508 404.354 420.595 404.574 420.633 404.804C420.671 405.035 420.661 405.271 420.602 405.497C420.543 405.724 420.437 405.935 420.291 406.118C420.146 406.301 419.963 406.451 419.755 406.558C416.156 408.358 414.309 409.054 409.786 411.357C407.014 412.809 401.075 416.432 397.236 418.424C393.397 420.415 391.237 416.744 392.629 415.568C399 410.289 401.027 406.354 402.395 403.067C402.642 402.512 403.063 402.053 403.595 401.759Z" fill="#F23838"/>
<path d="M330.842 421.315H343.128C343.347 421.318 343.559 421.392 343.732 421.526C343.905 421.66 344.03 421.848 344.087 422.059L346.751 431.741C346.817 431.969 346.828 432.209 346.784 432.443C346.74 432.676 346.641 432.896 346.496 433.084C346.352 433.272 346.164 433.423 345.95 433.525C345.736 433.628 345.501 433.678 345.263 433.673C340.944 433.673 338.905 433.673 333.518 433.673H317.021C312.558 433.673 311.622 429.149 313.422 428.742C321.712 426.906 326.499 424.374 329.019 421.963C329.264 421.738 329.551 421.565 329.865 421.454C330.178 421.343 330.51 421.296 330.842 421.315V421.315Z" fill="#F23838"/>
<path opacity="0.2" d="M325.923 400.68L329.403 412.905H339.792L336.049 399.708L325.923 400.68Z" fill="black"/>
<path opacity="0.2" d="M402.779 380.296L393.397 384.603L400.103 395.077L409.474 390.77L402.779 380.296Z" fill="black"/>
<path d="M356.445 205.313L314.898 210.628C297.429 151.84 301.82 149.704 301.82 149.704C301.82 149.704 308.755 147.305 315.834 145.457C316.901 145.181 317.981 144.917 319.037 144.677C325.263 143.435 331.57 142.633 337.909 142.278L340.704 142.098C345.755 141.876 350.815 141.956 355.857 142.338C355.089 149.908 354.537 156.315 354.189 161.918C353.722 169.212 353.578 175.115 353.686 180.226C353.939 188.648 354.862 197.037 356.445 205.313V205.313Z" fill="#448FF2"/>
<g opacity="0.5">
<path opacity="0.5" d="M356.445 205.313L314.898 210.628C297.429 151.84 301.82 149.704 301.82 149.704C301.82 149.704 308.755 147.305 315.834 145.457C316.901 145.181 317.981 144.917 319.037 144.677C325.263 143.435 331.57 142.633 337.909 142.278L340.704 142.098C345.755 141.876 350.815 141.956 355.857 142.338C355.089 149.908 354.537 156.315 354.189 161.918C353.722 169.212 353.578 175.115 353.686 180.226C353.939 188.648 354.862 197.037 356.445 205.313V205.313Z" fill="white"/>
</g>
<path opacity="0.3" d="M353.685 180.202C350.878 174.203 349.51 161.114 351.286 156.627L354.189 161.894C353.721 169.164 353.577 175.067 353.685 180.202Z" fill="black"/>
<path d="M333.338 129.693C333.722 134.828 334.933 140.058 337.909 142.254C333.251 143.648 328.927 145.979 325.203 149.105C320.105 146.417 319.049 144.677 319.049 144.677C325.611 142.194 325.155 137.683 322.372 130.436L327.495 127.677C327.937 127.189 328.512 126.841 329.15 126.677C329.788 126.512 330.46 126.54 331.082 126.754C331.705 126.969 332.251 127.362 332.652 127.885C333.053 128.407 333.291 129.036 333.338 129.693Z" fill="#FF8B7B"/>
<path d="M320.333 140.574C318.521 139.747 315.126 144.234 314.67 145.433C314.214 146.633 316.061 147.005 315.87 148.589C315.678 150.172 316.733 151.576 319.865 152.812C322.996 154.047 329.199 153.304 331.262 150.232C333.326 147.161 346.187 144.701 344.388 141.642C342.588 138.583 341.196 140.298 339.924 137.239C338.653 134.18 333.266 137.107 331.526 138.703C329.787 140.298 327.963 144.042 320.333 140.574Z" fill="#448FF2"/>
<path opacity="0.2" d="M327.531 127.665C327.945 127.207 328.478 126.873 329.071 126.699C329.663 126.525 330.292 126.518 330.889 126.68C331.485 126.841 332.024 127.164 332.448 127.613C332.872 128.063 333.163 128.62 333.29 129.225C331.346 133.154 328.209 136.367 324.328 138.403C324.19 135.647 323.539 132.941 322.408 130.424L327.531 127.665Z" fill="black"/>
<path d="M341.304 113.592C338.761 123.514 337.897 127.761 331.838 131.936C322.72 138.211 311.094 132.92 310.626 122.446C310.207 113.016 314.442 98.3792 325.023 96.2797C327.357 95.803 329.773 95.9308 332.043 96.6512C334.313 97.3715 336.361 98.6603 337.992 100.395C339.624 102.13 340.784 104.253 341.364 106.563C341.944 108.873 341.923 111.292 341.304 113.592V113.592Z" fill="#FF8B7B"/>
<path d="M341.784 123.358C341.374 124.249 340.792 125.05 340.071 125.715C339.351 126.38 338.506 126.896 337.585 127.233C335.114 128.133 333.686 125.961 334.214 123.538C334.694 121.354 336.553 118.247 339.109 118.415C339.664 118.462 340.2 118.646 340.667 118.951C341.133 119.256 341.517 119.673 341.782 120.164C342.048 120.654 342.187 121.203 342.187 121.76C342.187 122.318 342.049 122.867 341.784 123.358Z" fill="#FF8B7B"/>
<path d="M316.265 102.206C321.136 101.211 332.834 102.038 333.854 106.825C329.691 110.713 331.694 123.238 327.363 126.909C333.686 132.908 346.223 132.968 346.223 132.968C346.223 132.968 358.616 99.291 343.488 97.6474C340.308 89.1292 323.092 88.3614 314.118 95.2479" fill="#263238"/>
<path d="M339.528 107.293H333.53C333.32 107.293 333.118 107.21 332.97 107.061C332.821 106.913 332.738 106.712 332.738 106.502C332.741 106.292 332.825 106.093 332.973 105.945C333.121 105.797 333.321 105.713 333.53 105.71H339.528C339.738 105.71 339.94 105.793 340.088 105.942C340.237 106.09 340.32 106.292 340.32 106.502C340.322 106.606 340.303 106.71 340.263 106.806C340.224 106.903 340.166 106.991 340.092 107.065C340.018 107.139 339.93 107.197 339.833 107.236C339.737 107.276 339.633 107.295 339.528 107.293V107.293Z" fill="#F23838"/>
<path d="M314.898 210.64C314.898 210.64 298.941 290.939 304.256 321.952C309.355 351.682 325.036 409.366 325.036 409.366L342.828 408.91C342.828 408.91 331.658 342.072 331.442 317.225C331.07 276.014 345.323 206.74 345.323 206.74L314.898 210.64Z" fill="#448FF2"/>
<path d="M323.92 410.289L344.507 409.726L343.236 402.971L320.932 404.111L323.92 410.289Z" fill="#263238"/>
<path opacity="0.3" d="M329.391 220.37L336.505 207.868L345.323 206.74C345.323 206.74 338.833 238.246 334.729 271.395C329.798 255.546 328.059 227.664 329.391 220.37Z" fill="black"/>
<path d="M323.932 209.596C323.932 209.596 336.541 277.525 347.783 316.313C356.853 347.639 394.933 390.326 394.933 390.326L408.394 383.571C408.394 383.571 382.839 336.277 376.505 314.994C356.241 246.896 372.09 222.145 356.397 205.313L323.932 209.596Z" fill="#448FF2"/>
<path d="M395.077 394.477L410.926 386.294L408.55 379.54L391.046 389.258L395.077 394.477Z" fill="#263238"/>
<path d="M356.757 202.757L359.156 206.236C359.336 206.5 359.036 206.848 358.557 206.908L314.97 212.499C314.598 212.499 314.262 212.403 314.214 212.163L313.362 208.492C313.362 208.24 313.602 207.976 314.01 207.928L356.085 202.529C356.207 202.509 356.332 202.52 356.449 202.56C356.567 202.599 356.672 202.667 356.757 202.757V202.757Z" fill="#448FF2"/>
<path opacity="0.4" d="M356.757 202.757L359.156 206.236C359.336 206.5 359.036 206.848 358.557 206.908L314.97 212.499C314.598 212.499 314.262 212.403 314.214 212.163L313.362 208.492C313.362 208.24 313.602 207.976 314.01 207.928L356.085 202.529C356.207 202.509 356.332 202.52 356.449 202.56C356.567 202.599 356.672 202.667 356.757 202.757V202.757Z" fill="white"/>
<path d="M351.706 208.228L352.834 208.072C353.061 208.072 353.217 207.916 353.181 207.772L351.982 202.973C351.982 202.829 351.742 202.745 351.514 202.769L350.386 202.913C350.17 202.913 350.014 203.081 350.038 203.225L351.238 208.024C351.274 208.156 351.526 208.252 351.706 208.228Z" fill="#263238"/>
<path d="M318.149 212.523L319.277 212.379C319.493 212.379 319.649 212.211 319.625 212.079L318.425 207.28C318.425 207.136 318.173 207.04 317.957 207.076L316.829 207.22C316.601 207.22 316.445 207.388 316.481 207.52L317.681 212.319C317.705 212.463 317.933 212.559 318.149 212.523Z" fill="#263238"/>
<path d="M334.922 210.376L336.049 210.232C336.277 210.232 336.433 210.064 336.397 209.92L335.257 205.121C335.257 204.989 335.006 204.893 334.79 204.917L333.662 205.061C333.434 205.061 333.278 205.229 333.314 205.373L334.454 210.172C334.49 210.316 334.73 210.4 334.922 210.376Z" fill="#263238"/>
<path d="M324.316 113.172C324.16 113.988 323.596 114.564 323.116 114.456C322.636 114.348 322.276 113.616 322.432 112.8C322.588 111.984 323.152 111.397 323.632 111.504C324.112 111.612 324.472 112.356 324.316 113.172Z" fill="#263238"/>
<path d="M315.078 111.397C314.922 112.212 314.37 112.788 313.878 112.68C313.386 112.572 313.038 111.84 313.194 111.025C313.35 110.209 313.914 109.621 314.454 109.729C314.994 109.837 315.246 110.569 315.078 111.397Z" fill="#263238"/>
<path d="M314.634 109.813L312.774 108.877C312.774 108.877 313.482 110.605 314.634 109.813Z" fill="#263238"/>
<path d="M317.525 113.22C316.44 114.943 315.124 116.509 313.614 117.875C313.973 118.253 314.41 118.549 314.895 118.742C315.38 118.934 315.9 119.019 316.421 118.991L317.525 113.22Z" fill="#FF5652"/>
<path d="M319.541 123.058C319.501 123.033 319.47 122.997 319.451 122.954C319.432 122.912 319.425 122.864 319.433 122.818C319.444 122.753 319.481 122.695 319.535 122.657C319.589 122.619 319.656 122.604 319.721 122.614C320.732 122.835 321.781 122.813 322.782 122.55C323.783 122.288 324.707 121.791 325.479 121.102C325.526 121.058 325.589 121.033 325.653 121.033C325.718 121.033 325.78 121.058 325.827 121.102C325.851 121.124 325.869 121.15 325.882 121.179C325.895 121.208 325.901 121.239 325.901 121.27C325.901 121.302 325.895 121.333 325.882 121.362C325.869 121.391 325.851 121.417 325.827 121.438C325.002 122.196 324.006 122.742 322.924 123.03C321.841 123.319 320.705 123.34 319.613 123.094C319.586 123.09 319.56 123.077 319.541 123.058Z" fill="#263238"/>
<path d="M327.531 110.653C327.457 110.607 327.398 110.54 327.363 110.461C327.109 109.903 326.726 109.414 326.247 109.032C325.767 108.65 325.204 108.388 324.604 108.265C324.539 108.259 324.477 108.24 324.42 108.21C324.363 108.179 324.313 108.137 324.273 108.087C324.232 108.037 324.203 107.979 324.185 107.916C324.168 107.854 324.163 107.789 324.172 107.725C324.19 107.598 324.255 107.482 324.356 107.402C324.456 107.322 324.583 107.283 324.711 107.293C325.477 107.429 326.198 107.75 326.813 108.226C327.427 108.703 327.916 109.321 328.239 110.029C328.297 110.145 328.308 110.28 328.267 110.403C328.227 110.527 328.139 110.63 328.023 110.689C327.944 110.724 327.858 110.74 327.772 110.733C327.686 110.727 327.603 110.699 327.531 110.653V110.653Z" fill="#263238"/>
<path d="M311.85 106.574V106.49C311.832 106.429 311.826 106.365 311.832 106.302C311.838 106.239 311.857 106.178 311.887 106.122C311.917 106.066 311.958 106.017 312.008 105.977C312.057 105.937 312.114 105.908 312.174 105.89C312.912 105.644 313.698 105.581 314.465 105.707C315.232 105.832 315.957 106.142 316.577 106.61C316.678 106.694 316.74 106.815 316.752 106.945C316.763 107.076 316.722 107.205 316.637 107.305C316.553 107.406 316.432 107.468 316.302 107.479C316.171 107.491 316.042 107.45 315.942 107.365C315.448 107.001 314.874 106.761 314.268 106.667C313.662 106.573 313.043 106.627 312.462 106.825C312.347 106.864 312.222 106.86 312.109 106.814C311.997 106.768 311.905 106.682 311.85 106.574V106.574Z" fill="#263238"/>
<path d="M360.128 152.812C361.496 154.287 362.635 155.631 363.799 157.095C364.963 158.559 366.079 159.986 367.17 161.462C369.318 164.437 371.346 167.461 373.169 170.688C375.067 173.882 376.762 177.191 378.244 180.598C378.64 181.45 378.964 182.338 379.324 183.201C379.684 184.065 380.02 184.941 380.32 185.841C380.62 186.741 380.932 187.58 381.243 188.576L381.675 190.184L381.987 191.78C382.522 195.774 382.381 199.83 381.567 203.777C380.818 207.461 379.755 211.073 378.388 214.575C377.049 217.98 375.539 221.315 373.865 224.569C372.185 227.792 370.335 230.924 368.322 233.951L363.811 231.287C365.227 228.24 366.619 225.013 367.806 221.809C369.047 218.635 370.124 215.4 371.034 212.115C371.941 208.94 372.603 205.699 373.013 202.421C373.195 200.864 373.283 199.298 373.277 197.73C373.248 196.276 373.092 194.826 372.809 193.399L372.569 192.415L372.269 191.48C372.029 190.808 371.669 189.98 371.37 189.248C371.07 188.516 370.734 187.736 370.374 186.981C370.014 186.225 369.702 185.481 369.306 184.749C367.83 181.774 366.091 178.906 364.339 176.039C362.587 173.171 360.62 170.424 358.592 167.725C357.596 166.357 356.565 165.013 355.509 163.693C354.453 162.374 353.349 161.042 352.354 159.902L360.128 152.812Z" fill="#FF8B7B"/>
<path d="M365.923 228.408L357.644 232.451L366.139 239.086C366.139 239.086 369.822 234.647 369.666 230.363L365.923 228.408Z" fill="#FF8B7B"/>
<path d="M353.709 240.657L360.932 244.4L366.079 239.086L357.585 232.451L353.709 240.657Z" fill="#FF8B7B"/>
<path d="M355.857 142.314C361.004 143.01 368.778 157.383 368.778 157.383L355.689 170.244C355.689 170.244 345.659 158.811 345.923 152.128C346.163 146.453 349.294 141.438 355.857 142.314Z" fill="#448FF2"/>
<g opacity="0.5">
<path opacity="0.5" d="M355.857 142.314C361.004 143.01 368.778 157.383 368.778 157.383L355.689 170.244C355.689 170.244 345.659 158.811 345.923 152.128C346.163 146.453 349.294 141.438 355.857 142.314Z" fill="white"/>
</g>
<path d="M399.516 405.515C399.46 405.521 399.403 405.521 399.348 405.515C399.119 405.451 398.91 405.329 398.742 405.161C398.573 404.993 398.452 404.784 398.388 404.555C398.331 404.42 398.311 404.272 398.33 404.126C398.349 403.981 398.406 403.843 398.496 403.727C399.312 402.683 403.031 403.031 403.451 403.067C403.499 403.073 403.544 403.093 403.581 403.125C403.617 403.157 403.643 403.2 403.655 403.247C403.667 403.292 403.667 403.339 403.654 403.383C403.641 403.428 403.617 403.468 403.583 403.499C402.551 404.315 400.715 405.634 399.516 405.515ZM402.803 403.475C401.315 403.379 399.312 403.475 398.88 403.991C398.848 404.046 398.832 404.108 398.832 404.171C398.832 404.234 398.848 404.296 398.88 404.351C398.917 404.506 398.994 404.648 399.104 404.764C399.213 404.88 399.351 404.965 399.504 405.011C400.115 405.131 401.351 404.567 402.767 403.415L402.803 403.475Z" fill="#448FF2"/>
<path d="M403.115 403.439C401.915 403.259 399.516 402.239 399.24 401.183C399.184 400.998 399.194 400.798 399.268 400.619C399.342 400.439 399.477 400.291 399.648 400.2C399.798 400.086 399.973 400.009 400.159 399.976C400.344 399.943 400.535 399.954 400.716 400.008C402.167 400.368 403.559 402.995 403.619 403.103C403.64 403.142 403.651 403.185 403.651 403.229C403.651 403.273 403.64 403.316 403.619 403.355C403.595 403.39 403.563 403.418 403.525 403.437C403.487 403.455 403.445 403.464 403.403 403.463L403.115 403.439ZM400.5 400.464C400.4 400.446 400.297 400.449 400.198 400.472C400.1 400.495 400.006 400.537 399.924 400.596C399.672 400.776 399.672 400.931 399.708 401.039C399.912 401.735 401.711 402.671 402.947 402.923C402.443 402.071 401.471 400.692 400.548 400.524L400.5 400.464Z" fill="#448FF2"/>
<path d="M325.407 423.331C324.569 423.392 323.732 423.195 323.008 422.767C322.821 422.626 322.669 422.445 322.563 422.238C322.457 422.03 322.4 421.8 322.396 421.567C322.378 421.438 322.397 421.307 322.45 421.188C322.503 421.07 322.588 420.968 322.696 420.895C323.812 420.151 327.975 422.095 328.803 422.431C328.848 422.451 328.885 422.486 328.909 422.529C328.933 422.572 328.942 422.622 328.935 422.671C328.93 422.723 328.909 422.772 328.875 422.811C328.84 422.85 328.794 422.877 328.743 422.887C327.649 423.147 326.531 423.296 325.407 423.331V423.331ZM323.464 421.219C323.297 421.208 323.13 421.245 322.984 421.327C322.949 421.353 322.921 421.388 322.904 421.428C322.887 421.468 322.882 421.512 322.888 421.555C322.892 421.715 322.933 421.872 323.008 422.014C323.083 422.156 323.189 422.278 323.32 422.371C324.04 422.911 325.719 422.983 327.915 422.587C326.512 421.902 325.01 421.44 323.464 421.219V421.219Z" fill="#448FF2"/>
<path d="M328.731 422.911H328.635C327.255 422.347 324.472 420.115 324.628 418.952C324.628 418.7 324.832 418.388 325.467 418.316C327.867 418.028 328.923 422.443 328.971 422.623C328.982 422.669 328.979 422.716 328.965 422.761C328.95 422.805 328.923 422.845 328.887 422.875C328.84 422.904 328.785 422.917 328.731 422.911V422.911ZM325.683 418.772H325.527C325.264 418.772 325.132 418.88 325.108 419C325.024 419.671 326.943 421.399 328.359 422.203C328.011 421.111 327.123 418.772 325.659 418.772H325.683Z" fill="#448FF2"/>
<path d="M323.86 111.576L322.012 110.641C322.012 110.641 322.732 112.38 323.86 111.576Z" fill="#263238"/>
<path d="M140.178 423.523L149.812 423.379L152.02 401.039L142.398 401.183L140.178 423.523Z" fill="#B55B52"/>
<path d="M92.5005 423.559H102.134L105.914 401.255H96.2917L92.5005 423.559Z" fill="#B55B52"/>
<path d="M103.466 422.443H91.7207C91.53 422.444 91.3453 422.51 91.197 422.63C91.0487 422.75 90.9457 422.916 90.9048 423.103L88.9972 431.669C88.9539 431.877 88.9581 432.093 89.0096 432.299C89.061 432.506 89.1584 432.698 89.2944 432.862C89.4305 433.026 89.6017 433.157 89.7954 433.245C89.989 433.333 90.2001 433.377 90.4129 433.373C94.1921 433.313 96.9396 433.085 101.703 433.085C104.63 433.085 113.46 433.397 117.503 433.397C121.546 433.397 122.074 429.401 120.419 429.03C112.992 427.41 107.401 425.178 105.026 423.031C104.593 422.655 104.04 422.446 103.466 422.443Z" fill="#F2A007"/>
<path d="M149.728 422.311L139.207 422.479C139.017 422.478 138.833 422.544 138.686 422.664C138.539 422.785 138.439 422.952 138.403 423.139L136.627 431.729C136.581 431.937 136.583 432.153 136.634 432.36C136.684 432.567 136.782 432.76 136.919 432.923C137.055 433.087 137.228 433.217 137.423 433.303C137.618 433.389 137.83 433.429 138.043 433.421C141.834 433.301 147.317 432.989 152.08 432.917C157.659 432.833 162.482 433.061 169.008 432.917C172.967 432.857 173.999 428.85 172.344 428.514C164.785 426.978 158.63 426.894 152.056 422.983C151.356 422.55 150.551 422.317 149.728 422.311Z" fill="#F2A007"/>
<path d="M156.963 130.245C160.058 136.039 163.334 142.002 166.633 147.773C169.932 153.544 173.375 159.278 177.047 164.569C177.491 165.253 177.971 165.877 178.438 166.513L179.134 167.461L179.446 167.893L179.566 168.061C179.866 168.495 180.282 168.836 180.766 169.044C182.062 169.608 184.797 169.536 187.556 168.876C190.54 168.12 193.451 167.1 196.255 165.829C197.718 165.169 199.206 164.509 200.658 163.765C202.109 163.022 203.597 162.23 204.941 161.51L209.416 167.197C208.048 168.552 206.74 169.692 205.325 170.796C203.909 171.9 202.505 173.063 200.994 174.095C197.897 176.29 194.56 178.126 191.048 179.566C189.11 180.34 187.101 180.918 185.049 181.294C182.616 181.717 180.126 181.681 177.707 181.186C174.858 180.59 172.239 179.191 170.16 177.155C169.896 176.903 169.656 176.639 169.416 176.375L168.924 175.811L168.025 174.755C167.425 174.059 166.825 173.351 166.261 172.644C161.857 167.073 157.802 161.235 154.12 155.163C150.52 149.165 147.089 143.166 143.934 136.795L156.963 130.245Z" fill="#B65B52"/>
<path d="M139.807 130.532C137.203 139.363 155.487 163.442 155.487 163.442L173.963 151.588C170.495 143.953 166.215 136.712 161.198 129.993C153.568 120.311 142.65 120.839 139.807 130.532Z" fill="#448FF2"/>
<path opacity="0.2" d="M139.807 130.532C137.203 139.363 155.487 163.442 155.487 163.442L173.963 151.588C170.495 143.953 166.215 136.712 161.198 129.993C153.568 120.311 142.65 120.839 139.807 130.532Z" fill="white"/>
<path opacity="0.2" d="M151.036 140.898C154.827 142.518 160.406 151.696 163.309 158.415L155.487 163.442C151.117 157.598 147.187 151.439 143.73 145.013C146.201 142.302 149.033 140.046 151.036 140.898Z" fill="black"/>
<path d="M204.149 161.966L210.868 157.971L216.626 167.977C216.626 167.977 209.152 172.356 204.317 167.269L204.149 161.966Z" fill="#B55B52"/>
<path d="M220.261 158.067L223.273 165.781L216.626 167.977L210.867 157.971L220.261 158.067Z" fill="#B55B52"/>
<path opacity="0.2" d="M152.02 401.039L150.88 412.557L141.246 412.713L142.386 401.195L152.02 401.039Z" fill="black"/>
<path opacity="0.2" d="M96.2796 401.267H105.914L103.958 412.761H94.324L96.2796 401.267Z" fill="black"/>
<path d="M96.8795 126.621C107.245 163.166 105.578 202.013 106.202 209.956L157.671 208.024C166.417 153.496 150.712 123.142 150.712 123.142C150.712 123.142 147.413 122.506 142.926 122.038C141.51 121.894 139.998 121.774 138.415 121.69C137.539 121.69 136.651 121.606 135.751 121.594C128.469 121.705 121.199 122.23 113.976 123.166C112.596 123.334 111.204 123.55 109.861 123.766C108.517 123.982 107.377 124.21 106.261 124.438C100.923 125.482 96.8795 126.621 96.8795 126.621Z" fill="#448FF2"/>
<path opacity="0.2" d="M96.8795 126.621C107.245 163.166 105.578 202.013 106.202 209.956L157.671 208.024C166.417 153.496 150.712 123.142 150.712 123.142C150.712 123.142 147.413 122.506 142.926 122.038C141.51 121.894 139.998 121.774 138.415 121.69C137.539 121.69 136.651 121.606 135.751 121.594C128.469 121.705 121.199 122.23 113.976 123.166C112.596 123.334 111.204 123.55 109.861 123.766C108.517 123.982 107.377 124.21 106.261 124.438C100.923 125.482 96.8795 126.621 96.8795 126.621Z" fill="white"/>
<path opacity="0.2" d="M107.833 142.314C108.757 145.853 107.701 162.002 104.006 165.985C103.502 160.814 102.806 155.415 101.942 149.896L107.833 142.314Z" fill="black"/>
<path d="M138.775 121.666H138.403C137.527 121.666 136.639 121.582 135.739 121.57C128.436 121.695 121.146 122.236 113.904 123.19C112.848 123.322 111.792 123.478 110.749 123.646L112.344 125.014C117.071 129.057 122.578 132.8 130.736 132.8H131.78C135.943 132.632 138.607 131.276 139.722 128.745C140.141 127.575 140.273 126.322 140.108 125.091C139.943 123.859 139.486 122.685 138.775 121.666V121.666Z" fill="white"/>
<path d="M114.252 98.3793C116.148 105.302 118.475 118.079 113.916 123.13C118.019 126.645 123.334 130.652 131.696 130.329C140.059 130.005 138.175 124.33 135.751 121.51C127.773 120.215 127.545 114.384 128.553 108.829L114.252 98.3793Z" fill="#B55B52"/>
<path opacity="0.2" d="M120.059 102.686L128.457 108.865C128.217 110.159 128.089 111.472 128.073 112.788C125.05 112.572 120.695 109.597 120.143 106.49C119.882 105.238 119.854 103.949 120.059 102.686V102.686Z" fill="black"/>
<path d="M134.588 91.6967C137.323 94.4801 142.35 79.3033 136.987 75.6201C131.624 71.9368 121.174 77.9835 134.588 91.6967Z" fill="#263238"/>
<path d="M112.62 87.9055C113.916 97.3715 114.192 102.986 119.363 107.509C127.137 114.312 138.559 109.081 140.118 99.423C141.522 90.7249 139.171 76.6998 129.585 73.6045C127.472 72.9117 125.218 72.7705 123.035 73.1943C120.853 73.618 118.815 74.5926 117.115 76.0254C115.416 77.4583 114.11 79.3019 113.324 81.3812C112.537 83.4604 112.295 85.7063 112.62 87.9055V87.9055Z" fill="#B55B52"/>
<path d="M113.856 96.4836C116.963 98.8831 119.687 83.0825 113.856 80.2391C108.025 77.3957 98.4992 84.9301 113.856 96.4836Z" fill="#263238"/>
<path d="M110.209 82.3866C119.339 85.518 145.001 82.6026 140.466 63.9225C138.535 55.8602 129.801 62.7228 129.201 67.1858C124.738 63.5146 116.447 64.3184 117.419 70.1852C112.608 68.7815 94.4201 73.1846 110.209 82.3866Z" fill="#263238"/>
<path d="M109.105 98.7152C109.817 99.6819 110.714 100.498 111.744 101.116C112.774 101.733 113.916 102.141 115.104 102.314C118.259 102.77 119.423 99.8429 118.199 97.0835C117.095 94.6001 114.132 91.3727 111.133 92.1886C108.133 93.0044 107.377 96.3277 109.105 98.7152Z" fill="#B55B52"/>
<path d="M154.455 410.313L138.151 410.565C138.151 410.565 143.586 346.151 142.122 316.181C141.678 307.063 139.843 294.31 137.431 280.645C134.396 263.416 132.932 256.554 129.033 234.79C126.225 219.266 123.874 209.284 123.874 209.284L157.707 208.012C157.707 208.012 168.133 283.74 167.809 313.122C167.437 343.643 154.455 410.313 154.455 410.313Z" fill="#263238"/>
<path opacity="0.2" d="M135.571 229.152C141.642 244.268 141.762 279.685 138.967 289.655C138.487 286.704 137.971 283.656 137.431 280.609C134.384 263.38 132.92 256.518 129.033 234.754C128.961 234.323 128.877 233.903 128.805 233.483C130.794 231.66 133.083 230.194 135.571 229.152V229.152Z" fill="black"/>
<path d="M139.423 208.66C139.423 208.66 133.28 288.479 128.757 316.337C123.814 346.835 108.433 410.529 108.433 410.529H90.7968C90.7968 410.529 96.6156 352.942 100.227 322.948C104.33 288.875 106.226 209.872 106.226 209.872L139.423 208.66Z" fill="#263238"/>
<path d="M110.545 410.913H89.7771V404.711L112.992 404.303L110.545 410.913Z" fill="#448FF2"/>
<path opacity="0.5" d="M110.545 410.913H89.7771V404.711L112.992 404.303L110.545 410.913Z" fill="white"/>
<path d="M156.507 410.625L137.083 410.925L136.975 404.651L158.691 403.979L156.507 410.625Z" fill="#448FF2"/>
<path opacity="0.5" d="M156.507 410.625L137.083 410.925L136.975 404.651L158.691 403.979L156.507 410.625Z" fill="white"/>
<path d="M127.257 89.4891C127.257 90.269 127.773 90.8688 128.277 90.8208C128.781 90.7729 129.141 90.125 129.081 89.3572C129.021 88.5893 128.577 87.9894 128.061 88.0254C127.545 88.0614 127.173 88.7813 127.257 89.4891Z" fill="#263238"/>
<path d="M136.003 88.8413C136.003 89.6211 136.519 90.209 137.035 90.173C137.551 90.137 137.899 89.4771 137.839 88.7093C137.779 87.9415 137.323 87.3296 136.819 87.3656C136.315 87.4016 135.955 88.0614 136.003 88.8413Z" fill="#263238"/>
<path d="M133.256 89.4291C134.353 91.731 135.762 93.8707 137.443 95.7878C136.948 96.1983 136.37 96.4966 135.749 96.6623C135.127 96.828 134.477 96.8571 133.844 96.7476L133.256 89.4291Z" fill="#A02724"/>
<path d="M130.688 99.0631C129.816 99.0274 128.96 98.813 128.174 98.4333C127.388 98.0536 126.688 97.5166 126.117 96.8556C126.081 96.8062 126.065 96.7444 126.074 96.6837C126.083 96.6229 126.116 96.5682 126.165 96.5316C126.215 96.4951 126.277 96.4796 126.337 96.4886C126.398 96.4976 126.453 96.5303 126.489 96.5796C127.133 97.3017 127.937 97.8617 128.838 98.2141C129.739 98.5664 130.71 98.7011 131.672 98.6072C131.731 98.6038 131.788 98.6231 131.833 98.6611C131.878 98.6991 131.906 98.7528 131.912 98.8112C131.916 98.8421 131.912 98.8733 131.903 98.903C131.894 98.9327 131.879 98.9602 131.859 98.9838C131.838 99.0074 131.814 99.0266 131.786 99.0402C131.758 99.0539 131.727 99.0617 131.696 99.0631C131.361 99.0871 131.024 99.0871 130.688 99.0631V99.0631Z" fill="#263238"/>
<path d="M124.342 86.8617C124.264 86.8617 124.188 86.8364 124.126 86.7897C124.025 86.7255 123.953 86.624 123.926 86.5073C123.899 86.3905 123.919 86.2679 123.982 86.1658C124.364 85.5432 124.891 85.0218 125.517 84.6459C126.144 84.27 126.852 84.0506 127.581 84.0063C127.702 84.0063 127.818 84.0543 127.904 84.1398C127.989 84.2253 128.037 84.3413 128.037 84.4622C128.037 84.5831 127.989 84.6991 127.904 84.7846C127.818 84.8701 127.702 84.9181 127.581 84.9181V84.9181C127.008 84.9629 126.455 85.1442 125.966 85.4469C125.478 85.7495 125.069 86.1647 124.774 86.6577C124.73 86.7304 124.665 86.7886 124.589 86.8248C124.512 86.8611 124.426 86.8739 124.342 86.8617V86.8617Z" fill="#263238"/>
<path d="M139.555 85.5539C139.481 85.5481 139.409 85.5243 139.346 85.4846C139.284 85.4449 139.232 85.3904 139.195 85.326C138.919 84.8229 138.528 84.3915 138.055 84.0664C137.582 83.7414 137.04 83.5318 136.471 83.4544C136.35 83.4544 136.234 83.4064 136.149 83.3209C136.063 83.2354 136.015 83.1194 136.015 82.9985C136.015 82.8776 136.063 82.7616 136.149 82.6761C136.234 82.5906 136.35 82.5426 136.471 82.5426C137.19 82.6259 137.878 82.8794 138.479 83.2821C139.08 83.6848 139.576 84.2251 139.927 84.8581C139.958 84.9096 139.979 84.9671 139.988 85.027C139.997 85.0868 139.993 85.1479 139.977 85.2063C139.961 85.2647 139.934 85.3193 139.896 85.3667C139.859 85.4141 139.812 85.4533 139.759 85.482C139.697 85.5216 139.627 85.5462 139.555 85.5539V85.5539Z" fill="#263238"/>
<path d="M106.645 424.135C105.795 424.11 104.951 423.994 104.126 423.787C104.082 423.775 104.043 423.751 104.013 423.716C103.983 423.682 103.964 423.64 103.958 423.595C103.952 423.55 103.958 423.505 103.978 423.464C103.997 423.424 104.028 423.39 104.066 423.367C104.414 423.151 107.521 421.243 108.589 421.783C108.704 421.848 108.8 421.942 108.867 422.056C108.935 422.169 108.971 422.299 108.973 422.431C108.999 422.654 108.971 422.88 108.889 423.089C108.807 423.299 108.676 423.484 108.505 423.631C107.958 423.999 107.304 424.177 106.645 424.135V424.135ZM104.786 423.511C106.429 423.835 107.677 423.775 108.205 423.331C108.323 423.233 108.414 423.107 108.468 422.964C108.523 422.821 108.54 422.666 108.517 422.515C108.521 422.46 108.509 422.405 108.484 422.357C108.458 422.308 108.42 422.267 108.373 422.239C107.821 421.903 106.058 422.731 104.786 423.511Z" fill="#448FF2"/>
<path d="M104.186 423.787C104.143 423.799 104.097 423.799 104.054 423.787C104.02 423.766 103.992 423.735 103.975 423.699C103.958 423.663 103.952 423.622 103.958 423.583C103.958 423.463 104.198 420.679 105.314 419.767C105.445 419.651 105.6 419.566 105.768 419.516C105.936 419.466 106.112 419.454 106.286 419.48C106.455 419.479 106.619 419.537 106.751 419.644C106.882 419.752 106.972 419.901 107.005 420.067C107.209 421.147 105.29 423.259 104.294 423.799L104.186 423.787ZM106.13 419.911C105.934 419.91 105.745 419.983 105.602 420.115C104.907 420.975 104.488 422.025 104.402 423.127C105.398 422.371 106.621 420.727 106.501 420.151C106.501 420.091 106.501 419.947 106.166 419.911H106.07H106.13Z" fill="#448FF2"/>
<path d="M150.688 423.583C150.649 423.566 150.616 423.54 150.59 423.506C150.565 423.472 150.549 423.433 150.544 423.391C150.534 423.346 150.539 423.299 150.559 423.258C150.578 423.217 150.611 423.183 150.652 423.163C151.096 422.923 154.935 420.907 156.111 421.531C156.222 421.592 156.315 421.68 156.382 421.787C156.449 421.894 156.488 422.017 156.495 422.143V422.143C156.523 422.348 156.5 422.557 156.429 422.751C156.358 422.946 156.241 423.12 156.087 423.259C155.043 424.207 152.284 423.871 150.724 423.583H150.688ZM155.811 421.903C155.079 421.663 152.992 422.491 151.48 423.247C153.616 423.571 155.199 423.451 155.775 422.923C155.877 422.831 155.955 422.714 156.001 422.584C156.047 422.454 156.06 422.315 156.039 422.179C156.04 422.129 156.027 422.081 156.001 422.038C155.976 421.996 155.939 421.961 155.895 421.939L155.811 421.903Z" fill="#448FF2"/>
<path d="M150.688 423.583C150.654 423.56 150.627 423.53 150.608 423.495C150.589 423.459 150.58 423.419 150.58 423.379C150.58 423.271 150.808 420.667 152.02 419.647C152.183 419.503 152.373 419.393 152.579 419.323C152.785 419.253 153.003 419.225 153.22 419.24V419.24C153.844 419.24 154.035 419.599 154.083 419.863C154.275 420.943 152.008 423.067 150.844 423.607C150.791 423.615 150.736 423.606 150.688 423.583V423.583ZM153.424 419.695H153.196C153.028 419.68 152.86 419.7 152.701 419.753C152.541 419.807 152.395 419.894 152.272 420.007C151.574 420.856 151.155 421.899 151.072 422.995C152.272 422.263 153.784 420.595 153.664 419.947C153.64 419.911 153.568 419.755 153.424 419.695Z" fill="#448FF2"/>
<path d="M107.533 138.991L98.4872 158.703C97.0115 162.002 95.4998 165.277 94.0961 168.588C93.4002 170.232 92.6564 171.876 91.9965 173.519L91.4806 174.719C91.3127 175.139 91.2167 175.427 91.0847 175.775C90.8088 176.447 90.6288 177.191 90.4009 177.898C89.5888 180.966 89.1457 184.12 89.0812 187.292C88.9739 190.681 89.1102 194.073 89.4891 197.442C89.861 200.874 90.4249 204.341 91.1447 207.796C91.8646 211.251 92.7284 214.779 93.6642 218.054L87.0296 220.933C86.0578 219.134 85.254 217.466 84.4741 215.691C83.6943 213.915 82.9744 212.175 82.2906 210.376C80.9253 206.757 79.7952 203.054 78.9073 199.29C76.8661 191.363 76.4943 183.098 77.8155 175.019C78.0555 173.963 78.2594 172.896 78.5954 171.828L79.0513 170.268L79.4952 168.912C80.0711 167.101 80.6949 165.313 81.2948 163.538C82.5665 159.938 83.8623 156.483 85.266 153.028C88.0374 146.069 91.0487 139.327 94.408 132.632L107.533 138.991Z" fill="#B65B52"/>
<path d="M96.8796 126.621C88.0974 129.381 79.4593 159.17 79.4593 159.17L99.783 168.061C99.783 168.061 106.358 153.664 110.137 142.386C114.264 130.089 107.521 123.286 96.8796 126.621Z" fill="#448FF2"/>
<path opacity="0.2" d="M96.8796 126.621C88.0974 129.381 79.4593 159.17 79.4593 159.17L99.783 168.061C99.783 168.061 106.358 153.664 110.137 142.386C114.264 130.089 107.521 123.286 96.8796 126.621Z" fill="white"/>
<path d="M93.1245 216.422L97.8635 224.977L86.6938 227.88C86.6938 227.88 83.3105 219.59 87.3057 216.95L93.1245 216.422Z" fill="#B55B52"/>
<path d="M98.6911 234.682L88.4333 235.534L86.6937 227.88L97.8633 224.977L98.6911 234.682Z" fill="#B55B52"/>
<path d="M299.937 272.763C299.849 275.733 298.61 278.552 296.48 280.623C294.35 282.694 291.498 283.856 288.527 283.861H258.341C260.833 287.313 262.323 291.386 262.647 295.631C262.972 299.876 262.117 304.129 260.178 307.919C258.24 311.71 255.292 314.891 251.66 317.113C248.028 319.335 243.853 320.51 239.595 320.51C235.338 320.51 231.163 319.335 227.531 317.113C223.899 314.891 220.951 311.71 219.013 307.919C217.074 304.129 216.219 299.876 216.543 295.631C216.868 291.386 218.358 287.313 220.849 283.861H190.652C187.631 283.854 184.736 282.651 182.599 280.515C180.463 278.379 179.26 275.484 179.254 272.463V174.588C179.26 171.566 180.463 168.669 182.599 166.531C184.734 164.393 187.63 163.188 190.652 163.178H288.527C291.498 163.186 294.349 164.35 296.476 166.424C298.604 168.498 299.841 171.318 299.925 174.288V204.773C296.473 202.288 292.403 200.804 288.162 200.484C283.921 200.164 279.674 201.02 275.888 202.959C272.103 204.898 268.926 207.844 266.708 211.473C264.49 215.102 263.316 219.272 263.316 223.525C263.316 227.778 264.49 231.949 266.708 235.578C268.926 239.206 272.103 242.152 275.888 244.091C279.674 246.03 283.921 246.887 288.162 246.567C292.403 246.247 296.473 244.762 299.925 242.277V272.463C299.923 272.563 299.927 272.663 299.937 272.763V272.763Z" fill="#448FF2"/>
<path opacity="0.3" d="M239.589 316.985C235.971 316.994 232.422 316.002 229.332 314.12C226.243 312.237 223.734 309.536 222.084 306.316C220.434 303.097 219.706 299.483 219.982 295.876C220.257 292.269 221.525 288.808 223.645 285.876L227.58 280.417H190.652C188.545 280.411 186.527 279.57 185.038 278.079C183.55 276.589 182.713 274.569 182.709 272.463V174.587C182.709 172.479 183.545 170.456 185.034 168.963C186.523 167.469 188.543 166.627 190.652 166.621H288.527C290.597 166.635 292.582 167.45 294.064 168.895C295.547 170.34 296.413 172.302 296.481 174.371V198.714C296.48 198.738 296.472 198.762 296.46 198.783C296.447 198.803 296.43 198.821 296.409 198.834C296.387 198.846 296.362 198.852 296.337 198.852C296.312 198.852 296.288 198.846 296.265 198.834C293.149 197.584 289.821 196.944 286.463 196.95C282.929 196.875 279.414 197.507 276.126 198.808C272.839 200.108 269.844 202.052 267.317 204.526C264.791 206.999 262.783 209.952 261.413 213.212C260.042 216.471 259.337 219.971 259.337 223.507C259.337 227.043 260.042 230.543 261.413 233.802C262.783 237.061 264.791 240.014 267.317 242.488C269.844 244.961 272.839 246.905 276.126 248.206C279.414 249.507 282.929 250.138 286.463 250.063C289.822 250.073 293.15 249.434 296.265 248.18C296.288 248.168 296.312 248.162 296.337 248.162C296.362 248.162 296.387 248.168 296.409 248.18C296.43 248.193 296.447 248.21 296.46 248.231C296.472 248.252 296.48 248.275 296.481 248.3V272.774C296.369 274.815 295.484 276.737 294.007 278.149C292.53 279.562 290.571 280.36 288.527 280.381H251.635L255.534 285.828C255.562 285.857 255.577 285.895 255.577 285.936C255.577 285.976 255.562 286.015 255.534 286.044C255.521 286.057 255.505 286.068 255.487 286.075C255.47 286.082 255.451 286.086 255.432 286.086C255.413 286.086 255.394 286.082 255.377 286.075C255.359 286.068 255.343 286.057 255.33 286.044L251.251 280.345C251.236 280.322 251.228 280.295 251.228 280.267C251.228 280.239 251.236 280.212 251.251 280.189C251.265 280.167 251.285 280.149 251.308 280.136C251.331 280.123 251.357 280.117 251.383 280.117H288.575C290.538 280.093 292.42 279.326 293.84 277.97C295.26 276.614 296.114 274.771 296.229 272.81V248.552C293.132 249.761 289.836 250.38 286.511 250.375C282.561 250.381 278.659 249.516 275.081 247.841C271.504 246.167 268.34 243.724 265.814 240.686C263.289 237.649 261.465 234.092 260.471 230.269C259.478 226.446 259.34 222.451 260.067 218.568C260.794 214.685 262.368 211.011 264.678 207.807C266.987 204.602 269.975 201.946 273.429 200.029C276.882 198.111 280.716 196.978 284.657 196.712C288.598 196.445 292.549 197.051 296.229 198.486V174.383C296.164 172.392 295.331 170.502 293.904 169.111C292.478 167.72 290.568 166.935 288.575 166.921H190.652C189.647 166.922 188.651 167.122 187.723 167.508C186.795 167.894 185.952 168.459 185.243 169.171C184.533 169.883 183.971 170.728 183.587 171.657C183.204 172.586 183.008 173.582 183.009 174.587V272.463C183.009 274.491 183.814 276.436 185.247 277.871C186.68 279.306 188.624 280.114 190.652 280.117H227.844C227.871 280.114 227.898 280.119 227.921 280.132C227.945 280.145 227.964 280.165 227.976 280.189C227.991 280.212 227.999 280.239 227.999 280.267C227.999 280.295 227.991 280.322 227.976 280.345L223.873 286.056C221.489 289.333 220.204 293.281 220.201 297.333C220.201 302.469 222.242 307.394 225.873 311.026C229.504 314.657 234.43 316.697 239.565 316.697C244.701 316.697 249.626 314.657 253.258 311.026C256.889 307.394 258.929 302.469 258.929 297.333C258.929 297.295 258.944 297.259 258.971 297.232C258.998 297.205 259.035 297.189 259.073 297.189C259.093 297.188 259.113 297.19 259.132 297.197C259.151 297.203 259.168 297.213 259.183 297.227C259.198 297.241 259.209 297.257 259.217 297.275C259.225 297.294 259.229 297.313 259.229 297.333C259.22 302.54 257.148 307.531 253.467 311.215C249.786 314.898 244.796 316.972 239.589 316.985V316.985Z" fill="white"/>
<path d="M409.222 163.166H379.048C381.532 166.619 383.014 170.692 383.332 174.934C383.651 179.176 382.792 183.424 380.852 187.209C378.911 190.995 375.964 194.172 372.334 196.39C368.704 198.608 364.532 199.782 360.278 199.782C356.024 199.782 351.852 198.608 348.222 196.39C344.593 194.172 341.645 190.995 339.705 187.209C337.764 183.424 336.905 179.176 337.224 174.934C337.542 170.692 339.024 166.619 341.508 163.166H311.334C308.313 163.175 305.419 164.379 303.281 166.514C301.144 168.649 299.937 171.542 299.925 174.563V204.761C296.473 202.276 292.403 200.791 288.162 200.471C283.921 200.151 279.674 201.008 275.888 202.947C272.103 204.886 268.926 207.832 266.708 211.461C264.49 215.089 263.316 219.26 263.316 223.513C263.316 227.766 264.49 231.937 266.708 235.565C268.926 239.194 272.103 242.14 275.888 244.079C279.674 246.018 283.921 246.875 288.162 246.554C292.403 246.234 296.473 244.75 299.925 242.265V272.463C299.934 275.486 301.139 278.382 303.277 280.52C305.415 282.658 308.311 283.863 311.334 283.872H409.222C412.244 283.863 415.139 282.657 417.275 280.519C419.411 278.381 420.613 275.485 420.619 272.463V174.575C420.613 171.553 419.411 168.657 417.275 166.519C415.139 164.381 412.244 163.175 409.222 163.166V163.166Z" fill="#263238"/>
<path opacity="0.3" d="M409.222 280.417H311.334C309.225 280.417 307.201 279.579 305.71 278.087C304.218 276.595 303.38 274.572 303.38 272.463V235.534L297.921 239.47C294.988 241.585 291.528 242.849 287.922 243.122C284.316 243.395 280.705 242.667 277.487 241.017C274.269 239.368 271.569 236.862 269.685 233.775C267.801 230.688 266.807 227.141 266.812 223.525C266.81 223.505 266.813 223.485 266.819 223.466C266.825 223.447 266.836 223.43 266.849 223.415C266.863 223.401 266.879 223.389 266.898 223.381C266.916 223.373 266.936 223.369 266.956 223.369C266.997 223.369 267.037 223.385 267.066 223.415C267.095 223.444 267.112 223.484 267.112 223.525C267.107 227.085 268.086 230.578 269.94 233.617C271.795 236.657 274.453 239.125 277.621 240.749C280.789 242.374 284.345 243.091 287.895 242.823C291.446 242.555 294.853 241.311 297.741 239.23L303.44 235.126C303.463 235.112 303.489 235.103 303.516 235.102C303.543 235.1 303.57 235.106 303.594 235.118C303.618 235.13 303.639 235.148 303.654 235.171C303.669 235.193 303.678 235.219 303.68 235.246V272.439C303.68 274.469 304.486 276.416 305.922 277.851C307.357 279.287 309.304 280.093 311.334 280.093H409.222C411.252 280.093 413.199 279.287 414.634 277.851C416.07 276.416 416.876 274.469 416.876 272.439V174.575C416.873 172.546 416.065 170.601 414.631 169.166C413.196 167.731 411.251 166.924 409.222 166.921H385.323C386.901 170.991 387.464 175.385 386.962 179.722C386.46 184.059 384.909 188.208 382.442 191.811C379.976 195.413 376.668 198.36 372.806 200.396C368.944 202.432 364.644 203.496 360.278 203.496C355.912 203.496 351.612 202.432 347.75 200.396C343.888 198.36 340.58 195.413 338.114 191.811C335.647 188.208 334.096 184.059 333.594 179.722C333.092 175.385 333.655 170.991 335.233 166.921H311.334C309.305 166.924 307.36 167.731 305.925 169.166C304.491 170.601 303.683 172.546 303.68 174.575V211.767C303.679 211.796 303.67 211.825 303.656 211.85C303.641 211.875 303.62 211.896 303.596 211.911C303.572 211.923 303.545 211.929 303.518 211.929C303.491 211.929 303.464 211.923 303.44 211.911L297.741 207.808C294.462 205.429 290.515 204.148 286.464 204.149C286.425 204.149 286.389 204.134 286.362 204.107C286.335 204.08 286.32 204.043 286.32 204.005C286.318 203.985 286.32 203.965 286.327 203.946C286.333 203.927 286.344 203.91 286.357 203.895C286.371 203.881 286.387 203.869 286.406 203.861C286.424 203.853 286.444 203.849 286.464 203.849C290.578 203.846 294.588 205.144 297.921 207.556L303.38 211.491V174.575C303.383 172.467 304.222 170.445 305.713 168.954C307.204 167.463 309.226 166.624 311.334 166.621H335.449C335.475 166.622 335.501 166.629 335.524 166.641C335.547 166.654 335.566 166.671 335.581 166.693C335.59 166.714 335.595 166.736 335.595 166.759C335.595 166.782 335.59 166.804 335.581 166.825C334.334 169.95 333.699 173.286 333.71 176.651C333.857 183.596 336.72 190.207 341.684 195.067C346.648 199.927 353.319 202.649 360.266 202.649C367.213 202.649 373.884 199.927 378.848 195.067C383.812 190.207 386.675 183.596 386.822 176.651C386.833 173.286 386.197 169.95 384.951 166.825C384.939 166.805 384.933 166.782 384.933 166.759C384.933 166.736 384.939 166.713 384.951 166.693C384.965 166.671 384.984 166.653 385.007 166.64C385.031 166.627 385.056 166.621 385.083 166.621H409.198C411.306 166.624 413.328 167.463 414.819 168.954C416.31 170.445 417.149 172.467 417.152 174.575V272.463C417.149 274.567 416.313 276.585 414.827 278.075C413.341 279.566 411.326 280.407 409.222 280.417V280.417Z" fill="white"/>
</svg>
